<svg width="406" height="314" viewBox="0 0 406 314" fill="none" xmlns="http://www.w3.org/2000/svg">
<path fill-rule="evenodd" clip-rule="evenodd" d="M112.379 70.7812C113.727 70.6675 117.214 67.9738 115.385 66.6116C113.539 65.2369 112.212 69.8433 112.379 70.7812ZM42.1349 81.1121C42.4873 81.05 42.3335 79.1209 41.7785 78.8745C40.0269 78.097 39.879 81.0196 39.8362 81.8017C39.783 82.7888 39.6594 85.5691 41.7891 84.8069C42.9982 84.3742 42.248 81.8521 42.1349 81.1121ZM145.544 90.1235C145.497 91.8453 148.975 95.1562 150.272 93.1701C151.363 91.5016 145.633 86.6962 145.544 90.1235ZM22.5616 51.2918C23.5694 53.8626 28.5536 50.3589 28.7388 48.4731C29.1191 44.6112 22.5095 48.7223 22.5616 51.2918ZM64.1452 62.376C66.4664 62.1852 69.5207 59.2342 71.7589 58.1317C73.2737 57.3858 77.3951 56.4966 77.8434 54.8029C78.2335 53.3311 71.2405 56.4813 70.6434 56.7611C67.9001 58.0464 65.4265 59.5115 64.1452 62.376ZM238.399 42.0264C240.249 40.5959 242.498 39.673 244.87 39.7335C246.054 39.7637 248.525 40.5046 248.617 38.4565C248.769 35.1259 238.309 39.1877 236.675 39.841C237.249 40.5699 237.824 41.2981 238.399 42.0264ZM122.982 171.816C121.625 169.562 119.184 168.259 117.348 166.336C118.021 169.493 116.504 172.301 115.462 175.184C117.969 174.061 120.475 172.938 122.982 171.816ZM358.686 219.864C359.434 217.361 360.183 214.872 361.058 212.406C362.036 209.646 362.523 209.407 360.181 207.478C358.237 211.152 356.293 214.826 354.348 218.501C355.732 219.089 357.177 219.662 358.686 219.864ZM157.488 38.6487C154.914 35.7474 142.851 35.5653 144.344 41.9685C144.865 44.2044 147.83 41.8292 149.688 41.308C151.532 40.7905 156.753 40.7218 157.488 38.6487ZM157.046 79.724C156.734 78.9836 156.111 76.3112 155.186 76.1006C154.285 75.8953 150.732 78.6984 150.063 79.1262C146.731 81.2615 143.482 83.5586 140.235 85.8223C141.478 85.8223 142.607 85.3796 143.843 85.37C145.312 85.3575 146.366 85.9607 147.797 85.6164C150.874 84.8778 154.445 81.4686 157.046 79.724ZM160.38 13.5238C160.669 12.1967 175.75 16.1803 177.563 16.9097C178.55 17.3065 183.646 19.955 182.551 15.9633C181.927 13.6898 176.039 11.9567 174.153 11.3336C169.356 9.75035 164.299 8.62417 159.191 8.88535C158.199 8.93572 150.689 9.36915 153.825 12.3883C154.906 13.428 158.78 13.1003 160.38 13.5238ZM163.681 195.849C166.491 197.231 169.36 198.289 172.297 199.37C173.602 199.85 175.634 201.107 177.074 200.792C178.252 200.532 178.63 198.737 179.249 197.535C181.514 193.139 184.218 189.592 187.57 185.967C186.013 184.832 178.111 189.84 176.156 190.58C174.199 191.32 172.352 192.065 170.436 192.949C168.632 193.782 165.073 194.526 163.681 195.849ZM213.433 158.373C217.528 156.52 221.41 153.234 224.769 150.292C228.625 146.913 232.082 143.373 234.905 139.001C233.206 139.088 229.455 144.553 229.414 138.604C229.392 135.569 233.551 132.579 234.842 129.765C231.631 127.952 228.688 138.784 225.003 136.158C221.454 133.628 227.054 124.93 228.133 122.185C226.051 120.8 214.19 136.304 212.473 138.288C211.4 139.529 208.86 141.183 208.254 142.631C207.893 143.493 207.842 146.229 208.016 147.023C208.38 148.681 210.219 150.668 211.039 152.212C212.076 154.167 212.979 156.199 213.433 158.373ZM382.73 214.269C379.188 209.27 382.846 207.091 385.726 202.942C388.029 199.623 390.148 195.965 391.607 192.259C395.258 182.989 398.553 174.372 400.356 164.566C397.875 165.699 396.323 170.01 395.082 172.282C393.412 175.336 391.944 178.542 390.089 181.501C386.617 187.038 383.208 192.944 378.792 197.744C376.791 199.919 375.097 202.366 372.789 204.326C371.734 205.221 369.716 205.956 368.939 207.075C368.206 208.132 369.026 208.808 368.747 210.071C368.462 211.366 367.151 212.747 366.589 213.994C365.85 215.632 365.163 217.274 364.339 218.876C363.44 220.623 363.194 221.536 362.952 223.244C362.687 225.111 363.499 225.304 361.869 227.024C364.823 228.327 367.777 229.629 370.731 230.932C371.728 231.372 372.725 231.811 373.722 232.251C373.932 231.857 374.142 231.463 374.352 231.069C375.164 230.281 375.911 228.336 376.375 227.295C378.316 222.948 380.508 218.585 382.73 214.269ZM97.4657 193.286C89.0779 215.369 118.553 233.963 136.697 238.075C139.211 238.645 141.663 239.39 144.165 240.002C146.893 240.669 149.315 240.536 152.038 240.815C154.204 241.037 155.236 242.71 157.277 243.172C160.688 243.942 160.48 241.379 160.724 238.632C161.759 226.987 167.703 215.75 173.993 206.033C171.12 205.005 168.273 203.883 165.436 202.758C163.009 201.794 159.292 199.086 156.683 198.943C154.753 198.837 151.812 200.485 149.938 201.208C146.816 202.413 143.685 203.439 140.432 204.26C134.743 205.697 128.412 207.655 122.526 207.803C120.829 207.846 116.173 208.637 114.952 207.588C112.623 205.588 115.855 203.921 117.805 203.207C129.424 198.952 141.761 197.143 153.413 192.781C159.408 190.535 165.343 188.029 171.376 185.817C176.577 183.911 182.025 182.223 187.051 179.878C193.689 176.782 200.356 172.925 206.103 168.382C207.254 167.473 209.665 166.122 210.453 164.805C211.147 163.645 211.061 164.801 210.917 163.395C210.813 162.385 209.577 161.016 209.069 160.061C207.175 156.503 205.463 152.848 204.023 149.083C194.854 153.016 186.132 158.369 177.098 162.571C168.005 166.802 157.748 169.786 148.021 172.166C143.881 173.179 139.121 173.499 135.324 175.501C133.711 176.352 132.116 177.335 130.388 177.827C129.878 178.806 129.375 178.998 128.88 178.403C128.57 178.055 128.169 177.908 127.677 177.962C126.621 178.141 125.543 178.64 124.554 179.023C119.551 180.963 114.761 183.392 110.011 185.87C107.76 187.044 105.451 188.2 103.296 189.541C102.142 190.259 101.107 190.984 100.162 191.971C99.0293 193.154 99.2989 194.127 97.4657 193.286ZM286.213 62.1681C288.332 62.2024 290.264 61.0544 292.475 61.1181C295.951 61.2186 298.702 63.9137 300.72 66.5126C304.712 71.6552 303.694 77.8587 301.688 83.6136C300.729 86.3638 299.412 89.0038 297.765 91.4114C296.308 93.5426 293.703 95.5585 292.686 97.9318C291.009 101.845 294.393 100.181 296.465 99.3453C299.07 98.2935 301.512 96.9861 303.723 95.2251C313.578 87.3764 321.075 76.4667 323.586 63.9376C324.811 57.8248 324.717 50.6785 320.458 45.6892C316.566 41.1271 309.845 39.6365 304.101 40.4823C297.891 41.3974 292.263 44.0275 287.206 47.4134C285.738 48.3972 284.393 49.4711 283.014 50.5713C281.205 52.0148 280.12 52.0528 280.573 54.3151C280.909 55.997 281.825 57.7396 282.416 59.3535C283.521 62.3765 283.117 63.1586 286.213 62.1681ZM292.971 114.281L292.542 115.014C295.498 115.155 298.252 112.547 300.772 111.273C304.044 109.618 306.95 107.361 309.818 105.081C314.876 101.06 319.999 96.5294 323.764 91.251C332.203 79.4182 339.869 64.4168 337.566 49.4147C335.084 33.2459 320.942 27.022 305.873 29.1624C299.082 30.1269 293.019 33.1588 286.941 36.2367C283.878 37.7886 281.293 39.8015 278.486 41.75C277.03 42.7616 275.701 42.8929 275.606 44.6617C275.534 45.9947 277.838 49.0088 278.461 50.2167C286.092 42.4324 294.315 35.9927 305.839 35.5948C319.548 35.1214 327.655 48.1204 327.595 60.5681C327.536 72.7756 322.271 84.5182 313.878 93.2915C310.063 97.2787 306.426 100.478 301.743 103.388C299.408 104.839 297.686 106.141 295.075 107.104C293.228 107.786 293.421 107.427 292.95 109.136C292.55 110.587 292.958 112.775 292.971 114.281ZM218.477 280.135C218.299 282.335 217.852 284.501 217.354 286.646C217.175 287.417 216.169 289.85 216.346 290.716C216.637 292.148 216.249 291.227 217.504 291.974C218.812 292.754 220.336 292.707 221.769 292.944C222.653 293.09 225.894 294.615 226.439 294.374C227.391 293.953 227.361 292.469 228.407 291.88C229.831 291.078 231.93 291.765 233.274 292.393C236.866 294.068 239.334 297.537 242.81 299.436C248.983 302.807 256.308 304.673 263.195 305.443C266.926 305.861 270.744 306.593 274.428 305.719C277.331 305.03 281.104 305.093 282.682 301.979C268.658 298.122 247.253 293.402 241.708 277.308C238.694 280.041 233.656 278.57 230.014 278.192C226.006 277.777 222.425 277.874 218.76 276.047C218.492 277.483 218.41 278.675 218.477 280.135ZM94.3091 180.458C100.911 180.857 107.169 177.733 111.232 172.462C112.232 171.163 113.257 169.838 113.858 168.3C113.988 167.911 114.118 167.52 114.248 167.131C114.878 166.054 114.602 165.546 113.421 165.607C112.755 164.694 111.067 164.387 111.547 162.732C111.909 161.483 113.243 161.463 114.403 161.07C113.826 160.1 113.48 159.613 112.653 158.749C110.504 160.682 106.605 164.476 105.095 160.035C104.37 157.904 105.646 155.866 105.33 153.81C105.2 152.959 104.122 150.787 103.497 150.278C100.169 147.569 95.3755 148.69 91.8445 150.285C89.4109 151.384 88.8873 151.9 88.4903 154.42C88.0871 156.982 87.713 159.543 87.2657 162.098C88.726 161.337 88.9921 159.694 89.9444 158.51C90.3011 159.159 90.6578 159.809 91.0157 160.459C91.5182 160.177 91.9878 160.192 92.4233 160.504C93.128 161.587 92.6844 163.194 92.4679 164.33C94.8178 164.111 95.8109 166.732 93.4419 167.794C90.9878 168.894 89.8811 165.895 89.798 163.953C88.8823 165.047 87.9419 164.462 87.3036 165.023C86.6659 165.585 86.4146 166.756 86.1876 168.039C85.8148 170.146 84.8607 173.186 85.7434 175.3C87.0542 178.439 91.2334 180.073 94.3091 180.458ZM285.607 79.6179C283.423 82.6557 279.698 86.6323 278.919 90.3025C281.325 88.8906 286.412 82.0968 287.723 87.5086C288.475 90.615 284.617 94.3165 283.669 97.3242C287.463 96.0759 290.166 92.1661 292.533 89.1486C295.552 85.3013 298.634 80.2295 299.405 75.3374C300.028 71.3785 297.281 67.6887 293.201 67.3008C291.117 67.1022 288.94 67.4332 286.926 67.9167C286.008 68.1367 284.638 68.41 283.819 68.9021C282.79 69.5198 282.649 70.9667 281.679 69.7631C280.392 72.1905 279.104 74.6179 277.816 77.0447C279.098 76.5796 281.713 74.6057 283.113 74.8097C285.159 75.1082 285.579 78.0791 285.607 79.6179ZM81.0801 20.1923C75.3533 20.3611 69.3675 21.5806 63.9461 23.3934C62.5998 23.8439 56.9202 25.4463 58.1162 27.7693C58.9067 29.3047 63.1693 27.135 64.4578 26.7732C69.9804 25.2223 75.6669 24.1996 81.3236 23.2662C82.6935 23.0403 87.3398 23.0626 87.5795 21.2672C87.8732 19.0765 82.6972 20.1898 81.0801 20.1923ZM236.937 270.06C233.833 270.439 230.853 270.297 227.746 269.917C225.131 269.597 222.468 268.526 219.866 268.526C219.866 271.311 219.678 271.329 222.616 271.925C224.667 272.341 226.747 272.575 228.819 272.865C232.468 273.375 236.52 274.807 240.214 274.071C240.124 273.588 239.841 270.324 239.458 270.001C239.243 269.82 237.251 270.063 236.937 270.06ZM186.77 64.0028C187.638 64.5558 189.633 66.7609 190.667 66.7998C190.297 64.2467 187.449 59.8017 184.178 61.3794C183.377 61.7663 181.693 63.6926 182.454 64.5424C182.861 64.9967 185.706 64.0057 186.77 64.0028ZM156.507 86.7144C156.538 86.2695 156.57 85.8247 156.603 85.3799C155.403 86.0857 153.917 86.4196 153.064 87.5566C154.088 88.0103 155.111 88.4646 156.136 88.9189C156.259 88.1841 156.383 87.4492 156.507 86.7144ZM251.033 154.496C256.704 156.482 261.903 159.134 266.077 163.636C269.685 167.529 271.381 174.389 272.262 179.492C274.441 192.12 270.236 203.825 267.463 215.906C266.056 222.035 263.956 227.932 261.99 233.902C260.273 239.115 258.801 244.574 256.431 249.531C254.421 253.734 251.854 257.878 250.086 262.239C249.135 264.585 247.594 272.637 243.983 270.108C242.998 272.684 242.758 272.465 243.812 274.254C244.574 275.55 247.16 277.348 248.38 278.403C251.632 281.215 255.75 283.532 259.565 285.501C266.552 289.107 274.042 291.804 281.237 295.092C284.418 296.546 287.868 298.264 287.154 302.426C286.556 305.914 284.537 308.56 281.389 310.112C278.433 311.57 274.205 312.695 270.953 313.152C269.024 313.423 268.582 312.62 267.009 312.343C265.258 312.034 263.215 312.631 261.409 312.616C253.302 312.545 246.204 310.505 239.652 305.804C237.311 304.124 233.865 299.566 230.801 299.567C229.235 299.567 229.565 300.518 228.188 301.076C226.487 301.765 223.558 300.465 221.887 300.16C218.326 299.51 214.705 298.85 212.334 295.783C209.77 292.468 210.682 288.363 211.783 284.682C213.025 280.533 215.114 276.324 216.002 272.112C216.219 271.087 216.418 269.178 216.198 268.135C215.857 266.518 214.224 265.553 214.175 263.802C214.16 263.269 214.922 262.567 215.055 262.017C215.35 260.809 215.304 259.556 215.425 258.327C215.642 256.135 216.142 254.034 216.486 251.868C217.271 246.937 218.817 242.539 220.313 237.789C221.765 233.178 223.147 229.747 225.955 225.755C227.408 223.688 232.27 216.322 229.895 214.202C226.646 220.584 222.846 225.562 217.873 230.643C214.07 234.53 210.351 239.755 205.591 242.523C200.357 245.566 193.961 247.357 188.181 248.966C185.432 249.731 183.151 251.428 180.188 251.742C176.976 252.081 173.707 251.681 170.562 250.965C169.676 250.763 167.123 249.403 166.321 249.489C165.141 249.618 163.443 251.722 162.148 252.108C158.995 253.048 156.842 251.252 154.451 249.591C151.855 247.789 151.07 247.341 148.075 247.125C144.407 246.859 140.839 245.566 137.231 244.774C130.887 243.383 125.495 240.562 119.729 237.609C113.12 234.226 107.466 229.558 102.484 224.046C95.1601 215.941 84.9606 193.482 96.9242 185.619C89.8812 184.662 83.4306 181.587 82.5722 173.615C82.1237 169.444 82.9679 164.824 84.0168 160.803C84.4955 158.967 85.0663 157.143 85.6132 155.326C86.0249 154.712 86.243 154.041 86.2657 153.311C86.5183 152.366 86.1539 151.894 85.1726 151.899C83.3176 149.73 81.9227 147.815 81.5479 144.735C81.4299 143.759 81.3242 142.263 82.0186 141.433C82.34 141.1 82.7277 140.877 83.1805 140.765C84.2675 140.827 84.5747 140.291 84.1022 139.159C84.6301 137.554 83.8472 136.303 85.8362 135.633C86.474 135.769 87.1088 135.917 87.7411 136.078C88.5478 136.446 89.0726 136.179 89.3165 135.28C91.1906 134.547 90.3261 133.463 92.8724 134.406C94.4135 134.978 95.8796 135.961 97.0016 137.159C98.4093 136.255 95.208 130.67 95.1011 128.888C94.8479 124.688 96.5844 121.215 98.8437 117.765C103.235 111.06 109.365 105.295 115.41 100.108C126.988 90.1737 139.151 80.7162 152.224 72.8017C146.831 69.0561 140.531 68.0407 134.113 69.7815C128.197 71.3865 123.402 74.3011 117.956 76.8508C112.911 79.2119 107.556 80.1818 105.948 73.7384C104.145 66.5211 109.895 63.8418 115.053 60.6054C113.765 59.6447 109.526 60.3314 107.922 60.445C104.35 60.6975 100.934 61.504 97.4631 62.2171C95.7985 62.5586 94.2691 62.4819 92.6199 62.8166C90.1682 63.3142 87.6083 63.8719 85.1278 64.5807C79.2265 66.2687 73.3688 68.83 68.2694 72.2815C63.8619 75.263 60.8044 79.473 57.2534 83.3507C53.2035 87.772 49.3232 92.1221 43.3193 93.7406C40.5081 94.4986 37.2103 95.1865 35.217 92.6755C33.3626 90.3408 33.2593 87.5269 33.3202 84.6719C33.4541 78.3661 36.5006 71.5518 40.0442 66.3989C43.8907 60.8056 49.0424 57.6023 53.9101 53.0999C46.8745 53.603 40.0749 57.3118 33.6047 59.875C32.243 60.4149 30.8685 61.0212 29.4994 61.5206C28.0395 62.0531 27.0723 61.727 25.6738 61.9708C22.4817 62.5279 19.74 63.8731 16.6351 61.7282C10.7609 57.6711 16.6462 49.4176 20.6905 46.8851C26.3239 43.3581 32.055 40.3882 38.261 37.8723C34.9012 34.228 37.7707 29.0272 40.8676 26.4419C44.786 23.1704 49.7754 21.2958 54.4969 19.5446C58.231 18.1595 61.8981 16.8296 65.7772 15.9961C69.8547 15.1202 74.6229 13.7818 78.7607 13.9101C82.641 14.0305 86.082 13.3469 90.0121 13.2375C93.2823 13.1466 96.5598 13.2253 99.8293 13.1405C108.627 12.9132 117.456 13.5066 126.054 14.1393C119.242 -5.78058 164.112 0.371039 173.684 2.97296C182.384 5.33779 192.352 8.08099 199.659 13.6921C202.755 16.0686 205.695 18.7706 208.441 21.5433C212.494 25.6342 214.737 30.9916 216.88 36.2796C222.317 33.6162 227.515 30.7139 233.464 29.3933C239.124 28.1372 244.922 26.4345 250.616 25.4855C254.945 24.7638 261.228 24.2742 264.871 27.3307C268.827 30.6507 270.889 35.817 273.251 40.2414C284.594 29.4787 297.246 21.6268 313.418 22.149C329.242 22.66 339.649 36.3256 341.567 51.1344C343.68 67.4517 336.412 84.5024 326.559 97.1386C322.141 102.806 317.569 108.278 311.623 112.506C308.674 114.602 305.563 116.898 302.33 118.534C300.717 119.35 298.954 120.087 297.262 120.715C296.498 120.998 295.711 121.283 294.917 121.475C292.648 122.025 293.089 121.291 292.245 123.276C291.561 124.889 291.645 127.663 291.352 129.432C291.017 131.455 290.818 133.505 290.329 135.5C289.481 138.959 288.599 142.332 287.538 145.709C285.528 152.1 282.825 158.542 279.513 164.372C282.322 165.591 286.255 165.714 289.256 166.084C292.505 166.484 295.758 167.324 299.133 168.268C305.894 170.158 311.936 171.754 318.366 174.585C325.041 177.523 330.99 181.911 337.417 185.403C343.328 188.614 349.302 192.636 354.791 196.491C356.097 197.408 356.905 198.205 357.945 199.367C359.009 200.553 359.347 200.786 360.618 201.814C361.191 202.277 362.858 204.615 363.512 204.701C364.684 204.856 364.504 203.981 365.424 202.76C367.344 200.211 370.024 198.236 371.931 195.623C373.522 193.444 375.181 191.237 376.881 189.363C380.996 184.827 384.406 179.8 387.331 174.363C388.854 171.532 390.457 168.838 392.11 166.167C393.756 163.507 396.683 159.997 399.961 160.154C399.698 158.8 398.86 158.574 400.305 157.746C401.236 157.213 403.048 158.072 403.766 158.614C405.665 160.049 405.749 162.833 405.629 164.924C405.321 170.312 404.193 175.632 402.621 180.727C400.732 186.852 398.365 192.256 395.781 198.102C393.724 202.759 391.17 208.918 386.051 211.043C389.488 215.951 387.837 219.951 385.54 225.162C383.861 228.972 381.642 232.909 378.264 235.429C374.456 238.272 370.325 235.861 366.342 233.982C363.937 232.847 356.58 230.17 358.077 226.678C356.239 226.433 355.083 225.098 353.41 224.687C351.639 224.252 351.944 224.971 350.07 225.241C348.634 225.447 346.485 224.161 345.132 223.7C342.873 222.932 340.62 222.144 338.364 221.367C332.014 219.18 325.77 217.026 319.357 215.274C307.425 212.013 295.345 210.164 283.455 207.252C281.071 206.669 278.701 206.106 276.219 205.638C275.707 205.542 273.048 205.394 272.725 204.845C272.159 203.884 273.899 198.504 274.048 197.408C275.028 190.211 274.708 182.333 273.327 175.218C272.754 172.261 270.193 168.431 270.215 165.544C270.23 163.607 271.946 161.493 272.954 159.738C275.446 155.401 278.058 150.714 279.904 146.2C282.731 139.295 284.462 131.5 285.711 124.104C286.361 120.248 287.118 116.068 287.295 112.168C287.43 109.195 287.186 106.076 287.618 103.032C285.972 103.188 283.644 104.04 282.162 103.127C280.29 101.976 279.788 98.6877 280.027 96.724C273.618 97.8425 273.831 91.7652 274.228 87.0128C262.646 87.0128 277.478 69.8024 279.332 66.1065C280.183 64.4075 280.158 66.316 279.782 63.6882C279.617 62.5328 278.827 61.2528 278.38 60.1907C277.407 57.872 276.355 55.5889 275.231 53.3395C272.856 48.5883 270.166 43.9975 267.23 39.5713C264.587 41.4128 262.205 43.5927 259.998 45.9318C261.413 42.2291 265.739 37.642 263.889 33.4375C262.174 29.5401 256.447 29.8104 253.064 30.5229C243.873 32.4608 235.058 35.2833 226.302 38.551C229.014 40.1063 233.167 38.9048 235.862 37.7157C239.199 36.2427 242.787 34.6973 246.384 33.9172C249.52 33.2366 253.64 33.4688 252.733 37.6936C251.999 41.1167 248.65 44.4133 246.441 46.9729C241.574 52.6122 235.47 56.9777 229.475 61.3394C223.03 66.0285 216.821 71.123 210.295 75.6758C198.498 83.9066 185.813 91.06 173.625 98.743C167.291 102.735 160.114 105.947 153.246 108.906C145.69 112.161 138.445 115.646 130.606 118.216C126.252 119.644 121.938 120.819 117.66 122.444C114.978 123.462 110.309 125.502 108.537 122.479C104.939 116.34 117.96 108.266 121.528 104.512C123.99 106.903 111.851 115.811 112.801 119.292C113.548 122.027 116.435 118.495 117.829 117.749C120.083 116.544 122.751 115.939 125.015 114.564C129.66 111.744 135.167 108.492 136.228 102.663C135.49 101.884 135.499 101.166 136.255 100.506C136.592 100.106 136.859 99.6662 137.056 99.1864C137.386 98.2706 137.519 97.1232 137.696 96.1521C138.219 93.2811 136.907 90.5932 138.133 87.7837C130.975 93.2074 124.094 99.3339 117.3 105.205C111.205 110.472 104.845 117.368 102.605 125.227C102.319 126.233 101.842 127.376 101.894 128.438C101.996 130.524 102.204 130.075 103.885 130.746C105.566 131.416 108.013 131.359 109.821 131.43C110.852 131.47 115.453 130.379 114.538 132.64C114.011 133.943 110.821 133.894 109.679 134.015C106.812 134.317 105.257 134.007 106.615 137.114C107.224 138.506 108.458 139.45 109.425 140.528C112.118 143.527 113.58 148.126 115.698 151.649C118.112 155.663 120.765 159.48 123.583 163.218C124.746 164.76 126.301 167.659 127.913 168.76C129.419 169.787 127.647 169.703 130.148 169.285C131.238 169.104 132.226 168.394 133.269 168.141C139.503 166.622 145.911 164.91 152.359 163.035C160.606 160.637 169.26 158.592 177.128 155.139C184.177 152.044 191.173 148.361 198.295 145.227C200.375 144.312 202.453 143.706 204.069 142.022C206.021 139.991 207.636 137.331 209.436 135.148C212.497 131.433 215.318 127.655 218.613 124.135C221.065 121.516 225.411 116.647 228.871 115.601C235.445 113.616 231.926 123.629 231.076 126.16C232.622 126.51 233.434 124.528 235.248 125.098C237.419 125.781 237.644 128.669 237.916 130.479C237.988 130.961 237.335 131.862 237.534 132.292C237.601 132.439 239.018 133.277 239.292 133.665C240.284 135.076 240.089 136.792 239.712 138.313C237.767 146.194 230.852 151.949 225.766 157.762C228.041 157.331 229.728 156.034 231.876 155.392C233.892 154.789 235.918 154.82 237.95 154.647C240.077 154.466 242.121 153.67 244.298 153.63C246.582 153.587 248.768 154.238 251.033 154.496Z" fill="white"/>
<path fill-rule="evenodd" clip-rule="evenodd" d="M10.5006 83.6103C9.24651 84.4301 8.89298 85.2344 8.84968 87.1255C8.83236 87.9013 8.88585 90.7948 9.96985 90.6855C10.9871 90.583 10.5006 84.6053 10.5006 83.6103ZM4.02206 88.3232C4.60644 82.2619 6.82395 76.0992 12.0405 72.3226C13.3305 71.3885 14.7899 71.4217 16.2038 70.8324C17.0535 70.4785 18.3961 68.8329 19.3608 69.0277C22.9119 69.746 18.8092 74.4647 18.2084 75.7059C16.3466 79.5514 16.4723 82.9305 16.5279 87.0789C16.5702 90.2318 17.2254 95.5472 15.6359 98.4009C13.9415 101.44 10.2665 99.4664 8.2151 97.6678C5.62612 95.3972 3.67079 91.7816 4.02206 88.3232Z" fill="white"/>
<path fill-rule="evenodd" clip-rule="evenodd" d="M66.3617 106.235C66.3617 109.617 69.1069 107.327 69.0089 104.921C68.8653 101.379 66.2337 103.56 66.3617 106.235ZM80.9558 87.5369C77.9512 90.2391 75.6337 91.7551 75.0546 95.91C74.6163 99.0572 75.0521 102.174 75.0707 105.344C75.1021 110.658 70.811 116.245 66.1933 110.153C62.8251 105.71 64.0332 98.7242 66.7798 94.2591C68.2212 91.9164 70.2788 89.5989 72.6556 88.1389C74.4434 87.0401 79.4723 84.8784 80.9558 87.5369Z" fill="white"/>
<path fill-rule="evenodd" clip-rule="evenodd" d="M38.9967 169.433C38.6482 170.257 37.8306 173.622 39.4989 172.86C40.9718 172.188 40.0176 169.958 38.9967 169.433ZM30.181 159.044C29.9235 157.779 30.0284 149.847 32.2132 150.442C33.9293 150.908 34.2128 154.968 34.9119 156.382C37.5153 161.643 43.4906 164.921 45.5511 170.352C47.8511 176.417 40.8974 176.605 37.2077 174.149C32.8387 171.24 30.3107 164.12 30.181 159.044Z" fill="white"/>
<path fill-rule="evenodd" clip-rule="evenodd" d="M24.825 126.521C25.7732 125.241 25.8691 124.557 25.3286 123.425C24.6377 124.176 24.7604 125.25 24.825 126.521ZM25.5111 132.248C20.5682 132.802 20.3207 123.692 21.1673 120.565C21.8414 118.074 23.2907 115.397 24.7826 113.368C25.0839 112.958 27.9418 109.278 28.502 109.269C30.6518 109.235 30.061 111.664 29.8292 112.568C29.0988 115.417 28.8094 117.798 29.0059 120.957C29.2168 124.337 30.8171 132.36 25.5111 132.248Z" fill="white"/>
<path fill-rule="evenodd" clip-rule="evenodd" d="M249.946 53.3594C242.878 59.2868 236.168 65.704 228.483 70.8888C224.722 73.4261 220.791 75.6709 217.038 78.2496C215.127 79.563 213.177 80.7388 211.056 81.7043C209.183 82.5572 207.959 82.6681 209.513 80.6437C210.552 79.2913 212.88 78.3489 214.295 77.3876C216.473 75.9073 218.529 74.2649 220.82 72.9515C224.858 70.6348 228.872 68.7645 232.594 65.9233C235.898 63.4025 239.307 60.9407 242.46 58.2615C243.812 57.1126 248.296 51.8376 249.946 53.3594Z" fill="white"/>
<path fill-rule="evenodd" clip-rule="evenodd" d="M250.089 74.7627C253.268 77.4818 245.315 84.9305 243.501 86.6187C241.589 88.3991 239.482 89.9873 237.402 91.5646C236.67 92.1201 232.676 95.8376 231.662 95.5375C229.661 94.9452 232.288 92.5334 232.971 91.9044C235.18 89.868 237.436 87.8912 239.595 85.7999C241.543 83.9153 243.652 82.1698 245.536 80.2244C247.062 78.6482 248.344 75.9773 250.089 74.7627Z" fill="white"/>
<path fill-rule="evenodd" clip-rule="evenodd" d="M14.5984 184.366C13.7684 182.443 12.2821 184.578 13.0356 185.538C13.7483 186.447 14.4922 184.735 14.5984 184.366ZM9.73214 180.568C10.177 177.741 11.2053 176.169 13.858 178.583C15.6808 180.242 19.347 184.957 18.9991 187.529C18.5424 190.901 14.8281 189.944 12.9027 188.181C10.9291 186.373 10.0578 183.076 9.73214 180.568Z" fill="white"/>
<path fill-rule="evenodd" clip-rule="evenodd" d="M15.5453 236.221C12.2956 235.974 9.52324 233.479 8.14319 230.555C6.98207 228.096 5.88307 224.133 9.96234 225.426C12.621 226.268 22.8699 236.618 15.5453 236.221Z" fill="white"/>
<path fill-rule="evenodd" clip-rule="evenodd" d="M54.9279 220.192C52.4167 220.764 49.9325 219.11 48.3882 217.244C47.4274 216.083 45.191 212.011 46.3177 210.334C47.8883 207.997 50.2596 212.696 51.0775 213.626C52.3606 215.083 56.5558 217.869 54.9279 220.192Z" fill="white"/>
<path fill-rule="evenodd" clip-rule="evenodd" d="M57.1898 156.604C55.2213 155.69 53.3937 154.59 52.6021 152.408C52.0986 151.019 51.6758 146.852 53.9114 146.871C56.4974 146.894 62.4192 156.186 57.1898 156.604Z" fill="white"/>
<path fill-rule="evenodd" clip-rule="evenodd" d="M43.3885 113.251C46.0243 113.204 46.6483 114.657 47.0149 116.746C47.2637 118.163 48.4711 122.975 47.2171 123.961C45.4255 125.369 42.5755 122.142 41.9994 120.875C40.8119 118.267 42.4538 115.701 43.3885 113.251Z" fill="white"/>
<path fill-rule="evenodd" clip-rule="evenodd" d="M88.6792 257.528C89.9626 258.112 92.8823 259.407 91.7665 261.416C90.6001 263.517 87.2509 261.475 85.9998 260.557C85.476 260.172 82.1483 257.656 82.2874 256.812C82.5809 255.019 87.168 257.359 88.6792 257.528Z" fill="white"/>
<path fill-rule="evenodd" clip-rule="evenodd" d="M4.12585 126.304C5.00284 128.5 5.99001 136.044 1.37189 131.97C-0.0374455 130.727 -0.250127 129.174 0.235453 127.467C0.937556 124.993 1.95932 125.483 4.12585 126.304Z" fill="white"/>
<path fill-rule="evenodd" clip-rule="evenodd" d="M248.857 98.209C247.834 96.1197 250.359 94.7721 251.708 93.4256C252.589 92.546 256.293 87.7757 257.508 88.0452C260.005 88.5996 250.085 97.2772 248.857 98.209Z" fill="white"/>
<path fill-rule="evenodd" clip-rule="evenodd" d="M43.3553 249.542C45.7649 249.155 46.3271 251.832 47.8796 252.998C48.5453 253.499 50.8308 253.939 50.371 255.001C49.1632 257.791 43.2371 251.418 43.3553 249.542Z" fill="white"/>
<path fill-rule="evenodd" clip-rule="evenodd" d="M63.7031 186.328C65.3593 185.635 70.1398 189.359 68.7673 190.968C66.7154 193.375 63.82 187.645 63.7031 186.328Z" fill="white"/>
<path fill-rule="evenodd" clip-rule="evenodd" d="M98.6147 240.208C97.4074 240.327 92.3125 238.726 94.2001 236.582C95.5254 235.076 99.048 238.844 98.6147 240.208Z" fill="white"/>
<path fill-rule="evenodd" clip-rule="evenodd" d="M37.6025 229.919C36.4039 230.398 32.081 229.412 33.4402 227.535C34.7349 225.748 37.6043 228.435 37.6025 229.919Z" fill="white"/>
<path fill-rule="evenodd" clip-rule="evenodd" d="M72.9932 238.018C74.3945 237.873 75.4068 238.718 75.6475 240.149C73.8948 240.398 73.3542 239.982 72.9932 238.018Z" fill="white"/>
<path fill-rule="evenodd" clip-rule="evenodd" d="M255.255 30.299C255.847 30.3017 256.438 30.3048 257.024 30.3074C256.432 30.3043 255.844 30.3017 255.255 30.299Z" fill="white"/>
<path fill-rule="evenodd" clip-rule="evenodd" d="M245.965 153.505C245.08 153.506 244.195 153.508 243.311 153.509C244.196 153.507 245.081 153.506 245.965 153.505Z" fill="white"/>
<path fill-rule="evenodd" clip-rule="evenodd" d="M125.256 9.29006C125.215 10.1758 125.174 11.0616 125.133 11.9444C125.173 11.0578 125.214 10.1735 125.256 9.29006Z" fill="white"/>
<path fill-rule="evenodd" clip-rule="evenodd" d="M399.386 159.7C399.668 160.685 399.255 160.848 398.145 160.189C398.558 160.026 398.972 159.863 399.386 159.7Z" fill="white"/>
<path fill-rule="evenodd" clip-rule="evenodd" d="M374.256 236.892C374.7 236.894 375.144 236.898 375.583 236.9C375.138 236.898 374.697 236.894 374.256 236.892Z" fill="white"/>
<path fill-rule="evenodd" clip-rule="evenodd" d="M290.203 165.683C289.461 166.249 288.723 166.328 287.991 165.653C288.729 165.664 289.466 165.674 290.203 165.683Z" fill="white"/>
<path fill-rule="evenodd" clip-rule="evenodd" d="M273.642 90.2461C273.624 90.9846 273.605 91.7224 273.585 92.458C273.604 91.7187 273.623 90.9824 273.642 90.2461Z" fill="white"/>
<path fill-rule="evenodd" clip-rule="evenodd" d="M311.88 21.9863C311.143 21.9859 310.405 21.985 309.668 21.9841C310.406 21.708 311.143 21.7987 311.88 21.9863Z" fill="white"/>
<path fill-rule="evenodd" clip-rule="evenodd" d="M123.425 13.8266C122.835 14.0465 122.246 14.1765 121.655 13.8297C122.246 13.8288 122.835 13.8275 123.425 13.8266Z" fill="white"/>
<path fill-rule="evenodd" clip-rule="evenodd" d="M274.086 195.091C274.066 195.534 274.046 195.977 274.026 196.418C274.047 195.974 274.066 195.533 274.086 195.091Z" fill="white"/>
<path fill-rule="evenodd" clip-rule="evenodd" d="M30.2906 159.258C30.2995 159.553 30.3079 159.849 30.3158 160.143C30.3065 159.846 30.299 159.552 30.2906 159.258Z" fill="white"/>
<path fill-rule="evenodd" clip-rule="evenodd" d="M402.126 157.671L399.914 157.682C400.65 157.133 401.387 157.203 402.126 157.671Z" fill="white"/>
<path fill-rule="evenodd" clip-rule="evenodd" d="M88.9189 257.461C88.1814 257.318 87.4446 257.173 86.707 257.03L88.9189 257.461Z" fill="white"/>
<path fill-rule="evenodd" clip-rule="evenodd" d="M237.801 130.503C237.787 130.06 237.774 129.617 237.76 129.176C237.774 129.619 237.787 130.061 237.801 130.503Z" fill="white"/>
<path fill-rule="evenodd" clip-rule="evenodd" d="M222.961 300.572C223.257 300.59 223.553 300.608 223.846 300.626C223.548 300.608 223.254 300.59 222.961 300.572Z" fill="white"/>
<path fill-rule="evenodd" clip-rule="evenodd" d="M19.9072 63.0219C20.3513 63.0334 20.7955 63.0453 21.2344 63.0573C20.788 63.0453 20.3476 63.0334 19.9072 63.0219Z" fill="white"/>
<path fill-rule="evenodd" clip-rule="evenodd" d="M83.6104 20.347C82.5756 20.3487 81.5423 20.3505 80.5137 20.3523C81.5504 20.3505 82.5804 20.3487 83.6104 20.347Z" fill="white"/>
<path fill-rule="evenodd" clip-rule="evenodd" d="M292.615 111.48C292.628 112.219 292.643 112.957 292.657 113.692C292.644 112.954 292.631 112.217 292.615 111.48Z" fill="white"/>
<path fill-rule="evenodd" clip-rule="evenodd" d="M238.444 269.868C237.852 269.859 237.262 269.849 236.675 269.839C237.268 269.847 237.856 269.858 238.444 269.868Z" fill="white"/>
<path fill-rule="evenodd" clip-rule="evenodd" d="M301.263 35.4764C302.147 35.3782 303.032 35.28 303.917 35.1818C303.068 35.9329 302.15 35.433 301.263 35.4764Z" fill="white"/>
<path fill-rule="evenodd" clip-rule="evenodd" d="M233.578 270.099C233.134 270.082 232.691 270.066 232.251 270.05C232.696 270.067 233.137 270.083 233.578 270.099Z" fill="white"/>
<path fill-rule="evenodd" clip-rule="evenodd" d="M218.282 277.816C218.304 278.555 218.327 279.293 218.35 280.028C218.328 279.288 218.305 278.552 218.282 277.816Z" fill="white"/>
<path fill-rule="evenodd" clip-rule="evenodd" d="M285.779 62.6403C286.369 62.5855 286.959 62.5306 287.549 62.4762C287.01 62.8912 286.378 62.6483 285.779 62.6403Z" fill="white"/>
<path fill-rule="evenodd" clip-rule="evenodd" d="M184.474 63.9262C185.21 63.2989 185.947 63.367 186.686 63.9191C185.948 63.9209 185.211 63.9235 184.474 63.9262Z" fill="white"/>
<path fill-rule="evenodd" clip-rule="evenodd" d="M156.792 86.2647C156.814 85.9696 156.834 85.6746 156.857 85.3799C156.837 85.6753 156.815 85.97 156.792 86.2647Z" fill="white"/>
<path fill-rule="evenodd" clip-rule="evenodd" d="M285.549 77.8594C285.555 78.4502 285.561 79.041 285.567 79.6289C285.562 79.0367 285.555 78.448 285.549 77.8594Z" fill="white"/>
<path fill-rule="evenodd" clip-rule="evenodd" d="M90.3718 170.331C91.3425 170.66 93.2947 171.654 94.4257 171.523C95.3312 171.417 96.0776 170.316 96.9507 170.317C99.3021 170.32 98.8661 173.039 97.73 174.498C94.6576 178.444 87.7924 174.165 90.3718 170.331Z" fill="white"/>
<path fill-rule="evenodd" clip-rule="evenodd" d="M99.9684 156.161C103.175 156.989 101.578 164.042 98.8824 164.527C95.7085 165.098 95.1555 159.363 95.7826 157.29C97.416 158.261 96.4047 161.723 98.4631 160.766C99.7719 160.157 99.5729 157.341 99.9684 156.161Z" fill="white"/>
</svg>
