<svg width="406" height="314" viewBox="0 0 406 314" fill="none" xmlns="http://www.w3.org/2000/svg">
<path fill-rule="evenodd" clip-rule="evenodd" d="M102.281 188.198C104.346 186.789 108.57 181.747 110.783 180.582C115.703 177.99 137.624 172.896 138.337 172.595C139.422 172.137 146.474 170.536 150.583 169.524C160.231 167.148 194.806 151.8 203.919 147.865C205.083 150.928 214.687 164.452 213.039 165.838C207.614 170.401 197.892 176.083 191.608 179.353C186.526 181.997 181.143 184.186 175.709 185.973C169.539 188.002 165.304 190.178 159.155 192.253C153.106 194.295 160.335 200.682 163.442 202.002C166.927 203.482 172.324 204.234 175.885 205.517C169.616 215.267 164.351 227.101 163.298 238.781C163.045 241.592 160.904 244.169 157.421 243.328C155.624 242.893 139.041 240.683 136.337 240.066C118.287 235.947 85.8829 214.374 94.2275 192.253C96.1392 193.137 100.504 189.41 102.281 188.198Z" fill="white"/>
<path fill-rule="evenodd" clip-rule="evenodd" d="M112.379 70.8333C113.727 70.7195 117.214 68.0238 115.385 66.6606C113.539 65.2849 112.212 69.8947 112.379 70.8333ZM42.1349 81.1718C42.4873 81.1097 42.3335 79.1792 41.7785 78.9325C40.0269 78.1544 39.879 81.0792 39.8362 81.8619C39.783 82.8497 39.6594 85.6321 41.7891 84.8693C42.9982 84.4363 42.248 81.9123 42.1349 81.1718ZM145.544 90.1898C145.497 91.9129 148.975 95.2263 150.272 93.2386C151.363 91.5689 145.633 86.76 145.544 90.1898ZM22.5616 51.3296C23.5694 53.9022 28.5536 50.3959 28.7388 48.5088C29.1191 44.644 22.5095 48.7581 22.5616 51.3296ZM64.1452 62.4219C66.4664 62.231 69.5207 59.2778 71.7589 58.1745C73.2737 57.428 77.3951 56.5381 77.8434 54.8432C78.2335 53.3703 71.2405 56.5229 70.6434 56.8028C67.9001 58.0891 65.4265 59.5553 64.1452 62.4219ZM238.399 42.0573C240.249 40.6257 242.498 39.7022 244.87 39.7627C246.054 39.7929 248.525 40.5344 248.617 38.4848C248.769 35.1518 238.309 39.2166 236.675 39.8704C237.249 40.5997 237.824 41.3285 238.399 42.0573ZM122.982 171.942C121.625 169.687 119.184 168.383 117.348 166.458C118.021 169.618 116.504 172.428 115.462 175.312C117.969 174.189 120.475 173.066 122.982 171.942ZM358.686 220.026C359.434 217.521 360.183 215.03 361.058 212.563C362.036 209.801 362.523 209.562 360.181 207.63C358.237 211.307 356.293 214.984 354.348 218.662C355.732 219.25 357.177 219.823 358.686 220.026ZM157.488 38.6771C154.914 35.7737 142.851 35.5914 144.344 41.9994C144.865 44.237 147.83 41.86 149.688 41.3384C151.532 40.8205 156.753 40.7517 157.488 38.6771ZM157.046 79.7826C156.734 79.0417 156.111 76.3673 155.186 76.1566C154.285 75.9512 150.732 78.7563 150.063 79.1844C146.731 81.3213 143.482 83.6201 140.235 85.8854C141.478 85.8854 142.607 85.4424 143.843 85.4328C145.312 85.4203 146.366 86.0239 147.797 85.6794C150.874 84.9402 154.445 81.5285 157.046 79.7826ZM160.38 13.5337C160.669 12.2057 175.75 16.1922 177.563 16.9222C178.55 17.3192 183.646 19.9697 182.551 15.975C181.927 13.6999 176.039 11.9655 174.153 11.3419C169.356 9.75752 164.299 8.63052 159.191 8.89189C158.199 8.94229 150.689 9.37604 153.825 12.3974C154.906 13.4379 158.78 13.1099 160.38 13.5337ZM163.681 195.993C166.491 197.376 169.36 198.434 172.297 199.516C173.602 199.997 175.634 201.255 177.074 200.939C178.252 200.68 178.63 198.883 179.249 197.681C181.514 193.281 184.218 189.732 187.57 186.104C186.013 184.968 178.111 189.98 176.156 190.72C174.199 191.46 172.352 192.206 170.436 193.091C168.632 193.925 165.073 194.669 163.681 195.993ZM213.433 158.49C217.528 156.635 221.41 153.347 224.769 150.402C228.625 147.021 232.082 143.478 234.905 139.104C233.206 139.191 229.455 144.659 229.414 138.706C229.392 135.668 233.551 132.677 234.842 129.86C231.631 128.046 228.688 138.886 225.003 136.259C221.454 133.727 227.054 125.022 228.133 122.275C226.051 120.889 214.19 136.404 212.473 138.389C211.4 139.632 208.86 141.287 208.254 142.736C207.893 143.599 207.842 146.337 208.016 147.131C208.38 148.791 210.219 150.779 211.039 152.324C212.076 154.281 212.979 156.314 213.433 158.49ZM382.73 214.427C379.188 209.424 382.846 207.243 385.726 203.091C388.029 199.77 390.148 196.109 391.607 192.4C395.258 183.124 398.553 174.5 400.356 164.688C397.875 165.821 396.323 170.136 395.082 172.409C393.412 175.465 391.944 178.673 390.089 181.634C386.617 187.175 383.208 193.086 378.792 197.889C376.791 200.066 375.097 202.515 372.789 204.476C371.734 205.372 369.716 206.107 368.939 207.228C368.206 208.285 369.026 208.961 368.747 210.225C368.462 211.521 367.151 212.903 366.589 214.151C365.85 215.791 365.163 217.434 364.339 219.037C363.44 220.785 363.194 221.699 362.952 223.408C362.687 225.276 363.499 225.47 361.869 227.191C364.823 228.495 367.777 229.798 370.731 231.102C371.728 231.542 372.725 231.982 373.722 232.422C373.932 232.028 374.142 231.633 374.352 231.239C375.164 230.45 375.911 228.504 376.375 227.462C378.316 223.113 380.508 218.746 382.73 214.427ZM97.4657 193.428C89.0779 215.527 118.553 234.135 136.697 238.251C139.211 238.82 141.663 239.567 144.165 240.179C146.893 240.846 149.315 240.713 152.038 240.992C154.204 241.214 155.236 242.889 157.277 243.351C160.688 244.122 160.48 241.557 160.724 238.808C161.759 227.154 167.703 215.909 173.993 206.185C171.12 205.156 168.273 204.033 165.436 202.907C163.009 201.943 159.292 199.233 156.683 199.089C154.753 198.983 151.812 200.633 149.938 201.356C146.816 202.562 143.685 203.589 140.432 204.411C134.743 205.848 128.412 207.808 122.526 207.956C120.829 207.999 116.173 208.79 114.952 207.741C112.623 205.739 115.855 204.071 117.805 203.356C129.424 199.098 141.761 197.288 153.413 192.923C159.408 190.676 165.343 188.167 171.376 185.954C176.577 184.046 182.025 182.357 187.051 180.01C193.689 176.912 200.356 173.053 206.103 168.506C207.254 167.596 209.665 166.244 210.453 164.926C211.147 163.765 211.061 164.923 210.917 163.515C210.813 162.504 209.577 161.134 209.069 160.179C207.175 156.619 205.463 152.961 204.023 149.193C194.854 153.128 186.132 158.485 177.098 162.691C168.005 166.924 157.748 169.911 148.021 172.293C143.881 173.307 139.121 173.627 135.324 175.631C133.711 176.481 132.116 177.466 130.388 177.958C129.878 178.938 129.375 179.13 128.88 178.534C128.57 178.186 128.169 178.039 127.677 178.093C126.621 178.272 125.543 178.771 124.554 179.155C119.551 181.096 114.761 183.527 110.011 186.006C107.76 187.181 105.451 188.338 103.296 189.68C102.142 190.399 101.107 191.125 100.162 192.113C99.0293 193.297 99.2989 194.27 97.4657 193.428ZM286.213 62.2138C288.332 62.2482 290.264 61.0993 292.475 61.1631C295.951 61.2637 298.702 63.9608 300.72 66.5615C304.712 71.7079 303.694 77.916 301.688 83.6751C300.729 86.4274 299.412 89.0693 297.765 91.4787C296.308 93.6114 293.703 95.6289 292.686 98.0039C291.009 101.92 294.393 100.255 296.465 99.4184C299.07 98.3658 301.512 97.0574 303.723 95.2952C313.578 87.4407 321.075 76.523 323.586 63.9847C324.811 57.8674 324.717 50.7158 320.458 45.7228C316.566 41.1574 309.845 39.6656 304.101 40.5121C297.891 41.4279 292.263 44.0599 287.206 47.4483C285.738 48.4328 284.393 49.5075 283.014 50.6085C281.205 52.053 280.12 52.0911 280.573 54.3551C280.909 56.0382 281.825 57.7821 282.416 59.3972C283.521 62.4224 283.117 63.2051 286.213 62.2138ZM292.971 114.365L292.542 115.099C295.498 115.24 298.252 112.63 300.772 111.355C304.044 109.699 306.95 107.44 309.818 105.159C314.876 101.135 319.999 96.6004 323.764 91.3181C332.203 79.4766 339.869 64.4642 337.566 49.4511C335.084 33.2703 320.942 27.0419 305.873 29.1839C299.082 30.1491 293.019 33.1832 286.941 36.2634C283.878 37.8164 281.293 39.8307 278.486 41.7807C277.03 42.7931 275.701 42.9244 275.606 44.6946C275.534 46.0285 277.838 49.0449 278.461 50.2536C286.092 42.4636 294.315 36.0192 305.839 35.621C319.548 35.1473 327.655 48.1558 327.595 60.6127C327.536 72.8291 322.271 84.5804 313.878 93.3601C310.063 97.3502 306.426 100.552 301.743 103.464C299.408 104.916 297.686 106.219 295.075 107.183C293.228 107.865 293.421 107.506 292.95 109.216C292.55 110.668 292.958 112.858 292.971 114.365ZM218.477 280.341C218.299 282.543 217.852 284.71 217.354 286.857C217.175 287.629 216.169 290.063 216.346 290.93C216.637 292.363 216.249 291.442 217.504 292.189C218.812 292.97 220.336 292.922 221.769 293.159C222.653 293.306 225.894 294.832 226.439 294.591C227.391 294.17 227.361 292.684 228.407 292.095C229.831 291.292 231.93 291.98 233.274 292.608C236.866 294.285 239.334 297.756 242.81 299.656C248.983 303.03 256.308 304.898 263.195 305.668C266.926 306.086 270.744 306.818 274.428 305.944C277.331 305.254 281.104 305.318 282.682 302.201C268.658 298.341 247.253 293.618 241.708 277.512C238.694 280.247 233.656 278.775 230.014 278.397C226.006 277.982 222.425 278.078 218.76 276.25C218.492 277.687 218.41 278.88 218.477 280.341ZM94.3091 180.591C100.911 180.99 107.169 177.864 111.232 172.589C112.232 171.289 113.257 169.963 113.858 168.424C113.988 168.034 114.118 167.644 114.248 167.254C114.878 166.176 114.602 165.668 113.421 165.729C112.755 164.815 111.067 164.508 111.547 162.852C111.909 161.602 113.243 161.582 114.403 161.189C113.826 160.218 113.48 159.73 112.653 158.866C110.504 160.801 106.605 164.597 105.095 160.153C104.37 158.02 105.646 155.981 105.33 153.923C105.2 153.072 104.122 150.898 103.497 150.389C100.169 147.677 95.3755 148.799 91.8445 150.396C89.4109 151.495 88.8873 152.012 88.4903 154.534C88.0871 157.098 87.713 159.661 87.2657 162.218C88.726 161.456 88.9921 159.811 89.9444 158.626C90.3011 159.276 90.6578 159.927 91.0157 160.577C91.5182 160.295 91.9878 160.31 92.4233 160.622C93.128 161.706 92.6844 163.314 92.4679 164.451C94.8178 164.231 95.8109 166.855 93.4419 167.918C90.9878 169.018 89.8811 166.017 89.798 164.074C88.8823 165.168 87.9419 164.583 87.3036 165.145C86.6659 165.707 86.4146 166.879 86.1876 168.162C85.8148 170.271 84.8607 173.313 85.7434 175.429C87.0542 178.571 91.2334 180.205 94.3091 180.591ZM285.607 79.6765C283.423 82.7165 279.698 86.6961 278.919 90.3689C281.325 88.956 286.412 82.1572 287.723 87.573C288.475 90.6817 284.617 94.3859 283.669 97.3958C287.463 96.1466 290.166 92.2339 292.533 89.2142C295.552 85.364 298.634 80.2886 299.405 75.3928C300.028 71.4311 297.281 67.7385 293.201 67.3503C291.117 67.1516 288.94 67.4828 286.926 67.9667C286.008 68.1868 284.638 68.4604 283.819 68.9528C282.79 69.571 282.649 71.0189 281.679 69.8145C280.392 72.2436 279.104 74.6728 277.816 77.1014C279.098 76.6359 281.713 74.6606 283.113 74.8648C285.159 75.1634 285.579 78.1366 285.607 79.6765ZM81.0801 20.2072C75.3533 20.3761 69.3675 21.5965 63.9461 23.4106C62.5998 23.8615 56.9202 25.4651 58.1162 27.7897C58.9067 29.3262 63.1693 27.155 64.4578 26.7929C69.9804 25.2409 75.6669 24.2174 81.3236 23.2833C82.6935 23.0572 87.3398 23.0796 87.5795 21.2828C87.8732 19.0905 82.6972 20.2047 81.0801 20.2072ZM236.937 270.259C233.833 270.638 230.853 270.496 227.746 270.115C225.131 269.795 222.468 268.724 219.866 268.724C219.866 271.511 219.678 271.529 222.616 272.125C224.667 272.541 226.747 272.775 228.819 273.066C232.468 273.576 236.52 275.009 240.214 274.273C240.124 273.789 239.841 270.523 239.458 270.2C239.243 270.019 237.251 270.261 236.937 270.259ZM186.77 64.0499C187.638 64.6033 189.633 66.81 190.667 66.849C190.297 64.294 187.449 59.8457 184.178 61.4246C183.377 61.8117 181.693 63.7394 182.454 64.5899C182.861 65.0445 185.706 64.0528 186.77 64.0499ZM156.507 86.7782C156.538 86.333 156.57 85.8879 156.603 85.4427C155.403 86.149 153.917 86.4832 153.064 87.621C154.088 88.0751 155.111 88.5297 156.136 88.9844C156.259 88.249 156.383 87.5136 156.507 86.7782ZM251.033 154.609C256.704 156.597 261.903 159.251 266.077 163.757C269.685 167.653 271.381 174.518 272.262 179.624C274.441 192.262 270.236 203.975 267.463 216.065C266.056 222.198 263.956 228.1 261.99 234.074C260.273 239.291 258.801 244.754 256.431 249.715C254.421 253.921 251.854 258.068 250.086 262.432C249.135 264.78 247.594 272.838 243.983 270.307C242.998 272.885 242.758 272.666 243.812 274.456C244.574 275.753 247.16 277.552 248.38 278.608C251.632 281.422 255.75 283.741 259.565 285.711C266.552 289.319 274.042 292.019 281.237 295.309C284.418 296.765 287.868 298.484 287.154 302.648C286.556 306.139 284.537 308.787 281.389 310.34C278.433 311.799 274.205 312.925 270.953 313.382C269.024 313.654 268.582 312.851 267.009 312.573C265.258 312.264 263.215 312.861 261.409 312.846C253.302 312.775 246.204 310.734 239.652 306.029C237.311 304.347 233.865 299.786 230.801 299.787C229.235 299.787 229.565 300.739 228.188 301.298C226.487 301.987 223.558 300.686 221.887 300.381C218.326 299.73 214.705 299.07 212.334 296.001C209.77 292.684 210.682 288.575 211.783 284.892C213.025 280.74 215.114 276.527 216.002 272.312C216.219 271.287 216.418 269.376 216.198 268.333C215.857 266.714 214.224 265.748 214.175 263.996C214.16 263.463 214.922 262.76 215.055 262.21C215.35 261.001 215.304 259.747 215.425 258.517C215.642 256.323 216.142 254.221 216.486 252.053C217.271 247.119 218.817 242.718 220.313 237.964C221.765 233.35 223.147 229.916 225.955 225.921C227.408 223.852 232.27 216.481 229.895 214.359C226.646 220.747 222.846 225.728 217.873 230.813C214.07 234.703 210.351 239.931 205.591 242.701C200.357 245.747 193.961 247.539 188.181 249.149C185.432 249.915 183.151 251.613 180.188 251.927C176.976 252.267 173.707 251.866 170.562 251.149C169.676 250.948 167.123 249.586 166.321 249.673C165.141 249.801 163.443 251.907 162.148 252.293C158.995 253.235 156.842 251.437 154.451 249.775C151.855 247.972 151.07 247.523 148.075 247.306C144.407 247.041 140.839 245.747 137.231 244.955C130.887 243.562 125.495 240.739 119.729 237.784C113.12 234.398 107.466 229.727 102.484 224.211C95.1601 216.1 84.9606 193.625 96.9242 185.755C89.8812 184.798 83.4306 181.721 82.5722 173.743C82.1237 169.569 82.9679 164.945 84.0168 160.921C84.4955 159.084 85.0663 157.258 85.6132 155.44C86.0249 154.826 86.243 154.154 86.2657 153.424C86.5183 152.478 86.1539 152.006 85.1726 152.011C83.3176 149.84 81.9227 147.924 81.5479 144.842C81.4299 143.865 81.3242 142.368 82.0186 141.537C82.34 141.204 82.7277 140.98 83.1805 140.869C84.2675 140.931 84.5747 140.395 84.1022 139.261C84.6301 137.655 83.8472 136.403 85.8362 135.733C86.474 135.869 87.1088 136.017 87.7411 136.178C88.5478 136.546 89.0726 136.279 89.3165 135.38C91.1906 134.646 90.3261 133.561 92.8724 134.505C94.4135 135.077 95.8796 136.061 97.0016 137.26C98.4093 136.356 95.208 130.766 95.1011 128.983C94.8479 124.78 96.5844 121.304 98.8437 117.851C103.235 111.142 109.365 105.373 115.41 100.181C126.988 90.2401 139.151 80.7756 152.224 72.8553C146.831 69.1069 140.531 68.0908 134.113 69.8329C128.197 71.439 123.402 74.3558 117.956 76.9074C112.911 79.2702 107.556 80.2408 105.948 73.7927C104.145 66.5701 109.895 63.8888 115.053 60.65C113.765 59.6886 109.526 60.3758 107.922 60.4895C104.35 60.7422 100.934 61.5493 97.4631 62.2629C95.7985 62.6047 94.2691 62.5278 92.6199 62.8629C90.1682 63.3607 87.6083 63.9189 85.1278 64.6283C79.2265 66.3174 73.3688 68.8807 68.2694 72.3347C63.8619 75.3184 60.8044 79.5315 57.2534 83.412C53.2035 87.8366 49.3232 92.1899 43.3193 93.8096C40.5081 94.5681 37.2103 95.2566 35.217 92.7437C33.3626 90.4072 33.2593 87.5913 33.3202 84.7342C33.4541 78.4238 36.5006 71.6044 40.0442 66.4477C43.8907 60.8503 49.0424 57.6447 53.9101 53.139C46.8745 53.6425 40.0749 57.354 33.6047 59.9191C32.243 60.4594 30.8685 61.0661 29.4994 61.5659C28.0395 62.0988 27.0723 61.7724 25.6738 62.0164C22.4817 62.5739 19.74 63.9201 16.6351 61.7736C10.7609 57.7136 16.6462 49.4539 20.6905 46.9196C26.3239 43.39 32.055 40.4179 38.261 37.9002C34.9012 34.2532 37.7707 29.0486 40.8676 26.4613C44.786 23.1875 49.7754 21.3114 54.4969 19.559C58.231 18.1728 61.8981 16.842 65.7772 16.0079C69.8547 15.1313 74.6229 13.7919 78.7607 13.9204C82.641 14.0409 86.082 13.3567 90.0121 13.2473C93.2823 13.1563 96.5598 13.235 99.8293 13.1502C108.627 12.9227 117.456 13.5165 126.054 14.1497C119.242 -5.78484 164.112 0.371311 173.684 2.97515C182.384 5.34172 192.352 8.08694 199.659 13.7022C202.755 16.0804 205.695 18.7844 208.441 21.5592C212.494 25.653 214.737 31.0144 216.88 36.3063C222.317 33.641 227.515 30.7365 233.464 29.4149C239.124 28.1579 244.922 26.454 250.616 25.5043C254.945 24.782 261.228 24.2921 264.871 27.3508C268.827 30.6732 270.889 35.8434 273.251 40.271C284.594 29.5004 297.246 21.6428 313.418 22.1653C329.242 22.6767 339.649 36.3524 341.567 51.172C343.68 67.5013 336.412 84.5646 326.559 97.2101C322.141 102.881 317.569 108.358 311.623 112.589C308.674 114.686 305.563 116.984 302.33 118.622C300.717 119.438 298.954 120.176 297.262 120.804C296.498 121.087 295.711 121.372 294.917 121.564C292.648 122.115 293.089 121.38 292.245 123.367C291.561 124.981 291.645 127.757 291.352 129.528C291.017 131.552 290.818 133.604 290.329 135.6C289.481 139.061 288.599 142.437 287.538 145.816C285.528 152.212 282.825 158.658 279.513 164.492C282.322 165.713 286.255 165.836 289.256 166.206C292.505 166.606 295.758 167.447 299.133 168.391C305.894 170.284 311.936 171.88 318.366 174.713C325.041 177.654 330.99 182.044 337.417 185.539C343.328 188.753 349.302 192.778 354.791 196.635C356.097 197.553 356.905 198.351 357.945 199.513C359.009 200.701 359.347 200.933 360.618 201.962C361.191 202.426 362.858 204.765 363.512 204.851C364.684 205.007 364.504 204.132 365.424 202.91C367.344 200.359 370.024 198.382 371.931 195.767C373.522 193.586 375.181 191.377 376.881 189.502C380.996 184.963 384.406 179.932 387.331 174.491C388.854 171.659 390.457 168.963 392.11 166.289C393.756 163.628 396.683 160.115 399.961 160.272C399.698 158.917 398.86 158.691 400.305 157.862C401.236 157.328 403.048 158.189 403.766 158.731C405.665 160.167 405.749 162.953 405.629 165.045C405.321 170.438 404.193 175.761 402.621 180.86C400.732 186.99 398.365 192.398 395.781 198.248C393.724 202.908 391.17 209.071 386.051 211.198C389.488 216.11 387.837 220.113 385.54 225.328C383.861 229.14 381.642 233.08 378.264 235.603C374.456 238.447 370.325 236.034 366.342 234.154C363.937 233.018 356.58 230.339 358.077 226.845C356.239 226.599 355.083 225.264 353.41 224.852C351.639 224.417 351.944 225.137 350.07 225.407C348.634 225.613 346.485 224.326 345.132 223.865C342.873 223.096 340.62 222.307 338.364 221.53C332.014 219.341 325.77 217.186 319.357 215.432C307.425 212.169 295.345 210.318 283.455 207.405C281.071 206.821 278.701 206.257 276.219 205.789C275.707 205.693 273.048 205.545 272.725 204.996C272.159 204.034 273.899 198.65 274.048 197.553C275.028 190.351 274.708 182.467 273.327 175.347C272.754 172.388 270.193 168.555 270.215 165.666C270.23 163.728 271.946 161.611 272.954 159.856C275.446 155.515 278.058 150.825 279.904 146.307C282.731 139.397 284.462 131.597 285.711 124.195C286.361 120.337 287.118 116.154 287.295 112.25C287.43 109.275 287.186 106.154 287.618 103.107C285.972 103.264 283.644 104.117 282.162 103.203C280.29 102.051 279.788 98.7603 280.027 96.7951C273.618 97.9145 273.831 91.8327 274.228 87.0768C262.646 87.0768 277.478 69.8538 279.332 66.1551C280.183 64.4549 280.158 66.3648 279.782 63.7351C279.617 62.5789 278.827 61.2978 278.38 60.235C277.407 57.9146 276.355 55.6298 275.231 53.3787C272.856 48.6241 270.166 44.0299 267.23 39.6004C264.587 41.4433 262.205 43.6248 259.998 45.9655C261.413 42.2602 265.739 37.6697 263.889 33.4621C262.174 29.5619 256.447 29.8323 253.064 30.5454C243.873 32.4847 235.058 35.3092 226.302 38.5794C229.014 40.1358 233.167 38.9335 235.862 37.7434C239.199 36.2694 242.787 34.7228 246.384 33.9422C249.52 33.2611 253.64 33.4934 252.733 37.7213C251.999 41.147 248.65 44.446 246.441 47.0075C241.574 52.651 235.47 57.0196 229.475 61.3845C223.03 66.0771 216.821 71.1753 210.295 75.7315C198.498 83.9683 185.813 91.127 173.625 98.8156C167.291 102.811 160.114 106.025 153.246 108.986C145.69 112.244 138.445 115.731 130.606 118.303C126.252 119.732 121.938 120.908 117.66 122.534C114.978 123.553 110.309 125.594 108.537 122.569C104.939 116.425 117.96 108.345 121.528 104.589C123.99 106.981 111.851 115.896 112.801 119.38C113.548 122.117 116.435 118.582 117.829 117.836C120.083 116.63 122.751 116.024 125.015 114.648C129.66 111.826 135.167 108.572 136.228 102.739C135.49 101.959 135.499 101.24 136.255 100.58C136.592 100.18 136.859 99.7395 137.056 99.2594C137.386 98.3429 137.519 97.1947 137.696 96.2229C138.219 93.3498 136.907 90.6599 138.133 87.8483C130.975 93.276 124.094 99.407 117.3 105.283C111.205 110.553 104.845 117.454 102.605 125.319C102.319 126.326 101.842 127.47 101.894 128.533C101.996 130.62 102.204 130.171 103.885 130.842C105.566 131.513 108.013 131.455 109.821 131.527C110.852 131.566 115.453 130.475 114.538 132.737C114.011 134.042 110.821 133.993 109.679 134.113C106.812 134.416 105.257 134.105 106.615 137.215C107.224 138.608 108.458 139.553 109.425 140.631C112.118 143.632 113.58 148.235 115.698 151.761C118.112 155.777 120.765 159.597 123.583 163.338C124.746 164.882 126.301 167.782 127.913 168.884C129.419 169.912 127.647 169.827 130.148 169.409C131.238 169.228 132.226 168.518 133.269 168.264C139.503 166.744 145.911 165.031 152.359 163.155C160.606 160.755 169.26 158.709 177.128 155.253C184.177 152.156 191.173 148.47 198.295 145.334C200.375 144.418 202.453 143.812 204.069 142.127C206.021 140.094 207.636 137.432 209.436 135.247C212.497 131.53 215.318 127.749 218.613 124.226C221.065 121.605 225.411 116.733 228.871 115.686C235.445 113.699 231.926 123.72 231.076 126.252C232.622 126.603 233.434 124.62 235.248 125.19C237.419 125.874 237.644 128.764 237.916 130.575C237.988 131.057 237.335 131.959 237.534 132.39C237.601 132.536 239.018 133.375 239.292 133.763C240.284 135.175 240.089 136.892 239.712 138.415C237.767 146.301 230.852 152.06 225.766 157.878C228.041 157.447 229.728 156.149 231.876 155.506C233.892 154.903 235.918 154.934 237.95 154.761C240.077 154.58 242.121 153.783 244.298 153.743C246.582 153.7 248.768 154.351 251.033 154.609Z" fill="black"/>
<path fill-rule="evenodd" clip-rule="evenodd" d="M10.5006 83.6719C9.24651 84.4923 8.89298 85.2971 8.84968 87.1897C8.83236 87.9659 8.88585 90.8616 9.96985 90.7522C10.9871 90.6496 10.5006 84.6675 10.5006 83.6719ZM4.02206 88.3882C4.60644 82.3225 6.82395 76.1552 12.0405 72.3758C13.3305 71.4411 14.7899 71.4743 16.2038 70.8846C17.0535 70.5303 18.3961 68.8835 19.3608 69.0785C22.9119 69.7973 18.8092 74.5195 18.2084 75.7616C16.3466 79.6099 16.4723 82.9915 16.5279 87.143C16.5702 90.2982 17.2254 95.6175 15.6359 98.4733C13.9415 101.514 10.2665 99.5396 8.21511 97.7396C5.62612 95.4674 3.67079 91.8491 4.02206 88.3882Z" fill="black"/>
<path fill-rule="evenodd" clip-rule="evenodd" d="M66.3617 106.313C66.3617 109.697 69.1069 107.406 69.0089 104.999C68.8653 101.454 66.2337 103.637 66.3617 106.313ZM80.9558 87.6013C77.9512 90.3055 75.6337 91.8226 75.0546 95.9805C74.6163 99.1301 75.0521 102.249 75.0707 105.422C75.1021 110.74 70.811 116.33 66.1933 110.234C62.8251 105.788 64.0332 98.7968 66.7798 94.3285C68.2212 91.984 70.2788 89.6648 72.6556 88.2037C74.4434 87.1042 79.4723 84.9408 80.9558 87.6013Z" fill="black"/>
<path fill-rule="evenodd" clip-rule="evenodd" d="M38.9967 169.557C38.6482 170.382 37.8306 173.749 39.4989 172.988C40.9718 172.315 40.0176 170.083 38.9967 169.557ZM30.181 159.161C29.9235 157.895 30.0284 149.957 32.2132 150.553C33.9293 151.019 34.2128 155.082 34.9119 156.497C37.5153 161.762 43.4906 165.042 45.5511 170.477C47.8511 176.546 40.8974 176.735 37.2077 174.277C32.8387 171.366 30.3107 164.24 30.181 159.161Z" fill="black"/>
<path fill-rule="evenodd" clip-rule="evenodd" d="M24.825 126.615C25.7732 125.333 25.8691 124.649 25.3286 123.516C24.6377 124.268 24.7604 125.343 24.825 126.615ZM25.5111 132.346C20.5682 132.899 20.3207 123.783 21.1673 120.653C21.8414 118.161 23.2907 115.482 24.7826 113.451C25.0839 113.041 27.9418 109.358 28.502 109.349C30.6518 109.316 30.061 111.746 29.8292 112.651C29.0988 115.502 28.8094 117.885 29.0059 121.046C29.2168 124.428 30.8171 132.458 25.5111 132.346Z" fill="black"/>
<path fill-rule="evenodd" clip-rule="evenodd" d="M249.946 53.3986C242.878 59.3304 236.168 65.7523 228.483 70.941C224.722 73.4801 220.791 75.7266 217.038 78.3072C215.127 79.6216 213.177 80.7982 211.056 81.7645C209.183 82.618 207.959 82.7289 209.513 80.7031C210.552 79.3497 212.88 78.4066 214.295 77.4446C216.473 75.9632 218.529 74.3196 220.82 73.0052C224.858 70.6867 228.872 68.8151 232.594 65.9718C235.898 63.4491 239.307 60.9856 242.46 58.3044C243.812 57.1546 248.296 51.8757 249.946 53.3986Z" fill="black"/>
<path fill-rule="evenodd" clip-rule="evenodd" d="M250.089 74.8177C253.268 77.5388 245.315 84.993 243.501 86.6824C241.589 88.4641 239.482 90.0535 237.402 91.632C236.67 92.1879 232.676 95.9081 231.662 95.6078C229.661 95.0151 232.288 92.6015 232.971 91.9721C235.18 89.9341 237.436 87.9559 239.595 85.863C241.543 83.977 243.652 82.2303 245.536 80.2834C247.062 78.7061 248.344 76.0333 250.089 74.8177Z" fill="black"/>
<path fill-rule="evenodd" clip-rule="evenodd" d="M14.5984 184.502C13.7684 182.577 12.2821 184.713 13.0356 185.674C13.7483 186.584 14.4922 184.871 14.5984 184.502ZM9.73214 180.701C10.177 177.871 11.2053 176.299 13.858 178.714C15.6808 180.374 19.347 185.094 18.9991 187.667C18.5424 191.042 14.8281 190.084 12.9027 188.319C10.9291 186.51 10.0578 183.21 9.73214 180.701Z" fill="black"/>
<path fill-rule="evenodd" clip-rule="evenodd" d="M15.5453 236.395C12.2956 236.148 9.52324 233.651 8.14319 230.725C6.98207 228.264 5.88308 224.298 9.96234 225.591C12.621 226.435 22.8699 236.792 15.5453 236.395Z" fill="black"/>
<path fill-rule="evenodd" clip-rule="evenodd" d="M54.9279 220.354C52.4167 220.926 49.9325 219.271 48.3882 217.404C47.4274 216.242 45.191 212.167 46.3177 210.489C47.8883 208.15 50.2596 212.852 51.0775 213.783C52.3606 215.241 56.5558 218.029 54.9279 220.354Z" fill="black"/>
<path fill-rule="evenodd" clip-rule="evenodd" d="M57.1898 156.719C55.2213 155.805 53.3937 154.704 52.6021 152.521C52.0986 151.13 51.6758 146.96 53.9114 146.979C56.4974 147.002 62.4192 156.301 57.1898 156.719Z" fill="black"/>
<path fill-rule="evenodd" clip-rule="evenodd" d="M43.3885 113.334C46.0243 113.287 46.6483 114.742 47.0149 116.832C47.2637 118.25 48.4711 123.066 47.2171 124.052C45.4255 125.461 42.5755 122.232 41.9994 120.964C40.8119 118.354 42.4538 115.786 43.3885 113.334Z" fill="black"/>
<path fill-rule="evenodd" clip-rule="evenodd" d="M88.6792 257.717C89.9626 258.302 92.8823 259.598 91.7665 261.608C90.6001 263.711 87.2509 261.667 85.9998 260.749C85.476 260.364 82.1483 257.846 82.2874 257.001C82.5809 255.207 87.168 257.549 88.6792 257.717Z" fill="black"/>
<path fill-rule="evenodd" clip-rule="evenodd" d="M4.12585 126.397C5.00284 128.595 5.99001 136.144 1.37189 132.067C-0.0374455 130.823 -0.250127 129.269 0.235453 127.561C0.937556 125.085 1.95932 125.576 4.12585 126.397Z" fill="black"/>
<path fill-rule="evenodd" clip-rule="evenodd" d="M248.857 98.2813C247.834 96.1905 250.359 94.8418 251.708 93.4944C252.589 92.6141 256.293 87.8403 257.508 88.11C260.005 88.6648 250.085 97.3488 248.857 98.2813Z" fill="black"/>
<path fill-rule="evenodd" clip-rule="evenodd" d="M43.3553 249.725C45.7649 249.338 46.3271 252.017 47.8796 253.185C48.5453 253.686 50.8308 254.126 50.371 255.189C49.1632 257.981 43.2371 251.603 43.3553 249.725Z" fill="black"/>
<path fill-rule="evenodd" clip-rule="evenodd" d="M63.7031 186.465C65.3593 185.771 70.1398 189.498 68.7673 191.109C66.7154 193.517 63.82 187.783 63.7031 186.465Z" fill="black"/>
<path fill-rule="evenodd" clip-rule="evenodd" d="M98.6147 240.384C97.4074 240.504 92.3125 238.902 94.2001 236.756C95.5254 235.249 99.048 239.02 98.6147 240.384Z" fill="black"/>
<path fill-rule="evenodd" clip-rule="evenodd" d="M37.6025 230.088C36.4039 230.568 32.081 229.581 33.4402 227.702C34.7349 225.914 37.6043 228.603 37.6025 230.088Z" fill="black"/>
<path fill-rule="evenodd" clip-rule="evenodd" d="M72.9932 238.193C74.3945 238.048 75.4068 238.893 75.6475 240.325C73.8948 240.575 73.3542 240.158 72.9932 238.193Z" fill="black"/>
<path fill-rule="evenodd" clip-rule="evenodd" d="M255.255 30.3213C255.847 30.324 256.438 30.3271 257.024 30.3297C256.432 30.3266 255.844 30.324 255.255 30.3213Z" fill="black"/>
<path fill-rule="evenodd" clip-rule="evenodd" d="M245.965 153.618C245.08 153.619 244.195 153.621 243.311 153.622C244.196 153.62 245.081 153.619 245.965 153.618Z" fill="black"/>
<path fill-rule="evenodd" clip-rule="evenodd" d="M125.256 9.29689C125.215 10.1833 125.174 11.0698 125.133 11.9531C125.173 11.0659 125.214 10.181 125.256 9.29689Z" fill="black"/>
<path fill-rule="evenodd" clip-rule="evenodd" d="M399.386 159.818C399.668 160.803 399.255 160.966 398.145 160.307C398.558 160.144 398.972 159.981 399.386 159.818Z" fill="black"/>
<path fill-rule="evenodd" clip-rule="evenodd" d="M374.256 237.066C374.7 237.069 375.144 237.072 375.583 237.075C375.138 237.072 374.697 237.069 374.256 237.066Z" fill="black"/>
<path fill-rule="evenodd" clip-rule="evenodd" d="M290.203 165.805C289.461 166.371 288.723 166.451 287.991 165.775C288.729 165.786 289.466 165.796 290.203 165.805Z" fill="black"/>
<path fill-rule="evenodd" clip-rule="evenodd" d="M273.642 90.3125C273.624 91.0516 273.605 91.7899 273.585 92.5261C273.604 91.7862 273.623 91.0494 273.642 90.3125Z" fill="black"/>
<path fill-rule="evenodd" clip-rule="evenodd" d="M311.88 22.0025C311.143 22.002 310.405 22.0012 309.668 22.0003C310.406 21.724 311.143 21.8148 311.88 22.0025Z" fill="black"/>
<path fill-rule="evenodd" clip-rule="evenodd" d="M123.425 13.8368C122.835 14.0568 122.246 14.187 121.655 13.8399C122.246 13.839 122.835 13.8377 123.425 13.8368Z" fill="black"/>
<path fill-rule="evenodd" clip-rule="evenodd" d="M274.086 195.234C274.066 195.678 274.046 196.121 274.026 196.563C274.047 196.118 274.066 195.676 274.086 195.234Z" fill="black"/>
<path fill-rule="evenodd" clip-rule="evenodd" d="M30.2906 159.375C30.2995 159.671 30.3079 159.967 30.3158 160.26C30.3065 159.964 30.299 159.67 30.2906 159.375Z" fill="black"/>
<path fill-rule="evenodd" clip-rule="evenodd" d="M402.126 157.787L399.914 157.798C400.65 157.248 401.387 157.318 402.126 157.787Z" fill="black"/>
<path fill-rule="evenodd" clip-rule="evenodd" d="M88.9189 257.651C88.1814 257.507 87.4446 257.363 86.707 257.219L88.9189 257.651Z" fill="black"/>
<path fill-rule="evenodd" clip-rule="evenodd" d="M237.801 130.599C237.787 130.156 237.774 129.712 237.76 129.271C237.774 129.714 237.787 130.157 237.801 130.599Z" fill="black"/>
<path fill-rule="evenodd" clip-rule="evenodd" d="M222.961 300.793C223.257 300.812 223.553 300.83 223.846 300.847C223.548 300.829 223.254 300.811 222.961 300.793Z" fill="black"/>
<path fill-rule="evenodd" clip-rule="evenodd" d="M19.9072 63.0683C20.3513 63.0798 20.7955 63.0917 21.2344 63.1037C20.788 63.0917 20.3476 63.0798 19.9072 63.0683Z" fill="black"/>
<path fill-rule="evenodd" clip-rule="evenodd" d="M83.6104 20.3619C82.5756 20.3637 81.5423 20.3655 80.5137 20.3673C81.5504 20.3655 82.5804 20.3637 83.6104 20.3619Z" fill="black"/>
<path fill-rule="evenodd" clip-rule="evenodd" d="M292.615 111.563C292.628 112.301 292.643 113.04 292.657 113.776C292.644 113.037 292.631 112.299 292.615 111.563Z" fill="black"/>
<path fill-rule="evenodd" clip-rule="evenodd" d="M238.444 270.066C237.852 270.057 237.262 270.048 236.675 270.038C237.268 270.046 237.856 270.057 238.444 270.066Z" fill="black"/>
<path fill-rule="evenodd" clip-rule="evenodd" d="M301.263 35.5025C302.147 35.4042 303.032 35.3059 303.917 35.2076C303.068 35.9594 302.15 35.4591 301.263 35.5025Z" fill="black"/>
<path fill-rule="evenodd" clip-rule="evenodd" d="M233.578 270.298C233.134 270.281 232.691 270.265 232.251 270.249C232.696 270.266 233.137 270.282 233.578 270.298Z" fill="black"/>
<path fill-rule="evenodd" clip-rule="evenodd" d="M218.282 278.021C218.304 278.76 218.327 279.499 218.35 280.234C218.328 279.494 218.305 278.757 218.282 278.021Z" fill="black"/>
<path fill-rule="evenodd" clip-rule="evenodd" d="M285.779 62.6864C286.369 62.6315 286.959 62.5766 287.549 62.5222C287.01 62.9374 286.378 62.6944 285.779 62.6864Z" fill="black"/>
<path fill-rule="evenodd" clip-rule="evenodd" d="M184.474 63.9732C185.21 63.3455 185.947 63.4136 186.686 63.9661C185.948 63.9679 185.211 63.9706 184.474 63.9732Z" fill="black"/>
<path fill-rule="evenodd" clip-rule="evenodd" d="M156.792 86.3281C156.814 86.0329 156.834 85.7376 156.857 85.4427C156.837 85.7384 156.815 86.0333 156.792 86.3281Z" fill="black"/>
<path fill-rule="evenodd" clip-rule="evenodd" d="M285.549 77.9167C285.555 78.5079 285.561 79.0992 285.567 79.6875C285.562 79.0948 285.555 78.5058 285.549 77.9167Z" fill="black"/>
<path fill-rule="evenodd" clip-rule="evenodd" d="M90.3718 170.457C91.3425 170.786 93.2947 171.781 94.4257 171.649C95.3312 171.543 96.0776 170.442 96.9507 170.443C99.3021 170.446 98.8661 173.166 97.73 174.626C94.6576 178.576 87.7924 174.293 90.3718 170.457Z" fill="black"/>
<path fill-rule="evenodd" clip-rule="evenodd" d="M99.9684 156.276C103.175 157.104 101.578 164.162 98.8824 164.648C95.7085 165.219 95.1555 159.48 95.7826 157.406C97.416 158.377 96.4047 161.842 98.4631 160.884C99.7719 160.275 99.5729 157.456 99.9684 156.276Z" fill="black"/>
</svg>
