<svg width="198" height="198" viewBox="0 0 198 198" fill="none" xmlns="http://www.w3.org/2000/svg">
<g clip-path="url(#clip0_89_84)">
<path d="M198.116 160C190.338 160.005 183.062 164.981 180.223 172.21C177.418 179.353 179.561 188.304 185.397 193.312C191.324 198.398 200.207 199.556 207.097 195.745C213.907 191.978 217.901 184.088 216.817 176.391C216.183 171.884 213.871 167.529 210.344 164.621C206.67 161.594 201.951 159.962 197.181 160.254C194.942 160.391 194.926 163.894 197.181 163.756C204.258 163.324 210.809 167.771 212.854 174.597C214.709 180.793 212.379 187.55 207.257 191.473C202.158 195.379 195.004 195.422 189.605 192.086C184.158 188.72 181.49 181.825 182.85 175.616C184.383 168.62 190.994 163.507 198.116 163.502C200.369 163.501 200.373 159.999 198.116 160Z" fill="#F3F3F3"/>
<path d="M188.958 185.381C191.293 187.76 194.532 189.109 197.857 189.203C201.344 189.301 204.661 187.87 207.081 185.381C208.653 183.764 206.179 181.285 204.605 182.904C202.791 184.769 200.445 185.774 197.857 185.701C195.457 185.633 193.128 184.63 191.434 182.904C189.853 181.293 187.377 183.77 188.958 185.381Z" fill="#F3F3F3"/>
<path d="M192.076 171.264C191.719 171.355 191.431 171.542 191.166 171.791C191.042 171.908 190.933 172.05 190.851 172.2C190.807 172.28 190.784 172.349 190.744 172.445C190.715 172.513 190.661 172.619 190.637 172.706C190.587 172.882 190.558 173.071 190.561 173.253C190.562 173.271 190.563 173.289 190.564 173.307C190.571 173.435 190.597 173.678 190.631 173.8C190.677 173.96 190.755 174.141 190.833 174.287C190.918 174.449 191.04 174.596 191.165 174.729C191.314 174.888 191.495 175.032 191.694 175.124C191.849 175.196 192.018 175.283 192.186 175.324C192.275 175.346 192.381 175.353 192.464 175.365C192.554 175.377 192.665 175.399 192.764 175.401C193.004 175.407 193.256 175.372 193.484 175.295C193.685 175.227 193.942 175.129 194.132 175.002C194.504 174.754 194.872 174.435 195.066 174.023C195.24 173.656 195.345 173.368 195.34 172.951C195.339 172.868 195.311 172.718 195.307 172.686C195.296 172.61 195.288 172.493 195.266 172.405C195.223 172.223 195.143 172.042 195.05 171.883C195.039 171.865 195.028 171.848 195.016 171.83C194.936 171.71 194.819 171.557 194.722 171.451C194.603 171.319 194.427 171.204 194.3 171.11C194.269 171.087 194.239 171.066 194.206 171.048C194.126 171.006 194.03 170.971 193.953 170.939C193.867 170.902 193.771 170.854 193.677 170.826C193.216 170.691 192.67 170.713 192.213 170.846C192.169 170.859 192.127 170.875 192.084 170.891C191.914 170.958 191.737 171.025 191.574 171.111C191.539 171.13 191.505 171.15 191.473 171.173C191.321 171.278 191.163 171.394 191.026 171.52C190.993 171.55 190.964 171.584 190.935 171.619C190.824 171.753 190.703 171.893 190.614 172.044C190.496 172.244 190.396 172.47 190.351 172.7C190.32 172.852 190.295 173.044 190.284 173.199C190.282 173.221 190.28 173.243 190.28 173.266C190.282 173.443 190.317 173.641 190.35 173.814C190.372 173.929 190.421 174.022 190.468 174.133C190.513 174.24 190.55 174.348 190.612 174.445C190.801 174.742 190.929 174.869 191.182 175.064C191.458 175.278 191.601 175.349 191.957 175.483C192.102 175.538 192.237 175.55 192.394 175.571C192.573 175.595 192.726 175.621 192.903 175.601C193.14 175.574 193.387 175.554 193.616 175.481C193.854 175.405 194.084 175.298 194.311 175.197C194.474 175.124 194.638 175.046 194.784 174.943C194.959 174.82 195.142 174.693 195.294 174.54C195.371 174.463 195.435 174.37 195.5 174.285C195.565 174.201 195.649 174.109 195.7 174.01C195.887 173.65 195.974 173.337 195.998 172.932C196.011 172.698 195.98 172.45 195.898 172.23C195.755 171.844 195.62 171.589 195.332 171.282C195.174 171.114 194.982 170.965 194.778 170.857C194.582 170.753 194.36 170.645 194.137 170.602C193.945 170.565 193.741 170.534 193.546 170.525C193.486 170.522 193.426 170.524 193.367 170.53C193.107 170.557 192.84 170.583 192.588 170.657C192.465 170.694 192.345 170.739 192.225 170.785C191.997 170.839 191.798 170.943 191.629 171.098C191.439 171.222 191.288 171.385 191.178 171.589C191.05 171.79 190.981 172.007 190.971 172.24C190.918 172.473 190.929 172.706 191.002 172.939C191.139 173.362 191.402 173.771 191.807 173.985L192.225 174.162C192.535 174.245 192.846 174.245 193.156 174.162C193.357 174.085 193.56 174.011 193.773 173.977L193.308 174.04C193.414 174.025 193.518 174.022 193.625 174.034L193.16 173.971C193.234 173.982 193.302 174.002 193.371 174.03L192.953 173.854C193.011 173.88 193.065 173.912 193.117 173.949L192.763 173.675C192.812 173.714 192.855 173.756 192.895 173.805L192.621 173.45C192.652 173.491 192.677 173.533 192.698 173.579L192.521 173.161C192.536 173.199 192.547 173.236 192.554 173.276L192.492 172.81C192.498 172.862 192.498 172.91 192.492 172.961L192.554 172.496C192.547 172.535 192.537 172.571 192.524 172.608L192.7 172.19C192.677 172.244 192.648 172.293 192.613 172.34L192.887 171.986C192.835 172.05 192.777 172.105 192.713 172.155L193.067 171.882C192.886 172.019 192.679 172.115 192.471 172.204L192.889 172.028C192.743 172.088 192.594 172.137 192.437 172.161L192.903 172.099C192.81 172.11 192.719 172.112 192.627 172.1L193.092 172.163C193.021 172.151 192.955 172.133 192.888 172.106L193.306 172.283C193.242 172.254 193.183 172.22 193.127 172.177L193.481 172.451C193.443 172.419 193.41 172.385 193.379 172.347L193.653 172.701C193.624 172.661 193.6 172.62 193.581 172.575L193.757 172.993C193.742 172.951 193.732 172.911 193.725 172.867L193.787 173.332C193.781 173.276 193.783 173.222 193.79 173.165L193.728 173.631C193.738 173.574 193.754 173.522 193.776 173.469L193.599 173.887C193.623 173.835 193.652 173.787 193.685 173.741L193.412 174.095C193.454 174.042 193.501 173.996 193.554 173.953L193.2 174.226C193.273 174.172 193.35 174.128 193.434 174.092L193.015 174.269C193.116 174.229 193.219 174.201 193.326 174.184L192.86 174.247C192.94 174.237 193.017 174.235 193.096 174.243L192.631 174.18C192.694 174.19 192.753 174.204 192.813 174.227L192.394 174.051C192.444 174.074 192.489 174.101 192.532 174.134L192.177 173.86C192.21 173.888 192.239 173.918 192.266 173.952L191.992 173.598C192.01 173.624 192.026 173.65 192.04 173.679L191.864 173.261C191.88 173.301 191.891 173.34 191.898 173.384L191.836 172.918C191.838 172.951 191.838 172.982 191.835 173.015L191.898 172.549C191.891 172.592 191.881 172.632 191.866 172.673L192.042 172.255C192.02 172.306 191.993 172.353 191.96 172.398L192.234 172.044C192.184 172.107 192.129 172.162 192.065 172.212L192.42 171.938C192.342 171.996 192.259 172.043 192.17 172.081L192.588 171.904C192.529 171.927 192.471 171.943 192.409 171.954L192.875 171.892C192.814 171.899 192.757 171.901 192.696 171.894L193.162 171.956C193.121 171.949 193.082 171.938 193.043 171.923L193.461 172.1C193.423 172.083 193.388 172.064 193.354 172.04L193.708 172.314C193.676 172.288 193.648 172.261 193.622 172.229L193.896 172.583C193.878 172.558 193.864 172.534 193.85 172.505L194.027 172.924C194.016 172.896 194.009 172.871 194.004 172.842L194.066 173.307C194.064 173.279 194.063 173.253 194.066 173.225L194.003 173.691C194.009 173.653 194.018 173.62 194.033 173.585L193.856 174.003C193.869 173.978 193.882 173.957 193.898 173.934L193.625 174.288C193.643 174.267 193.66 174.25 193.682 174.233L193.328 174.507C193.342 174.496 193.358 174.488 193.374 174.48L192.956 174.657C192.972 174.65 192.989 174.644 193.007 174.641C193.235 174.587 193.433 174.482 193.602 174.327C193.793 174.204 193.943 174.04 194.053 173.836C194.181 173.635 194.251 173.418 194.261 173.185C194.313 172.952 194.303 172.719 194.23 172.487C194.093 172.063 193.83 171.654 193.425 171.44C193.004 171.217 192.545 171.144 192.076 171.264Z" fill="#F3F3F3"/>
<path d="M201.948 171.264C201.591 171.355 201.303 171.542 201.038 171.791C200.914 171.908 200.805 172.05 200.724 172.2C200.68 172.28 200.656 172.349 200.616 172.445C200.587 172.513 200.533 172.619 200.509 172.706C200.46 172.882 200.43 173.071 200.433 173.253C200.434 173.271 200.435 173.289 200.436 173.307C200.444 173.435 200.469 173.678 200.504 173.8C200.549 173.96 200.628 174.141 200.705 174.287C200.791 174.449 200.912 174.596 201.037 174.729C201.187 174.888 201.367 175.032 201.566 175.124C201.721 175.196 201.89 175.283 202.058 175.324C202.147 175.346 202.253 175.353 202.336 175.365C202.426 175.377 202.538 175.399 202.636 175.401C202.876 175.407 203.128 175.372 203.356 175.295C203.557 175.227 203.814 175.129 204.004 175.002C204.376 174.754 204.744 174.435 204.939 174.023C205.112 173.656 205.217 173.368 205.213 172.951C205.212 172.868 205.183 172.718 205.179 172.686C205.169 172.61 205.16 172.493 205.139 172.405C205.095 172.223 205.015 172.042 204.922 171.883C204.912 171.865 204.9 171.848 204.888 171.83C204.809 171.71 204.691 171.557 204.595 171.451C204.475 171.319 204.299 171.204 204.172 171.11C204.141 171.087 204.112 171.066 204.078 171.048C203.998 171.006 203.902 170.971 203.825 170.939C203.739 170.902 203.643 170.854 203.549 170.826C203.088 170.691 202.543 170.713 202.085 170.846C202.041 170.859 201.999 170.875 201.957 170.891C201.786 170.958 201.609 171.025 201.446 171.111C201.411 171.13 201.378 171.15 201.345 171.173C201.193 171.278 201.036 171.394 200.899 171.52C200.865 171.55 200.836 171.584 200.807 171.619C200.697 171.753 200.575 171.893 200.486 172.044C200.368 172.244 200.269 172.47 200.223 172.7C200.192 172.852 200.167 173.044 200.156 173.199C200.154 173.221 200.152 173.243 200.153 173.266C200.154 173.443 200.189 173.641 200.222 173.814C200.244 173.929 200.294 174.022 200.34 174.133C200.386 174.24 200.422 174.348 200.484 174.445C200.673 174.742 200.802 174.869 201.054 175.064C201.331 175.278 201.474 175.349 201.829 175.483C201.974 175.538 202.109 175.55 202.266 175.571C202.446 175.595 202.598 175.621 202.775 175.601C203.013 175.574 203.259 175.554 203.488 175.481C203.726 175.405 203.956 175.298 204.183 175.197C204.347 175.124 204.51 175.046 204.657 174.943C204.831 174.82 205.014 174.693 205.166 174.54C205.243 174.463 205.307 174.37 205.372 174.285C205.438 174.201 205.521 174.109 205.573 174.01C205.759 173.65 205.846 173.337 205.87 172.932C205.884 172.698 205.852 172.45 205.771 172.23C205.627 171.844 205.492 171.589 205.204 171.282C205.046 171.114 204.854 170.965 204.65 170.857C204.454 170.753 204.233 170.645 204.009 170.602C203.817 170.565 203.613 170.534 203.418 170.525C203.358 170.522 203.299 170.524 203.239 170.53C202.979 170.557 202.712 170.583 202.46 170.657C202.337 170.694 202.217 170.739 202.097 170.785C201.869 170.839 201.671 170.943 201.502 171.098C201.311 171.222 201.161 171.385 201.051 171.589C200.923 171.79 200.853 172.007 200.843 172.24C200.791 172.473 200.801 172.706 200.874 172.939C201.011 173.362 201.274 173.771 201.679 173.985L202.097 174.162C202.407 174.245 202.718 174.245 203.028 174.162C203.23 174.085 203.432 174.011 203.646 173.977L203.18 174.04C203.286 174.025 203.391 174.022 203.497 174.034L203.032 173.971C203.106 173.982 203.175 174.002 203.244 174.03L202.825 173.854C202.884 173.88 202.937 173.912 202.989 173.949L202.635 173.675C202.684 173.714 202.728 173.756 202.767 173.805L202.494 173.45C202.524 173.491 202.549 173.533 202.57 173.579L202.394 173.161C202.408 173.199 202.419 173.236 202.427 173.276L202.364 172.81C202.37 172.862 202.37 172.91 202.364 172.961L202.426 172.496C202.419 172.535 202.409 172.571 202.396 172.608L202.572 172.19C202.549 172.244 202.52 172.293 202.485 172.34L202.759 171.986C202.708 172.05 202.649 172.105 202.585 172.155L202.94 171.882C202.758 172.019 202.551 172.115 202.343 172.204L202.761 172.028C202.615 172.088 202.467 172.137 202.31 172.161L202.775 172.099C202.682 172.11 202.592 172.112 202.499 172.1L202.964 172.163C202.894 172.151 202.827 172.133 202.76 172.106L203.179 172.283C203.114 172.254 203.055 172.22 202.999 172.177L203.353 172.451C203.316 172.419 203.282 172.385 203.251 172.347L203.525 172.701C203.496 172.661 203.473 172.62 203.453 172.575L203.629 172.993C203.614 172.951 203.604 172.911 203.597 172.867L203.659 173.332C203.654 173.276 203.655 173.222 203.662 173.165L203.6 173.631C203.61 173.574 203.626 173.522 203.648 173.469L203.471 173.887C203.496 173.835 203.524 173.787 203.558 173.741L203.284 174.095C203.327 174.042 203.373 173.996 203.427 173.953L203.072 174.226C203.145 174.172 203.222 174.128 203.306 174.092L202.888 174.269C202.988 174.229 203.091 174.201 203.198 174.184L202.733 174.247C202.812 174.237 202.889 174.235 202.968 174.243L202.503 174.18C202.566 174.19 202.625 174.204 202.685 174.227L202.267 174.051C202.316 174.074 202.361 174.101 202.404 174.134L202.05 173.86C202.082 173.888 202.111 173.918 202.138 173.952L201.864 173.598C201.883 173.624 201.898 173.65 201.912 173.679L201.736 173.261C201.753 173.301 201.764 173.34 201.77 173.384L201.708 172.918C201.71 172.951 201.71 172.982 201.708 173.015L201.77 172.549C201.764 172.592 201.753 172.632 201.738 172.673L201.915 172.255C201.892 172.306 201.865 172.353 201.832 172.398L202.106 172.044C202.056 172.107 202.001 172.162 201.938 172.212L202.292 171.938C202.214 171.996 202.131 172.043 202.042 172.081L202.46 171.904C202.401 171.927 202.343 171.943 202.281 171.954L202.747 171.892C202.687 171.899 202.629 171.901 202.569 171.894L203.034 171.956C202.993 171.949 202.954 171.938 202.915 171.923L203.333 172.1C203.295 172.083 203.261 172.064 203.226 172.04L203.581 172.314C203.548 172.288 203.52 172.261 203.494 172.229L203.768 172.583C203.75 172.558 203.736 172.534 203.722 172.505L203.899 172.924C203.888 172.896 203.881 172.871 203.876 172.842L203.938 173.307C203.936 173.279 203.936 173.253 203.938 173.225L203.875 173.691C203.881 173.653 203.89 173.62 203.905 173.585L203.728 174.003C203.741 173.978 203.754 173.957 203.771 173.934L203.497 174.288C203.515 174.267 203.533 174.25 203.554 174.233L203.2 174.507C203.214 174.496 203.23 174.488 203.246 174.48L202.828 174.657C202.844 174.65 202.861 174.644 202.879 174.641C203.107 174.587 203.305 174.482 203.475 174.327C203.665 174.204 203.816 174.04 203.926 173.836C204.054 173.635 204.123 173.418 204.133 173.185C204.186 172.952 204.175 172.719 204.102 172.487C203.965 172.063 203.702 171.654 203.297 171.44C202.876 171.217 202.417 171.144 201.948 171.264Z" fill="#F3F3F3"/>
<path d="M121.498 127.121C121.482 131.881 121.545 136.77 123.435 141.221C125.157 145.278 128.275 148.548 132.567 149.826C134.789 150.488 137.164 150.633 139.47 150.669C141.798 150.705 144.18 150.614 146.444 150.022C150.676 148.915 153.973 145.802 155.786 141.873C158.065 136.934 158.049 131.49 157.897 126.16C157.859 124.83 156.456 123.408 155.029 123.975C145.383 127.809 134.656 127.729 125.063 123.768C123.932 123.3 122.572 124.273 122.276 125.35C121.918 126.652 122.723 127.668 123.859 128.137C134.083 132.359 145.955 132.43 156.233 128.345L153.365 126.16C153.548 132.572 153.785 142.199 146.605 145.211C144.91 145.922 143.042 146.093 141.224 146.134C139.331 146.177 137.373 146.179 135.503 145.858C131.99 145.256 129.495 143.315 127.9 140.15C125.895 136.169 126.016 131.459 126.03 127.121C126.039 124.204 121.507 124.2 121.498 127.121Z" fill="#F3F3F3"/>
<path d="M157.688 133.965C157.317 134.265 157.98 133.811 158.059 133.763C158.296 133.649 158.298 133.644 158.066 133.746C158.159 133.711 158.254 133.679 158.351 133.651C158.458 133.618 159.153 133.486 158.63 133.55C158.861 133.522 159.096 133.517 159.329 133.526C159.429 133.529 159.529 133.536 159.628 133.547C159.36 133.511 159.353 133.517 159.609 133.566C159.712 133.602 160.437 133.891 159.966 133.656C160.137 133.741 160.298 133.846 160.468 133.932C160.679 134.079 160.681 134.072 160.476 133.912C160.575 133.992 160.671 134.076 160.763 134.164C160.902 134.296 161.032 134.435 161.154 134.583C160.828 134.188 161.276 134.827 161.328 134.918C161.607 135.403 161.26 134.57 161.405 135.107C161.432 135.209 161.599 136.017 161.529 135.466C161.554 135.662 161.562 135.861 161.563 136.058C161.563 136.17 161.467 136.977 161.562 136.447C161.527 136.644 161.486 136.84 161.433 137.034C161.409 137.124 161.127 137.894 161.325 137.438C161.14 137.864 160.896 138.27 160.62 138.643C160.904 138.259 160.469 138.797 160.402 138.868C160.244 139.037 160.079 139.199 159.907 139.353C159.808 139.442 159.708 139.528 159.605 139.612C159.804 139.463 159.798 139.466 159.589 139.62C159.424 139.733 159.261 139.848 159.092 139.954C158.694 140.204 158.279 140.415 157.858 140.622C157.618 140.729 157.615 140.732 157.849 140.633C157.725 140.683 157.601 140.732 157.476 140.778C157.252 140.861 157.026 140.938 156.798 141.011C156.267 141.18 155.727 141.32 155.183 141.442C154.014 141.704 152.827 141.875 151.642 142.046C150.464 142.216 149.715 143.77 150.059 144.833C150.476 146.122 151.585 146.598 152.846 146.416C157.22 145.784 161.695 144.755 164.473 141.009C167.123 137.435 166.479 131.687 162.166 129.704C159.526 128.489 156.72 128.955 154.484 130.761C153.557 131.508 153.647 133.197 154.484 133.965C155.467 134.868 156.7 134.763 157.688 133.965Z" fill="#F3F3F3"/>
<path d="M125.886 127.086C128.776 122.88 135.616 123.529 140.023 123.531C145.02 123.534 150.467 124.128 153.979 128.091C155.917 130.278 159.112 127.064 157.183 124.887C152.773 119.909 145.876 118.973 139.587 119.001C133.269 119.028 125.946 119.017 121.973 124.799C121.28 125.808 121.784 127.313 122.786 127.899C123.909 128.556 125.191 128.098 125.886 127.086Z" fill="#F3F3F3"/>
<path d="M125.676 141.272C122.397 140.878 118.924 140.805 116.284 143.104C114.006 145.086 113.199 148.444 114.942 151.047C116.407 153.234 119.033 154.272 121.498 154.859C124.865 155.661 128.309 156.193 131.75 156.557C138.456 157.267 145.208 157.108 151.885 156.194C155.076 155.757 158.363 155.242 161.444 154.279C164.091 153.452 166.756 152.007 167.814 149.29C169.041 146.139 167.3 142.884 164.619 141.158C161.305 139.025 157.169 139.876 153.61 140.79C150.787 141.516 151.984 145.888 154.815 145.16C156.939 144.614 159.649 143.752 161.77 144.749C162.996 145.326 164.255 146.734 163.403 148.05C162.578 149.323 160.603 149.843 159.19 150.202C156.668 150.844 154.098 151.33 151.524 151.705C146.256 152.473 140.88 152.65 135.568 152.339C132.937 152.185 130.314 151.908 127.713 151.479C125.415 151.101 122.969 150.762 120.782 149.926C119.499 149.435 117.777 148.421 118.866 146.936C120.339 144.927 123.58 145.552 125.676 145.804C126.893 145.951 127.942 144.658 127.942 143.538C127.942 142.192 126.897 141.419 125.676 141.272Z" fill="#F3F3F3"/>
<path d="M40.1981 20.3227C32.8994 23.1769 27.7696 30.3701 28.008 38.298C28.1306 42.3755 29.5502 46.3514 32.0603 49.5649C34.5911 52.805 38.2464 55.1235 42.1918 56.2345C50.2357 58.4996 59.1879 55.6308 64.3381 49.0479C69.1199 42.936 70.4353 34.39 66.653 27.4334C64.5358 23.5394 60.8824 20.8641 56.6127 19.764C52.1521 18.6149 47.4717 18.985 42.9436 19.4371C42.0617 19.5252 41.3024 20.1284 41.3024 21.0783C41.3024 21.8975 42.0562 22.8081 42.9436 22.7195C49.5355 22.0613 57.5764 21.3462 62.3625 26.9244C66.5346 31.787 66.4109 39.1679 63.4125 44.5574C59.9507 50.7799 53.1592 54.2837 46.0805 53.6432C42.5969 53.328 39.1287 51.8662 36.5155 49.5339C33.959 47.2522 32.2739 44.2288 31.5862 40.8774C30.1133 33.6991 34.2369 26.1602 41.0707 23.4879C41.8957 23.1653 42.4694 22.3873 42.217 21.469C42.0008 20.6822 41.0282 19.9981 40.1981 20.3227Z" fill="#F3F3F3"/>
<path d="M46.6507 30.4743L45.5982 38.3477C45.4839 39.2022 46.4345 40.0249 47.2393 39.9889C48.2261 39.9447 48.7581 39.2633 48.8805 38.3477L49.933 30.4743C50.0473 29.6198 49.0967 28.7971 48.2918 28.8331C47.3051 28.8773 46.7731 29.5587 46.6507 30.4743Z" fill="#F3F3F3"/>
<path d="M46.2932 39.7929C48.9537 42.7454 51.6143 45.698 54.2749 48.6505C54.8513 49.2901 56.0176 49.2805 56.5959 48.6505C57.2231 47.9673 57.2107 47.0118 56.5959 46.3295C53.9353 43.377 51.2747 40.4244 48.6141 37.4719C48.0378 36.8323 46.8715 36.8419 46.2932 37.4719C45.666 38.1551 45.6784 39.1106 46.2932 39.7929Z" fill="#F3F3F3"/>
<path d="M59.4421 152.866C63.5641 146.572 67.6861 140.278 71.8082 133.983C72.8129 132.449 73.6197 131.08 73.5427 129.191C73.5041 128.244 73.5838 127.299 73.3654 126.364C72.7707 123.819 70.1688 123.71 68.0716 124.287C67.3371 124.489 66.5892 124.632 65.8986 124.988C65.2018 125.347 64.5934 125.913 64.0553 126.476C62.8065 127.781 61.5941 129.122 60.3565 130.438C57.8337 133.12 55.2923 135.785 52.7633 138.461C51.4624 139.838 50.1647 141.218 48.8746 142.604C48.2417 143.285 47.7092 143.77 46.9203 144.261C46.1683 144.729 45.3007 145.151 44.6552 145.765C43.2632 147.091 43.7682 148.89 45.1194 149.99C45.8503 150.585 46.5923 151.166 47.3302 151.752C49.3591 153.364 51.3923 154.97 53.4184 156.585C54.57 157.503 55.9339 158.897 57.5173 158.03C58.4349 157.527 58.6778 156.542 58.8888 155.602C59.1205 154.57 59.3523 153.538 59.5841 152.506L59.1675 153.221L59.1888 153.194C59.7266 152.505 59.8606 151.575 59.1888 150.903C58.6288 150.343 57.4395 150.21 56.898 150.903C56.3527 151.602 56.2683 152.5 56.0777 153.348C55.985 153.761 55.8923 154.174 55.7996 154.586C55.7533 154.793 55.7084 155 55.6606 155.206C55.5134 155.84 55.53 155.239 56.0454 155.121H56.9066C56.4771 155.062 55.8546 154.41 55.3862 154.037C54.6584 153.458 53.9297 152.879 53.2009 152.301C51.6553 151.075 50.1084 149.851 48.5651 148.622C48.3918 148.484 47.1293 147.276 46.9639 147.324C46.8787 147.349 46.9385 148.142 46.8748 148.115C46.8729 148.115 47.1722 147.919 47.2126 147.894C47.5249 147.697 47.8393 147.504 48.1526 147.309C48.8366 146.883 49.62 146.499 50.1989 145.937C52.3783 143.82 54.3733 141.469 56.4642 139.262C58.5987 137.009 60.738 134.76 62.8635 132.499C63.9086 131.387 64.9489 130.27 65.9866 129.151C66.3609 128.748 66.7358 128.298 67.1901 127.983C67.6458 127.667 68.1634 127.635 68.6883 127.481C69.1097 127.357 69.6482 127.218 69.9162 127.198C69.9962 127.191 70.4916 127.171 70.2942 127.178C70.0439 127.186 70.3499 127.179 70.3311 127.189C70.4738 127.234 70.4805 127.231 70.351 127.179C70.2442 127.128 70.2285 127.122 70.3039 127.162C70.3279 127.185 70.0967 126.944 70.319 127.188C70.1638 127.017 70.1902 127.046 70.166 126.959C70.2009 127.085 70.2337 127.212 70.2649 127.339C70.2859 127.425 70.2899 127.64 70.2583 127.275C70.2659 127.362 70.2764 127.45 70.2792 127.537C70.3041 128.302 70.4423 129.222 70.3222 129.968C70.2288 130.548 69.8374 131.077 69.5271 131.559C69.0972 132.227 68.6569 132.889 68.2215 133.554C64.3626 139.446 60.5037 145.338 56.6448 151.231C55.4992 152.98 58.3032 154.605 59.4421 152.866Z" fill="#F3F3F3"/>
<path d="M55.3307 135.979C52.6215 136.07 49.9123 136.161 47.203 136.252C45.8987 136.296 44.539 136.326 43.4258 137.1C42.44 137.786 41.7886 138.782 41.2102 139.814C40.8933 140.379 40.9019 141.335 41.4635 141.777C43.2106 143.151 44.9577 144.526 46.7049 145.9C47.3918 146.441 48.3255 146.571 48.9956 145.9C49.5575 145.339 49.687 144.154 48.9956 143.61C47.2485 142.235 45.5014 140.861 43.7542 139.486L44.0075 141.449C44.3737 140.796 44.7902 139.959 45.3813 139.696C46.1724 139.343 47.3359 139.488 48.219 139.458C50.5896 139.378 52.9602 139.299 55.3307 139.219C56.2054 139.19 56.9506 138.496 56.9506 137.599C56.9506 136.744 56.2091 135.95 55.3307 135.979Z" fill="#F3F3F3"/>
<path d="M61.8509 144.246L63.2904 150.955C63.4059 151.493 63.5219 152.032 63.6369 152.57C63.7318 153.014 63.893 153.534 63.8005 153.996C63.6703 154.647 62.9095 155.277 62.4107 155.748H64.7014C62.9442 154.386 61.187 153.024 59.4298 151.662C58.7391 151.127 57.8124 150.989 57.1391 151.662C56.5809 152.221 56.4436 153.414 57.1391 153.953C58.8963 155.315 60.6535 156.677 62.4107 158.038C63.119 158.587 63.9982 158.701 64.7014 158.038C65.5957 157.195 66.4672 156.263 66.848 155.066C67.2671 153.747 66.9078 152.394 66.6275 151.088C66.0766 148.52 65.5257 145.952 64.9748 143.385C64.7912 142.529 63.7909 142.031 62.9822 142.253C62.0973 142.497 61.6667 143.388 61.8509 144.246Z" fill="#F3F3F3"/>
<path d="M49.8754 151.471C47.8776 151.752 45.9168 152.312 44.7279 154.075C44.1585 154.92 44.0706 155.931 43.9334 156.909C43.7913 157.921 43.6492 158.934 43.5071 159.947C43.4238 160.541 43.4751 161.074 43.9236 161.523C44.3261 161.925 44.9483 162.103 45.4996 161.94C45.6315 161.901 45.7633 161.866 45.8983 161.839C46.3227 161.756 45.6551 161.838 45.9932 161.825C46.2319 161.817 46.4694 161.799 46.7085 161.798C47.2257 161.796 47.7435 161.822 48.2602 161.791C49.5416 161.712 50.8326 161.319 51.7019 160.318C52.5476 159.344 52.9707 158.164 53.0633 156.886C53.1568 155.595 52.8168 154.29 52.4845 153.053C52.2647 152.235 51.3208 151.654 50.492 151.922C49.6525 152.193 49.1251 153.037 49.3606 153.914C49.4987 154.428 49.6365 154.943 49.7379 155.466C49.7642 155.602 49.7855 155.738 49.8089 155.875C49.8427 156.071 49.7955 155.605 49.8099 155.923C49.8224 156.199 49.8439 156.471 49.8315 156.748C49.8265 156.86 49.7997 156.99 49.8031 157.102L49.8298 156.887C49.8176 156.959 49.8037 157.031 49.7879 157.102C49.7442 157.299 49.6778 157.486 49.6168 157.678C49.5575 157.864 49.7748 157.383 49.6291 157.64C49.5757 157.734 49.5295 157.832 49.4729 157.924C49.4451 157.97 49.4159 158.015 49.3852 158.059C49.3164 158.158 49.3479 158.12 49.4796 157.946C49.4044 158.005 49.3346 158.114 49.2659 158.182L49.1891 158.256C49.0576 158.369 49.0846 158.352 49.2701 158.205C49.2711 158.238 49.0702 158.335 49.045 158.35C48.996 158.379 48.9458 158.406 48.8944 158.431C49.0878 158.356 49.1282 158.339 49.0156 158.382C48.9244 158.41 48.8352 158.444 48.7428 158.47C48.7014 158.481 48.4488 158.575 48.4066 158.544C48.6279 158.518 48.676 158.512 48.5509 158.526C48.4931 158.533 48.4351 158.538 48.377 158.543C48.1413 158.562 47.9047 158.566 47.6684 158.567C46.6512 158.568 45.6272 158.523 44.6384 158.816L46.631 160.808C46.7565 159.913 46.8821 159.018 47.0077 158.123C47.07 157.679 47.1289 157.234 47.1953 156.791C47.2255 156.589 47.2584 156.387 47.3087 156.19C47.3208 156.142 47.4112 155.772 47.3492 156.01C47.2969 156.21 47.3859 155.94 47.4113 155.895C47.4468 155.832 47.4872 155.772 47.5252 155.71C47.7033 155.421 47.3649 155.865 47.5051 155.738C47.5826 155.667 47.8284 155.488 47.8576 155.394C47.6871 155.521 47.6504 155.549 47.7475 155.479C47.777 155.457 47.8072 155.436 47.838 155.415C47.9143 155.364 47.9922 155.314 48.0719 155.268C48.1356 155.231 48.2003 155.195 48.2658 155.162C48.2811 155.154 48.605 155.003 48.3821 155.1C48.1541 155.199 48.499 155.061 48.5464 155.044C48.6499 155.009 48.7545 154.977 48.8597 154.947C49.0494 154.893 49.2413 154.847 49.4344 154.807C49.865 154.717 50.3011 154.656 50.7366 154.595C51.1088 154.543 51.5246 154.159 51.7046 153.851C51.9078 153.504 51.9939 152.992 51.8679 152.603C51.7411 152.211 51.4982 151.833 51.1235 151.635C50.7113 151.417 50.3325 151.407 49.8754 151.471Z" fill="#F3F3F3"/>
<path d="M66.0721 132.594C66.258 132.713 66.4588 132.777 66.6744 132.787C66.8897 132.835 67.105 132.825 67.3203 132.758C67.5311 132.708 67.7147 132.611 67.8711 132.468C68.0475 132.354 68.1865 132.202 68.2883 132.013L68.4516 131.626C68.5288 131.339 68.5288 131.052 68.4516 130.765L68.2883 130.378C68.1443 130.135 67.9506 129.941 67.7072 129.797C67.5213 129.679 67.3205 129.615 67.1049 129.605C66.8896 129.557 66.6743 129.566 66.459 129.634C66.2482 129.684 66.0646 129.781 65.9081 129.924C65.7318 130.038 65.5927 130.189 65.491 130.378L65.3277 130.765C65.2505 131.052 65.2505 131.339 65.3277 131.626L65.491 132.013C65.635 132.257 65.8287 132.45 66.0721 132.594Z" fill="#F3F3F3"/>
<path d="M99.7644 98.4012C102.689 94.7829 105.426 91.0097 107.916 87.0709C110.251 83.3769 112.655 79.4168 113.325 75.0083C113.923 71.0763 113.127 66.8357 110.372 63.8612C107.962 61.2602 104.072 60.2922 100.753 61.5423C98.9843 62.2088 97.3923 63.4367 96.5597 65.1887C95.3545 67.7248 95.7077 70.4654 96.1598 73.1394L99.8832 71.5502C98.5629 68.4949 96.8226 65.3034 93.4731 64.2204C90.3971 63.2258 86.8643 64.4739 84.6993 66.8053C82.1436 69.5573 81.5996 73.4608 82.2525 77.0601C82.9379 80.8385 85.1351 84.0809 87.4331 87.0436C90.3661 90.8248 93.4317 94.5064 96.4355 98.2301C97.1319 99.0935 98.5935 98.962 99.3164 98.2301C100.16 97.3764 100.015 96.1789 99.3164 95.3134C97.0466 92.4996 94.7768 89.6858 92.5071 86.872C90.5498 84.4456 88.5315 82.0264 87.1884 79.1789C86.0669 76.8014 85.5492 73.7871 86.5925 71.2863C87.3945 69.3639 89.4067 67.8552 91.4937 68.0051C94.1703 68.1973 95.4329 71.4746 96.3652 73.6321C96.7661 74.5598 98.0755 74.8469 98.9091 74.4759C99.8949 74.0372 100.265 73.0861 100.089 72.0428C99.833 70.5315 99.4835 68.7457 100.078 67.2706C100.448 66.3508 101.236 65.7368 102.066 65.4356C104.173 64.6706 106.47 65.3066 107.903 67.2715C112.029 72.9287 107.393 80.2692 104.297 85.1491C102.022 88.7347 99.5494 92.1867 96.8835 95.4845C96.1872 96.3457 96.0511 97.5585 96.8835 98.4012C97.602 99.1287 99.0641 99.2675 99.7644 98.4012Z" fill="#F3F3F3"/>
<path d="M197.553 110.371C195.523 111.223 193.777 112.394 191.967 113.632C190.326 114.754 188.716 115.758 186.718 116.052L189.614 118.948C189.96 116.684 190.307 114.421 190.653 112.157C190.815 111.101 190.977 110.044 191.138 108.988C191.317 107.819 191.06 107.113 190.455 106.129C188.371 102.742 185.642 99.899 182.455 97.54L181.267 101.926C183.463 101.88 185.666 101.627 187.812 101.151C188.783 100.936 189.743 100.672 190.688 100.359C191.695 100.026 192.972 99.7082 193.758 98.976C194.489 98.2951 194.752 97.3153 195.118 96.4133L196.343 93.3939L198.967 86.9239L194.665 87.4861C196.879 90.4837 198.729 93.7425 200.056 97.2281C200.43 98.2105 201.219 98.9562 202.326 98.9562C203.319 98.9562 204.377 98.2308 204.595 97.2281L204.655 96.9562L202.385 98.6842L214.652 100.105L212.988 96.0873C211.372 97.7853 209.756 99.4832 208.139 101.181C207.385 101.974 206.631 102.766 205.877 103.558C205.265 104.201 204.501 104.826 204.276 105.721C204.023 106.729 204.15 107.982 204.187 109.013C204.225 110.049 204.31 111.083 204.435 112.112C204.711 114.388 205.159 116.618 205.82 118.813L208.715 115.918C206.993 115.342 205.353 114.615 203.774 113.716C202.505 112.994 200.764 112.136 199.843 110.976C199.052 109.98 197.341 110.149 196.514 110.976C195.53 111.96 195.721 113.306 196.514 114.305C197.063 114.996 197.982 115.532 198.693 116.044C199.563 116.671 200.467 117.251 201.398 117.781C203.32 118.875 205.368 119.756 207.464 120.457C209.164 121.027 210.859 119.222 210.359 117.562C209.801 115.71 209.351 113.814 209.116 111.892C209 110.936 208.929 109.974 208.895 109.013C208.879 108.569 208.871 108.124 208.872 107.68C208.873 107.383 208.877 107.087 208.885 106.791C208.829 106.939 208.814 106.964 208.841 106.867L208.236 107.906C210.93 105.076 213.623 102.246 216.317 99.416C217.836 97.8202 216.62 95.6259 214.652 95.3979L202.385 93.9767C201.419 93.8648 200.316 94.7835 200.115 95.7048L200.056 95.9767H204.595C203.119 92.0978 201.197 88.4515 198.73 85.1102C197.465 83.3967 195.216 83.7304 194.428 85.6724L190.054 96.4558L190.659 95.4172L190.395 95.6816L191.434 95.0763C188.176 96.3995 184.785 97.1443 181.267 97.2187C178.774 97.2714 178.275 100.269 180.079 101.605C182.869 103.67 185.153 106.336 186.881 109.335L186.644 107.521C185.945 110.865 185.591 114.319 185.074 117.696C184.785 119.585 186.089 120.869 187.97 120.592C192.256 119.959 194.981 116.516 198.804 114.91C199.975 114.418 200.816 113.353 200.448 112.015C200.145 110.91 198.732 109.875 197.553 110.371Z" fill="#F3F3F3"/>
<path d="M127.418 -11.4707C118.295 -11.3282 109.166 -11.2808 100.046 -11.041C98.1369 -10.9908 96.1163 -10.7802 94.5087 -9.65008C92.8883 -8.51105 91.8535 -6.7091 91.4077 -4.79747C90.9141 -2.68025 90.9815 -0.440002 91.0412 1.71905C91.0982 3.78333 91.3378 5.83901 92.1707 7.74437C92.9299 9.48097 94.2218 11.0332 95.948 11.8635C97.8005 12.7546 99.8699 12.8435 101.888 12.9156C106.386 13.0764 110.891 13.0073 115.381 12.709C119.262 12.4512 123.368 12.269 127.12 11.1612C130.713 10.1005 133.592 7.90354 134.859 4.28263C135.584 2.21202 135.776 -0.0806119 135.946 -2.25564C136.117 -4.42543 135.935 -6.72562 134.596 -8.52695C133.336 -10.2212 131.368 -11.2602 129.305 -11.5964C126.888 -11.9904 124.316 -12.2154 121.905 -11.7001C119.789 -11.2479 120.685 -7.99711 122.799 -8.44904C124.594 -8.83254 126.56 -8.59125 128.363 -8.34578C129.627 -8.17365 130.968 -7.69769 131.797 -6.67295C132.728 -5.5232 132.696 -3.93157 132.603 -2.53419C132.496 -0.915355 132.329 0.738717 131.933 2.3147C131.566 3.77656 130.939 5.08599 129.801 6.09808C128.825 6.96575 127.58 7.49984 126.344 7.87533C123.143 8.84764 119.681 9.02328 116.367 9.26831C112.481 9.55561 108.582 9.67108 104.686 9.61439C102.897 9.58835 101.036 9.64221 99.2634 9.37142C97.7999 9.14785 96.5391 8.55412 95.7228 7.27919C94.8943 5.98531 94.5713 4.47293 94.4624 2.95579C94.3301 1.11167 94.2934 -0.808497 94.4529 -2.6515C94.577 -4.08653 95.0052 -5.70429 96.1456 -6.67603C97.2772 -7.6402 98.9152 -7.64701 100.321 -7.67539C109.352 -7.85769 118.386 -7.95804 127.418 -8.09919C129.58 -8.13299 129.587 -11.5046 127.418 -11.4707Z" fill="#F3F3F3"/>
<path d="M103.189 1.96305C104.524 2.16152 105.763 1.86895 106.788 0.955803C107.638 0.197642 108.148 -0.958022 108.088 -2.10224C107.951 -4.7487 105.389 -6.61517 102.837 -5.86751C100.291 -5.12142 99.1463 -2.62227 98.9038 -0.168593C98.6631 2.2669 99.5145 4.75066 101.514 6.22541C103.708 7.84371 106.883 7.35506 108.383 5.05481C108.865 4.31516 108.555 3.15909 107.78 2.74837C106.94 2.30362 105.993 2.56375 105.478 3.35314C105.46 3.38196 105.329 3.56011 105.456 3.3993C105.592 3.22659 105.408 3.43985 105.37 3.47784C105.323 3.52438 105.272 3.56591 105.225 3.61244C105.247 3.59062 105.459 3.46661 105.301 3.54693C105.163 3.6166 105.035 3.70459 104.895 3.77271C104.925 3.75815 105.16 3.69213 104.986 3.72395C104.879 3.74341 104.768 3.78399 104.663 3.81308C104.357 3.89734 104.895 3.82242 104.578 3.82298C104.522 3.82308 104.04 3.81033 104.266 3.82949C104.482 3.84774 104.268 3.82886 104.226 3.81714C104.133 3.79174 104.04 3.76726 103.947 3.74324C103.924 3.73712 103.693 3.662 103.879 3.72844C104.062 3.79349 103.79 3.68231 103.755 3.66376C103.605 3.58463 103.469 3.4913 103.327 3.39998C103.58 3.56311 103.255 3.32773 103.171 3.24495C103.067 3.14268 102.974 3.03205 102.876 2.92448C102.711 2.74332 102.991 3.13431 102.877 2.91722C102.833 2.83277 102.77 2.75419 102.722 2.67171C102.633 2.52115 102.549 2.36477 102.481 2.2036C102.58 2.43961 102.445 2.06435 102.423 1.99212C102.368 1.80909 102.323 1.62292 102.287 1.43526C102.271 1.35475 102.256 1.27387 102.244 1.19267C102.28 1.43875 102.251 1.17928 102.244 1.06793C102.221 0.710882 102.225 0.352301 102.253 -0.00435925C102.261 -0.111446 102.323 -0.487924 102.268 -0.191634C102.306 -0.396238 102.341 -0.600082 102.392 -0.802164C102.436 -0.978191 102.488 -1.15215 102.547 -1.32343C102.573 -1.39646 102.599 -1.4698 102.628 -1.54137C102.598 -1.46902 102.497 -1.28476 102.649 -1.56037C102.723 -1.69535 102.799 -1.82773 102.879 -1.95944C102.887 -1.97255 103.033 -2.17879 102.927 -2.03809C102.809 -1.88159 103.063 -2.18535 103.092 -2.21388C103.169 -2.2918 103.432 -2.48102 103.205 -2.3335C103.352 -2.42902 103.501 -2.51032 103.653 -2.59752C103.818 -2.69248 103.622 -2.57892 103.591 -2.57113C103.683 -2.59449 103.781 -2.62668 103.873 -2.6546C103.903 -2.66375 104.141 -2.70024 103.937 -2.67459C103.708 -2.64573 104.143 -2.66995 104.148 -2.66995C104.451 -2.66991 103.986 -2.7396 104.275 -2.63764C104.315 -2.62358 104.504 -2.53595 104.321 -2.6284C104.118 -2.73101 104.362 -2.58294 104.411 -2.56203C104.567 -2.49588 104.364 -2.60467 104.336 -2.63163C104.384 -2.58589 104.434 -2.54364 104.481 -2.49684C104.52 -2.45781 104.696 -2.24147 104.565 -2.41731C104.438 -2.58705 104.599 -2.34864 104.619 -2.31431C104.653 -2.25694 104.68 -2.19607 104.713 -2.13898C104.543 -2.42925 104.675 -2.21988 104.705 -2.10806C104.723 -2.04416 104.734 -1.97941 104.75 -1.91531C104.697 -2.12363 104.692 -2.11135 104.729 -1.90491C104.759 -1.73761 104.751 -1.98269 104.761 -2.02482C104.742 -1.93806 104.72 -1.85295 104.7 -1.76668C104.667 -1.62948 104.563 -1.59128 104.72 -1.80372C104.671 -1.73814 104.622 -1.65022 104.585 -1.57764C104.599 -1.60465 104.778 -1.7788 104.645 -1.65977C104.564 -1.58806 104.485 -1.5053 104.409 -1.42824C104.433 -1.45192 104.643 -1.5704 104.485 -1.49368C104.391 -1.44832 104.285 -1.38302 104.197 -1.32957C104.225 -1.34641 104.467 -1.40951 104.293 -1.37583C104.213 -1.36031 104.117 -1.33302 104.039 -1.30653C103.822 -1.23242 104.323 -1.29034 104.096 -1.31732C104.007 -1.32787 103.683 -1.3476 104.083 -1.28805C103.217 -1.41692 102.233 -1.07204 102.014 -0.11065C101.832 0.690141 102.258 1.82464 103.189 1.96305Z" fill="#F3F3F3"/>
<path d="M115.481 -5.67836C113.936 -6.02617 112.093 -6.31263 110.726 -5.28615C109.374 -4.27074 108.639 -2.40365 109.592 -0.852621C110.047 -0.113111 110.826 0.354676 111.65 0.567136C112.199 0.708591 112.762 0.767316 113.309 0.918118C113.49 0.967908 113.154 0.869278 113.162 0.856135C113.166 0.8483 113.329 0.950997 113.354 0.963229C113.506 1.03876 113.41 0.953059 113.364 0.957004L113.282 0.890937C113.325 0.925455 113.366 0.961677 113.406 0.999607C113.44 1.03365 113.684 1.24223 113.671 1.28059C113.655 1.32504 113.509 0.970619 113.571 1.16235C113.594 1.23078 113.677 1.3423 113.714 1.39981C113.818 1.55883 113.744 1.40394 113.725 1.39867L113.685 1.29877C113.706 1.35019 113.725 1.40231 113.742 1.45515C113.752 1.48966 113.839 1.82968 113.839 1.82968C113.812 1.82705 113.83 1.47123 113.815 1.65484C113.811 1.70733 113.823 1.76674 113.824 1.81978C113.824 1.80218 113.818 2.0398 113.818 2.0398C113.788 2.02884 113.908 1.64993 113.833 1.9191C113.814 1.98782 113.793 2.06344 113.778 2.13377C113.718 2.40663 113.805 2.02567 113.827 2.04024C113.914 2.09803 113.403 2.52758 113.667 2.3351C113.83 2.21588 113.707 2.28764 113.658 2.33367C113.593 2.39379 113.515 2.45841 113.46 2.52617C113.337 2.67922 113.582 2.40351 113.585 2.43592C113.588 2.46676 113.377 2.57331 113.353 2.58709C113.306 2.61513 113.255 2.63886 113.208 2.66772C112.955 2.82268 113.438 2.61635 113.254 2.65096C113.12 2.67616 112.957 2.72378 112.828 2.76537C112.652 2.82207 112.995 2.72093 113.003 2.74173C113.003 2.74173 112.756 2.74667 112.728 2.74819C112.713 2.749 112.568 2.7311 112.564 2.73858C112.81 2.77651 112.869 2.78233 112.739 2.75606C112.685 2.74527 112.631 2.7319 112.578 2.71595C111.728 2.49012 110.712 2.99996 110.509 3.89335C110.308 4.77732 110.774 5.72512 111.684 5.96704C113.18 6.36484 114.751 5.91488 115.88 4.87356C117.004 3.83759 117.41 2.23771 117.047 0.771482C116.681 -0.705535 115.538 -1.91293 114.097 -2.36874C113.555 -2.53989 112.979 -2.55553 112.435 -2.71355C112.385 -2.72803 112.326 -2.75849 112.275 -2.76515C112.055 -2.79389 112.584 -2.65703 112.378 -2.72792C112.367 -2.73154 112.239 -2.81 112.24 -2.81206C112.253 -2.83456 112.557 -2.52566 112.336 -2.76393C112.333 -2.76646 112.536 -2.49288 112.441 -2.64445C112.344 -2.79924 112.511 -2.47482 112.509 -2.47863C112.409 -2.75596 112.554 -2.35822 112.519 -2.33093C112.523 -2.33437 112.53 -2.52745 112.525 -2.53627C112.54 -2.50964 112.49 -2.14296 112.527 -2.39646C112.566 -2.66762 112.52 -2.2736 112.477 -2.29386C112.47 -2.29724 112.573 -2.46095 112.586 -2.48453C112.728 -2.75306 112.444 -2.28391 112.562 -2.44861C112.569 -2.45804 112.676 -2.56914 112.68 -2.56612C112.67 -2.57378 112.343 -2.34093 112.649 -2.53312C112.67 -2.54596 112.77 -2.61834 112.793 -2.61219L112.626 -2.53742C112.693 -2.56129 112.762 -2.58153 112.831 -2.59815C112.9 -2.61602 112.97 -2.62909 113.039 -2.64442C112.807 -2.59335 112.909 -2.62801 113.088 -2.63347C113.282 -2.63939 113.472 -2.61686 113.665 -2.61224C113.86 -2.60759 113.608 -2.62325 113.581 -2.62752C113.702 -2.6082 113.823 -2.58756 113.943 -2.56452C114.159 -2.52327 114.373 -2.47549 114.587 -2.42729C115.444 -2.23445 116.448 -2.68796 116.656 -3.60469C116.85 -4.46017 116.399 -5.47165 115.481 -5.67836Z" fill="#F3F3F3"/>
<path d="M123.289 -5.94961C121.667 -5.76813 120.17 -5.06109 119.129 -3.76912C118.02 -2.39288 117.559 -0.759439 117.831 0.991946C118.077 2.57391 119.04 3.96926 120.305 4.91057C121.751 5.98687 123.556 6.09122 125.294 6.05236C126.173 6.0327 127.017 5.29107 126.976 4.3666C126.935 3.47011 126.236 2.65975 125.294 2.68084C124.923 2.68912 124.552 2.69773 124.182 2.6878C124.023 2.68355 123.865 2.67684 123.707 2.66469C123.66 2.66111 123.185 2.57667 123.528 2.65039C123.374 2.61724 123.219 2.5918 123.066 2.55132C123.015 2.53769 122.49 2.37799 122.739 2.4581C122.982 2.53621 122.556 2.36236 122.505 2.33332C122.399 2.27389 122.3 2.20562 122.198 2.14167C121.867 1.93539 122.44 2.37751 122.156 2.1097C122.068 2.02657 121.977 1.94746 121.892 1.86077C121.86 1.82841 121.527 1.4773 121.705 1.66614C121.875 1.8473 121.586 1.48984 121.555 1.44123C121.49 1.33853 121.429 1.23325 121.373 1.12569C121.317 1.01919 121.112 0.76766 121.34 1.0875C121.209 0.903552 121.159 0.547943 121.116 0.333912C121.103 0.274755 121.093 0.215275 121.083 0.155484C121.112 0.384229 121.12 0.433602 121.108 0.303596C121.106 0.162416 121.091 0.0222751 121.094 -0.119477C121.096 -0.228 121.079 -0.38406 121.119 -0.482744C121.087 -0.255719 121.083 -0.206273 121.106 -0.334411C121.117 -0.393965 121.13 -0.453136 121.145 -0.511909C121.174 -0.629737 121.217 -0.743041 121.247 -0.859891C121.332 -1.18272 121.096 -0.571531 121.287 -0.958703C121.388 -1.16241 121.523 -1.47389 121.697 -1.6297C121.395 -1.35884 121.676 -1.58981 121.743 -1.66285C121.825 -1.75239 121.91 -1.83857 121.999 -1.92127C122.058 -1.97642 122.119 -2.02998 122.181 -2.08194C122.014 -1.95763 121.98 -1.93195 122.08 -2.00488C122.197 -2.08405 122.311 -2.16636 122.433 -2.2389C122.537 -2.30086 122.645 -2.35389 122.752 -2.41138C123.096 -2.5971 122.421 -2.31571 122.795 -2.42827C122.911 -2.46308 123.024 -2.50373 123.141 -2.53374C123.245 -2.56031 123.781 -2.63304 123.289 -2.57809C124.161 -2.67555 125.015 -3.28356 124.971 -4.26385C124.934 -5.09334 124.226 -6.05434 123.289 -5.94961Z" fill="#F3F3F3"/>
<path d="M146.867 39.0306C144.402 41.6849 141.936 44.3391 139.471 46.9933C138.569 47.9651 139.046 49.2903 140.197 49.7422C143.237 50.9357 145.985 52.7981 148.281 55.1107C149.775 56.6149 152.101 54.2892 150.607 52.7848C147.891 50.0498 144.653 47.9767 141.071 46.5703L141.797 49.3192C144.262 46.665 146.728 44.0108 149.193 41.3565C150.632 39.807 148.311 37.4756 146.867 39.0306Z" fill="#F3F3F3"/>
<path d="M166.807 41.3565C169.272 44.0108 171.738 46.665 174.203 49.3192C174.445 48.4029 174.687 47.4866 174.929 46.5703C171.347 47.9767 168.109 50.0498 165.393 52.7848C163.9 54.2885 166.225 56.6155 167.719 55.1107C170.015 52.798 172.763 50.9357 175.803 49.7422C176.954 49.2903 177.431 47.9651 176.529 46.9933C174.064 44.3391 171.598 41.6849 169.133 39.0306C167.689 37.4762 165.367 39.8064 166.807 41.3565Z" fill="#F3F3F3"/>
<path d="M155.243 59.9311C158.477 51.6489 161.711 43.3668 164.944 35.0846C165.267 34.257 164.589 33.2795 163.796 33.0615C162.864 32.8055 162.097 33.3795 161.772 34.2102C158.539 42.4924 155.305 50.7745 152.071 59.0567C151.748 59.8843 152.427 60.8618 153.22 61.0798C154.151 61.3358 154.919 60.7618 155.243 59.9311Z" fill="#F3F3F3"/>
<path d="M0.115961 160C-7.6618 160.005 -14.9378 164.981 -17.7773 172.21C-20.5822 179.353 -18.4387 188.304 -12.6035 193.312C-6.67609 198.398 2.20658 199.556 9.09734 195.745C15.9073 191.978 19.9009 184.088 18.8174 176.391C18.1829 171.884 15.8715 167.529 12.3436 164.621C8.67005 161.594 3.95077 159.962 -0.819136 160.254C-3.05839 160.391 -3.07395 163.894 -0.819136 163.756C6.25755 163.324 12.8094 167.771 14.8538 174.597C16.7094 180.793 14.3787 187.55 9.25726 191.473C4.15815 195.379 -2.99578 195.422 -8.39488 192.086C-13.8423 188.72 -16.5105 181.825 -15.1498 175.616C-13.6167 168.62 -7.00634 163.507 0.115961 163.502C2.36944 163.501 2.37329 159.999 0.115961 160Z" fill="#F3F3F3"/>
<path d="M-9.0425 185.381C-6.7073 187.76 -3.46823 189.109 -0.143444 189.203C3.34422 189.301 6.66054 187.87 9.0811 185.381C10.6531 183.764 8.17918 181.285 6.60463 182.904C4.7913 184.769 2.44458 185.774 -0.143444 185.701C-2.54284 185.633 -4.8724 184.63 -6.56603 182.904C-8.14726 181.293 -10.6231 183.77 -9.0425 185.381Z" fill="#F3F3F3"/>
<path d="M-5.92413 171.264C-6.28134 171.355 -6.56909 171.542 -6.83425 171.791C-6.95774 171.908 -7.06699 172.05 -7.14867 172.2C-7.19265 172.28 -7.21587 172.349 -7.25633 172.445C-7.28521 172.513 -7.33917 172.619 -7.36344 172.706C-7.41271 172.882 -7.44172 173.071 -7.43876 173.253C-7.43846 173.271 -7.43719 173.289 -7.4361 173.307C-7.42869 173.435 -7.40333 173.678 -7.36867 173.8C-7.32315 173.96 -7.24462 174.141 -7.16742 174.287C-7.08159 174.449 -6.96026 174.596 -6.83535 174.729C-6.68567 174.888 -6.50521 175.032 -6.30639 175.124C-6.15093 175.196 -5.98243 175.283 -5.81443 175.324C-5.72505 175.346 -5.61908 175.353 -5.53627 175.365C-5.44619 175.377 -5.33454 175.399 -5.23588 175.401C-4.99572 175.407 -4.74436 175.372 -4.51603 175.295C-4.31549 175.227 -4.05835 175.129 -3.86775 175.002C-3.49625 174.754 -3.12817 174.435 -2.93357 174.023C-2.76047 173.656 -2.65514 173.368 -2.65971 172.951C-2.66062 172.868 -2.68906 172.718 -2.69345 172.686C-2.70355 172.61 -2.71229 172.493 -2.73355 172.405C-2.77709 172.223 -2.85742 172.042 -2.94981 171.883C-2.96066 171.865 -2.97218 171.848 -2.98399 171.83C-3.06351 171.71 -3.18113 171.557 -3.27757 171.451C-3.39706 171.319 -3.57298 171.204 -3.7005 171.11C-3.73108 171.087 -3.76066 171.066 -3.79444 171.048C-3.87418 171.006 -3.97001 170.971 -4.04704 170.939C-4.13279 170.902 -4.2294 170.854 -4.32337 170.826C-4.78381 170.691 -5.3297 170.713 -5.78721 170.846C-5.83087 170.859 -5.87322 170.875 -5.91552 170.891C-6.08634 170.958 -6.26322 171.025 -6.42597 171.111C-6.46082 171.13 -6.49456 171.15 -6.52694 171.173C-6.67923 171.278 -6.83664 171.394 -6.97352 171.52C-7.00697 171.55 -7.03616 171.584 -7.06492 171.619C-7.17568 171.753 -7.29708 171.893 -7.38605 172.044C-7.50388 172.244 -7.60371 172.47 -7.64948 172.7C-7.67993 172.852 -7.70534 173.044 -7.71646 173.199C-7.71807 173.221 -7.71988 173.243 -7.71972 173.266C-7.71844 173.443 -7.68338 173.641 -7.64995 173.814C-7.62789 173.929 -7.57866 174.022 -7.53174 174.133C-7.48667 174.24 -7.45041 174.348 -7.3883 174.445C-7.19903 174.742 -7.07069 174.869 -6.81802 175.064C-6.54169 175.278 -6.39865 175.349 -6.04295 175.483C-5.89818 175.538 -5.76275 175.55 -5.60605 175.571C-5.42657 175.595 -5.27421 175.621 -5.09708 175.601C-4.85961 175.574 -4.61344 175.554 -4.38386 175.481C-4.14582 175.405 -3.91641 175.298 -3.68879 175.197C-3.52556 175.124 -3.36217 175.046 -3.21569 174.943C-3.04116 174.82 -2.85798 174.693 -2.70616 174.54C-2.62907 174.463 -2.56545 174.37 -2.49972 174.285C-2.43452 174.201 -2.35106 174.109 -2.29966 174.01C-2.11283 173.65 -2.02607 173.337 -2.00236 172.932C-1.98865 172.698 -2.01986 172.45 -2.10154 172.23C-2.2451 171.844 -2.38015 171.589 -2.66821 171.282C-2.8258 171.114 -3.01834 170.965 -3.22199 170.857C-3.41847 170.753 -3.63959 170.645 -3.8631 170.602C-4.05481 170.565 -4.25898 170.534 -4.45447 170.525C-4.51401 170.522 -4.57366 170.524 -4.63293 170.53C-4.89291 170.557 -5.15982 170.583 -5.41205 170.657C-5.53519 170.694 -5.65529 170.739 -5.77512 170.785C-6.003 170.839 -6.20151 170.943 -6.37063 171.098C-6.56127 171.222 -6.7116 171.385 -6.82164 171.589C-6.94961 171.79 -7.01888 172.007 -7.02945 172.24C-7.08157 172.473 -7.07115 172.706 -6.99817 172.939C-6.86105 173.362 -6.59847 173.771 -6.19342 173.985L-5.77511 174.162C-5.46476 174.245 -5.15442 174.245 -4.84407 174.162C-4.64255 174.085 -4.44035 174.011 -4.22662 173.977L-4.69214 174.04C-4.58577 174.025 -4.4816 174.022 -4.37482 174.034L-4.84035 173.971C-4.76645 173.982 -4.69764 174.002 -4.62855 174.03L-5.04686 173.854C-4.98867 173.88 -4.93493 173.912 -4.88302 173.949L-5.23742 173.675C-5.18808 173.714 -5.14456 173.756 -5.10481 173.805L-5.37863 173.45C-5.34828 173.491 -5.32329 173.533 -5.30217 173.579L-5.47869 173.161C-5.46403 173.199 -5.45331 173.236 -5.44569 173.276L-5.50824 172.81C-5.50174 172.862 -5.50194 172.91 -5.50828 172.961L-5.44573 172.496C-5.45283 172.535 -5.46277 172.571 -5.47629 172.608L-5.29976 172.19C-5.32294 172.244 -5.35173 172.293 -5.38692 172.34L-5.1131 171.986C-5.16461 172.05 -5.22285 172.105 -5.28704 172.155L-4.93264 171.882C-5.11383 172.019 -5.32144 172.115 -5.52932 172.204L-5.11101 172.028C-5.25737 172.088 -5.40567 172.137 -5.56262 172.161L-5.0971 172.099C-5.18987 172.11 -5.28059 172.112 -5.37331 172.1L-4.90778 172.163C-4.97853 172.151 -5.04526 172.133 -5.11193 172.106L-4.69361 172.283C-4.75842 172.254 -4.81703 172.22 -4.87317 172.177L-4.51876 172.451C-4.55654 172.419 -4.58995 172.385 -4.62095 172.347L-4.34714 172.701C-4.37628 172.661 -4.39971 172.62 -4.41939 172.575L-4.24287 172.993C-4.25808 172.951 -4.26843 172.911 -4.27548 172.867L-4.21293 173.332C-4.21851 173.276 -4.21728 173.222 -4.20979 173.165L-4.27234 173.631C-4.26176 173.574 -4.24603 173.522 -4.22436 173.469L-4.40089 173.887C-4.37657 173.835 -4.34848 173.787 -4.31466 173.741L-4.58848 174.095C-4.54566 174.042 -4.49873 173.996 -4.44568 173.953L-4.80009 174.226C-4.72712 174.172 -4.64983 174.128 -4.5662 174.092L-4.9845 174.269C-4.88389 174.229 -4.78112 174.201 -4.67411 174.184L-5.13963 174.247C-5.06041 174.237 -4.98338 174.235 -4.90386 174.243L-5.36938 174.18C-5.30613 174.19 -5.24672 174.204 -5.18726 174.227L-5.60557 174.051C-5.55586 174.074 -5.51144 174.101 -5.46818 174.134L-5.82259 173.86C-5.78986 173.888 -5.76126 173.918 -5.7343 173.952L-6.00812 173.598C-5.98965 173.624 -5.97433 173.65 -5.95977 173.679L-6.1363 173.261C-6.11955 173.301 -6.10871 173.34 -6.10192 173.384L-6.16447 172.918C-6.16194 172.951 -6.16198 172.982 -6.16459 173.015L-6.10204 172.549C-6.10865 172.592 -6.11917 172.632 -6.13424 172.673L-5.95771 172.255C-5.98019 172.306 -6.0072 172.353 -6.03974 172.398L-5.76593 172.044C-5.81591 172.107 -5.87134 172.162 -5.93463 172.212L-5.58023 171.938C-5.65824 171.996 -5.74108 172.043 -5.83043 172.081L-5.41212 171.904C-5.47088 171.927 -5.52911 171.943 -5.59091 171.954L-5.12539 171.892C-5.18558 171.899 -5.24335 171.901 -5.30355 171.894L-4.83803 171.956C-4.8793 171.949 -4.91781 171.938 -4.95708 171.923L-4.53877 172.1C-4.57698 172.083 -4.61166 172.064 -4.64605 172.04L-4.29165 172.314C-4.32406 172.288 -4.35181 172.261 -4.37807 172.229L-4.10425 172.583C-4.12218 172.558 -4.13638 172.534 -4.14991 172.505L-3.97338 172.924C-3.98396 172.896 -3.99112 172.871 -3.99643 172.842L-3.93388 173.307C-3.93646 173.279 -3.9366 173.253 -3.93444 173.225L-3.99699 173.691C-3.99114 173.653 -3.98177 173.62 -3.96747 173.585L-4.144 174.003C-4.13132 173.978 -4.11819 173.957 -4.10161 173.934L-4.37542 174.288C-4.35713 174.267 -4.33958 174.25 -4.31777 174.233L-4.67217 174.507C-4.65776 174.496 -4.64243 174.488 -4.62619 174.48L-5.0445 174.657C-5.02798 174.65 -5.01085 174.644 -4.99313 174.641C-4.76525 174.587 -4.56674 174.482 -4.39762 174.327C-4.20698 174.204 -4.05664 174.04 -3.9466 173.836C-3.81864 173.635 -3.74937 173.418 -3.7388 173.185C-3.68667 172.952 -3.6971 172.719 -3.77007 172.487C-3.9072 172.063 -4.16977 171.654 -4.57483 171.44C-4.99631 171.217 -5.45505 171.144 -5.92413 171.264Z" fill="#F3F3F3"/>
<path d="M3.94809 171.264C3.59088 171.355 3.30313 171.542 3.03797 171.791C2.91447 171.908 2.80522 172.05 2.72354 172.2C2.67956 172.28 2.65635 172.349 2.61588 172.445C2.58701 172.513 2.53304 172.619 2.50877 172.706C2.45951 172.882 2.4305 173.071 2.43346 173.253C2.43376 173.271 2.43503 173.289 2.43611 173.307C2.44352 173.435 2.46888 173.678 2.50355 173.8C2.54907 173.96 2.6276 174.141 2.70479 174.287C2.79063 174.449 2.91195 174.596 3.03687 174.729C3.18655 174.888 3.36701 175.032 3.56582 175.124C3.72128 175.196 3.88979 175.283 4.05779 175.324C4.14716 175.346 4.25314 175.353 4.33594 175.365C4.42603 175.377 4.53767 175.399 4.63633 175.401C4.8765 175.407 5.12785 175.372 5.35619 175.295C5.55673 175.227 5.81387 175.129 6.00447 175.002C6.37596 174.754 6.74405 174.435 6.93864 174.023C7.11175 173.656 7.21708 173.368 7.21251 172.951C7.2116 172.868 7.18315 172.718 7.17876 172.686C7.16866 172.61 7.15992 172.493 7.13866 172.405C7.09513 172.223 7.0148 172.042 6.92241 171.883C6.91156 171.865 6.90004 171.848 6.88822 171.83C6.80871 171.71 6.69109 171.557 6.59464 171.451C6.47516 171.319 6.29923 171.204 6.17171 171.11C6.14113 171.087 6.11155 171.066 6.07778 171.048C5.99803 171.006 5.90221 170.971 5.82517 170.939C5.73942 170.902 5.64282 170.854 5.54885 170.826C5.0884 170.691 4.54252 170.713 4.08501 170.846C4.04135 170.859 3.99899 170.875 3.95669 170.891C3.78587 170.958 3.609 171.025 3.44624 171.111C3.4114 171.13 3.37766 171.15 3.34527 171.173C3.19299 171.278 3.03558 171.394 2.89869 171.52C2.86525 171.55 2.83606 171.584 2.80729 171.619C2.69654 171.753 2.57513 171.893 2.48617 172.044C2.36834 172.244 2.26851 172.47 2.22273 172.7C2.19229 172.852 2.16687 173.044 2.15576 173.199C2.15415 173.221 2.15233 173.243 2.1525 173.266C2.15378 173.443 2.18883 173.641 2.22227 173.814C2.24432 173.929 2.29355 174.022 2.34047 174.133C2.38554 174.24 2.4218 174.348 2.48392 174.445C2.67319 174.742 2.80153 174.869 3.0542 175.064C3.33052 175.278 3.47357 175.349 3.82926 175.483C3.97404 175.538 4.10947 175.55 4.26616 175.571C4.44565 175.595 4.59801 175.621 4.77514 175.601C5.01261 175.574 5.25878 175.554 5.48836 175.481C5.7264 175.405 5.95581 175.298 6.18343 175.197C6.34665 175.124 6.51004 175.046 6.65653 174.943C6.83106 174.82 7.01423 174.693 7.16606 174.54C7.24315 174.463 7.30676 174.37 7.37249 174.285C7.43769 174.201 7.52116 174.109 7.57256 174.01C7.75938 173.65 7.84614 173.337 7.86986 172.932C7.88357 172.698 7.85236 172.45 7.77068 172.23C7.62712 171.844 7.49207 171.589 7.20401 171.282C7.04642 171.114 6.85388 170.965 6.65022 170.857C6.45375 170.753 6.23263 170.645 6.00911 170.602C5.81741 170.565 5.61323 170.534 5.41775 170.525C5.35821 170.522 5.29856 170.524 5.23928 170.53C4.97931 170.557 4.7124 170.583 4.46016 170.657C4.33703 170.694 4.21692 170.739 4.0971 170.785C3.86922 170.839 3.67071 170.943 3.50159 171.098C3.31095 171.222 3.16061 171.385 3.05057 171.589C2.92261 171.79 2.85334 172.007 2.84277 172.24C2.79064 172.473 2.80107 172.706 2.87404 172.939C3.01116 173.362 3.27374 173.771 3.67879 173.985L4.0971 174.162C4.40745 174.245 4.7178 174.245 5.02814 174.162C5.22966 174.085 5.43186 174.011 5.64559 173.977L5.18007 174.04C5.28644 174.025 5.39061 174.022 5.49739 174.034L5.03187 173.971C5.10577 173.982 5.17457 174.002 5.24367 174.03L4.82536 173.854C4.88354 173.88 4.93728 173.912 4.9892 173.949L4.63479 173.675C4.68414 173.714 4.72766 173.756 4.7674 173.805L4.49359 173.45C4.52394 173.491 4.54893 173.533 4.57005 173.579L4.39352 173.161C4.40818 173.199 4.4189 173.236 4.42653 173.276L4.36398 172.81C4.37048 172.862 4.37028 172.91 4.36393 172.961L4.42649 172.496C4.41938 172.535 4.40945 172.571 4.39593 172.608L4.57246 172.19C4.54927 172.244 4.52049 172.293 4.4853 172.34L4.75912 171.986C4.70761 172.05 4.64937 172.105 4.58517 172.155L4.93958 171.882C4.75839 172.019 4.55078 172.115 4.3429 172.204L4.76121 172.028C4.61484 172.088 4.46655 172.137 4.3096 172.161L4.77512 172.099C4.68235 172.11 4.59163 172.112 4.49891 172.1L4.96443 172.163C4.89368 172.151 4.82695 172.133 4.76029 172.106L5.1786 172.283C5.11379 172.254 5.05518 172.22 4.99905 172.177L5.35345 172.451C5.31567 172.419 5.28227 172.385 5.25127 172.347L5.52508 172.701C5.49594 172.661 5.4725 172.62 5.45282 172.575L5.62935 172.993C5.61414 172.951 5.60378 172.911 5.59674 172.867L5.65929 173.332C5.65371 173.276 5.65494 173.222 5.66242 173.165L5.59988 173.631C5.61045 173.574 5.62619 173.522 5.64786 173.469L5.47133 173.887C5.49565 173.835 5.52374 173.787 5.55755 173.741L5.28374 174.095C5.32656 174.042 5.37349 173.996 5.42653 173.953L5.07213 174.226C5.1451 174.172 5.22239 174.128 5.30602 174.092L4.88771 174.269C4.98833 174.229 5.0911 174.201 5.1981 174.184L4.73258 174.247C4.8118 174.237 4.88883 174.235 4.96836 174.243L4.50284 174.18C4.56608 174.19 4.6255 174.204 4.68496 174.227L4.26665 174.051C4.31636 174.074 4.36077 174.101 4.40403 174.134L4.04963 173.86C4.08236 173.888 4.11096 173.918 4.13791 173.952L3.8641 173.598C3.88256 173.624 3.89788 173.65 3.91244 173.679L3.73592 173.261C3.75266 173.301 3.76351 173.34 3.7703 173.384L3.70775 172.918C3.71027 172.951 3.71024 172.982 3.70762 173.015L3.77017 172.549C3.76357 172.592 3.75305 172.632 3.73797 172.673L3.9145 172.255C3.89203 172.306 3.86501 172.353 3.83247 172.398L4.10629 172.044C4.0563 172.107 4.00087 172.162 3.93758 172.212L4.29199 171.938C4.21398 171.996 4.13113 172.043 4.04179 172.081L4.4601 171.904C4.40134 171.927 4.3431 171.943 4.2813 171.954L4.74682 171.892C4.68664 171.899 4.62887 171.901 4.56866 171.894L5.03418 171.956C4.99292 171.949 4.9544 171.938 4.91513 171.923L5.33344 172.1C5.29523 172.083 5.26055 172.064 5.22616 172.04L5.58057 172.314C5.54816 172.288 5.5204 172.261 5.49415 172.229L5.76796 172.583C5.75004 172.558 5.73584 172.534 5.72231 172.505L5.89883 172.924C5.88826 172.896 5.8811 172.871 5.87579 172.842L5.93834 173.307C5.93575 173.279 5.93562 173.253 5.93778 173.225L5.87523 173.691C5.88108 173.653 5.89045 173.62 5.90475 173.585L5.72822 174.003C5.7409 173.978 5.75403 173.957 5.77061 173.934L5.4968 174.288C5.51509 174.267 5.53263 174.25 5.55445 174.233L5.20004 174.507C5.21446 174.496 5.22979 174.488 5.24603 174.48L4.82772 174.657C4.84424 174.65 4.86137 174.644 4.87909 174.641C5.10697 174.587 5.30547 174.482 5.4746 174.327C5.66523 174.204 5.81557 174.04 5.92561 173.836C6.05358 173.635 6.12285 173.418 6.13342 173.185C6.18554 172.952 6.17512 172.719 6.10214 172.487C5.96502 172.063 5.70244 171.654 5.29739 171.44C4.87591 171.217 4.41717 171.144 3.94809 171.264Z" fill="#F3F3F3"/>
<path d="M127.418 186.529C118.295 186.672 109.166 186.719 100.046 186.959C98.1369 187.009 96.1163 187.22 94.5087 188.35C92.8883 189.489 91.8535 191.291 91.4077 193.203C90.9141 195.32 90.9815 197.56 91.0412 199.719C91.0982 201.783 91.3378 203.839 92.1707 205.744C92.9299 207.481 94.2218 209.033 95.948 209.864C97.8005 210.755 99.8699 210.843 101.888 210.916C106.386 211.076 110.891 211.007 115.381 210.709C119.262 210.451 123.368 210.269 127.12 209.161C130.713 208.1 133.592 205.904 134.859 202.283C135.584 200.212 135.776 197.919 135.946 195.744C136.117 193.575 135.935 191.274 134.596 189.473C133.336 187.779 131.368 186.74 129.305 186.404C126.888 186.01 124.316 185.785 121.905 186.3C119.789 186.752 120.685 190.003 122.799 189.551C124.594 189.167 126.56 189.409 128.363 189.654C129.627 189.826 130.968 190.302 131.797 191.327C132.728 192.477 132.696 194.068 132.603 195.466C132.496 197.085 132.329 198.739 131.933 200.315C131.566 201.777 130.939 203.086 129.801 204.098C128.825 204.966 127.58 205.5 126.344 205.875C123.143 206.848 119.681 207.023 116.367 207.268C112.481 207.556 108.582 207.671 104.686 207.614C102.897 207.588 101.036 207.642 99.2634 207.371C97.7999 207.148 96.5391 206.554 95.7228 205.279C94.8943 203.985 94.5713 202.473 94.4624 200.956C94.3301 199.112 94.2934 197.192 94.4529 195.348C94.577 193.913 95.0052 192.296 96.1456 191.324C97.2772 190.36 98.9152 190.353 100.321 190.325C109.352 190.142 118.386 190.042 127.418 189.901C129.58 189.867 129.587 186.495 127.418 186.529Z" fill="#F3F3F3"/>
<path d="M103.189 199.963C104.524 200.162 105.763 199.869 106.788 198.956C107.638 198.198 108.148 197.042 108.088 195.898C107.951 193.251 105.389 191.385 102.837 192.132C100.291 192.879 99.1463 195.378 98.9038 197.831C98.6631 200.267 99.5145 202.751 101.514 204.225C103.708 205.844 106.883 205.355 108.383 203.055C108.865 202.315 108.555 201.159 107.78 200.748C106.94 200.304 105.993 200.564 105.478 201.353C105.46 201.382 105.329 201.56 105.456 201.399C105.592 201.227 105.408 201.44 105.37 201.478C105.323 201.524 105.272 201.566 105.225 201.612C105.247 201.591 105.459 201.467 105.301 201.547C105.163 201.617 105.035 201.705 104.895 201.773C104.925 201.758 105.16 201.692 104.986 201.724C104.879 201.743 104.768 201.784 104.663 201.813C104.357 201.897 104.895 201.822 104.578 201.823C104.522 201.823 104.04 201.81 104.266 201.829C104.482 201.848 104.268 201.829 104.226 201.817C104.133 201.792 104.04 201.767 103.947 201.743C103.924 201.737 103.693 201.662 103.879 201.728C104.062 201.793 103.79 201.682 103.755 201.664C103.605 201.585 103.469 201.491 103.327 201.4C103.58 201.563 103.255 201.328 103.171 201.245C103.067 201.143 102.974 201.032 102.876 200.924C102.711 200.743 102.991 201.134 102.877 200.917C102.833 200.833 102.77 200.754 102.722 200.672C102.633 200.521 102.549 200.365 102.481 200.204C102.58 200.44 102.445 200.064 102.423 199.992C102.368 199.809 102.323 199.623 102.287 199.435C102.271 199.355 102.256 199.274 102.244 199.193C102.28 199.439 102.251 199.179 102.244 199.068C102.221 198.711 102.225 198.352 102.253 197.996C102.261 197.889 102.323 197.512 102.268 197.808C102.306 197.604 102.341 197.4 102.392 197.198C102.436 197.022 102.488 196.848 102.547 196.677C102.573 196.604 102.599 196.53 102.628 196.459C102.598 196.531 102.497 196.715 102.649 196.44C102.723 196.305 102.799 196.172 102.879 196.041C102.887 196.027 103.033 195.821 102.927 195.962C102.809 196.118 103.063 195.815 103.092 195.786C103.169 195.708 103.432 195.519 103.205 195.667C103.352 195.571 103.501 195.49 103.653 195.402C103.818 195.308 103.622 195.421 103.591 195.429C103.683 195.406 103.781 195.373 103.873 195.345C103.903 195.336 104.141 195.3 103.937 195.325C103.708 195.354 104.143 195.33 104.148 195.33C104.451 195.33 103.986 195.26 104.275 195.362C104.315 195.376 104.504 195.464 104.321 195.372C104.118 195.269 104.362 195.417 104.411 195.438C104.567 195.504 104.364 195.395 104.336 195.368C104.384 195.414 104.434 195.456 104.481 195.503C104.52 195.542 104.696 195.759 104.565 195.583C104.438 195.413 104.599 195.651 104.619 195.686C104.653 195.743 104.68 195.804 104.713 195.861C104.543 195.571 104.675 195.78 104.705 195.892C104.723 195.956 104.734 196.021 104.75 196.085C104.697 195.876 104.692 195.889 104.729 196.095C104.759 196.262 104.751 196.017 104.761 195.975C104.742 196.062 104.72 196.147 104.7 196.233C104.667 196.371 104.563 196.409 104.72 196.196C104.671 196.262 104.622 196.35 104.585 196.422C104.599 196.395 104.778 196.221 104.645 196.34C104.564 196.412 104.485 196.495 104.409 196.572C104.433 196.548 104.643 196.43 104.485 196.506C104.391 196.552 104.285 196.617 104.197 196.67C104.225 196.654 104.467 196.59 104.293 196.624C104.213 196.64 104.117 196.667 104.039 196.693C103.822 196.768 104.323 196.71 104.096 196.683C104.007 196.672 103.683 196.652 104.083 196.712C103.217 196.583 102.233 196.928 102.014 197.889C101.832 198.69 102.258 199.825 103.189 199.963Z" fill="#F3F3F3"/>
<path d="M115.481 192.322C113.936 191.974 112.093 191.687 110.726 192.714C109.374 193.729 108.639 195.596 109.592 197.147C110.047 197.887 110.826 198.355 111.65 198.567C112.199 198.709 112.762 198.767 113.309 198.918C113.49 198.968 113.154 198.869 113.162 198.856C113.166 198.848 113.329 198.951 113.354 198.963C113.506 199.039 113.41 198.953 113.364 198.957L113.282 198.891C113.325 198.925 113.366 198.962 113.406 199C113.44 199.034 113.684 199.242 113.671 199.281C113.655 199.325 113.509 198.971 113.571 199.162C113.594 199.231 113.677 199.342 113.714 199.4C113.818 199.559 113.744 199.404 113.725 199.399L113.685 199.299C113.706 199.35 113.725 199.402 113.742 199.455C113.752 199.49 113.839 199.83 113.839 199.83C113.812 199.827 113.83 199.471 113.815 199.655C113.811 199.707 113.823 199.767 113.824 199.82C113.824 199.802 113.818 200.04 113.818 200.04C113.788 200.029 113.908 199.65 113.833 199.919C113.814 199.988 113.793 200.063 113.778 200.134C113.718 200.407 113.805 200.026 113.827 200.04C113.914 200.098 113.403 200.528 113.667 200.335C113.83 200.216 113.707 200.288 113.658 200.334C113.593 200.394 113.515 200.458 113.46 200.526C113.337 200.679 113.582 200.404 113.585 200.436C113.588 200.467 113.377 200.573 113.353 200.587C113.306 200.615 113.255 200.639 113.208 200.668C112.955 200.823 113.438 200.616 113.254 200.651C113.12 200.676 112.957 200.724 112.828 200.765C112.652 200.822 112.995 200.721 113.003 200.742C113.003 200.742 112.756 200.747 112.728 200.748C112.713 200.749 112.568 200.731 112.564 200.739C112.81 200.777 112.869 200.782 112.739 200.756C112.685 200.745 112.631 200.732 112.578 200.716C111.728 200.49 110.712 201 110.509 201.893C110.308 202.777 110.774 203.725 111.684 203.967C113.18 204.365 114.751 203.915 115.88 202.874C117.004 201.838 117.41 200.238 117.047 198.771C116.681 197.294 115.538 196.087 114.097 195.631C113.555 195.46 112.979 195.444 112.435 195.286C112.385 195.272 112.326 195.242 112.275 195.235C112.055 195.206 112.584 195.343 112.378 195.272C112.367 195.268 112.239 195.19 112.24 195.188C112.253 195.165 112.557 195.474 112.336 195.236C112.333 195.234 112.536 195.507 112.441 195.356C112.344 195.201 112.511 195.525 112.509 195.521C112.409 195.244 112.554 195.642 112.519 195.669C112.523 195.666 112.53 195.473 112.525 195.464C112.54 195.49 112.49 195.857 112.527 195.604C112.566 195.332 112.52 195.726 112.477 195.706C112.47 195.703 112.573 195.539 112.586 195.515C112.728 195.247 112.444 195.716 112.562 195.551C112.569 195.542 112.676 195.431 112.68 195.434C112.67 195.426 112.343 195.659 112.649 195.467C112.67 195.454 112.77 195.382 112.793 195.388L112.626 195.463C112.693 195.439 112.762 195.418 112.831 195.402C112.9 195.384 112.97 195.371 113.039 195.356C112.807 195.407 112.909 195.372 113.088 195.367C113.282 195.361 113.472 195.383 113.665 195.388C113.86 195.392 113.608 195.377 113.581 195.372C113.702 195.392 113.823 195.412 113.943 195.435C114.159 195.477 114.373 195.525 114.587 195.573C115.444 195.766 116.448 195.312 116.656 194.395C116.85 193.54 116.399 192.528 115.481 192.322Z" fill="#F3F3F3"/>
<path d="M123.289 192.05C121.667 192.232 120.17 192.939 119.129 194.231C118.02 195.607 117.559 197.241 117.831 198.992C118.077 200.574 119.04 201.969 120.305 202.911C121.751 203.987 123.556 204.091 125.294 204.052C126.173 204.033 127.017 203.291 126.976 202.367C126.935 201.47 126.236 200.66 125.294 200.681C124.923 200.689 124.552 200.698 124.182 200.688C124.023 200.684 123.865 200.677 123.707 200.665C123.66 200.661 123.185 200.577 123.528 200.65C123.374 200.617 123.219 200.592 123.066 200.551C123.015 200.538 122.49 200.378 122.739 200.458C122.982 200.536 122.556 200.362 122.505 200.333C122.399 200.274 122.3 200.206 122.198 200.142C121.867 199.935 122.44 200.378 122.156 200.11C122.068 200.027 121.977 199.947 121.892 199.861C121.86 199.828 121.527 199.477 121.705 199.666C121.875 199.847 121.586 199.49 121.555 199.441C121.49 199.339 121.429 199.233 121.373 199.126C121.317 199.019 121.112 198.768 121.34 199.087C121.209 198.904 121.159 198.548 121.116 198.334C121.103 198.275 121.093 198.215 121.083 198.155C121.112 198.384 121.12 198.434 121.108 198.304C121.106 198.162 121.091 198.022 121.094 197.881C121.096 197.772 121.079 197.616 121.119 197.517C121.087 197.744 121.083 197.794 121.106 197.666C121.117 197.606 121.13 197.547 121.145 197.488C121.174 197.37 121.217 197.257 121.247 197.14C121.332 196.817 121.096 197.428 121.287 197.041C121.388 196.838 121.523 196.526 121.697 196.37C121.395 196.641 121.676 196.41 121.743 196.337C121.825 196.248 121.91 196.161 121.999 196.079C122.058 196.024 122.119 195.97 122.181 195.918C122.014 196.042 121.98 196.068 122.08 195.995C122.197 195.916 122.311 195.834 122.433 195.761C122.537 195.699 122.645 195.646 122.752 195.589C123.096 195.403 122.421 195.684 122.795 195.572C122.911 195.537 123.024 195.496 123.141 195.466C123.245 195.44 123.781 195.367 123.289 195.422C124.161 195.324 125.015 194.716 124.971 193.736C124.934 192.907 124.226 191.946 123.289 192.05Z" fill="#F3F3F3"/>
<path d="M-0.447255 110.371C-2.47705 111.223 -4.22325 112.394 -6.03261 113.632C-7.67382 114.754 -9.28423 115.758 -11.2818 116.052L-8.38642 118.948C-8.03995 116.684 -7.6935 114.421 -7.34704 112.157C-7.18535 111.101 -7.02347 110.044 -6.862 108.988C-6.68321 107.819 -6.93988 107.113 -7.5454 106.129C-9.62884 102.742 -12.3576 99.899 -15.5446 97.54L-16.7326 101.926C-14.5367 101.88 -12.3339 101.627 -10.1883 101.151C-9.21711 100.936 -8.25656 100.672 -7.31222 100.359C-6.30476 100.026 -5.02772 99.7082 -4.24198 98.976C-3.51128 98.2951 -3.24791 97.3153 -2.88203 96.4133L-1.65731 93.3939L0.967095 86.9239L-3.33497 87.4861C-1.12143 90.4837 0.728942 93.7425 2.05602 97.2281C2.43003 98.2105 3.21907 98.9562 4.3257 98.9562C5.31927 98.9562 6.37712 98.2308 6.59537 97.2281L6.65455 96.9562L4.38488 98.6842L16.6522 100.105L14.9878 96.0873C13.3717 97.7853 11.7556 99.4832 10.1395 101.181C9.3853 101.974 8.63111 102.766 7.87692 103.558C7.26482 104.201 6.50108 104.826 6.27628 105.721C6.02322 106.729 6.15038 107.982 6.1874 109.013C6.22463 110.049 6.31021 111.083 6.43493 112.112C6.7106 114.388 7.15855 116.618 7.81994 118.813L10.7153 115.918C8.99336 115.342 7.35308 114.615 5.77413 113.716C4.50541 112.994 2.764 112.136 1.84283 110.976C1.05169 109.98 -0.659272 110.149 -1.48587 110.976C-2.47001 111.96 -2.27904 113.306 -1.48587 114.305C-0.937184 114.996 -0.0179791 115.532 0.693484 116.044C1.56317 116.671 2.46654 117.251 3.39817 117.781C5.32025 118.875 7.36804 119.756 9.4639 120.457C11.1642 121.027 12.8594 119.222 12.3593 117.562C11.8013 115.71 11.3514 113.814 11.1165 111.892C10.9997 110.936 10.9295 109.974 10.8949 109.013C10.879 108.569 10.8714 108.124 10.8722 107.68C10.8727 107.383 10.8769 107.087 10.8849 106.791C10.829 106.939 10.8144 106.964 10.8413 106.867L10.236 107.906C12.9295 105.076 15.623 102.246 18.3166 99.416C19.8355 97.8202 18.6201 95.6259 16.6522 95.3979L4.3849 93.9767C3.41914 93.8648 2.31575 94.7835 2.11522 95.7048L2.05604 95.9767H6.59539C5.11858 92.0978 3.19729 88.4515 0.729845 85.1102C-0.535484 83.3967 -2.7845 83.7304 -3.57221 85.6724L-7.94622 96.4558L-7.3409 95.4172L-7.60487 95.6816L-6.56623 95.0763C-9.82444 96.3995 -13.2154 97.1443 -16.7326 97.2187C-19.2258 97.2714 -19.725 100.269 -17.9205 101.605C-15.1305 103.67 -12.8474 106.336 -11.119 109.335L-11.3563 107.521C-12.055 110.865 -12.4088 114.319 -12.9257 117.696C-13.2148 119.585 -11.9106 120.869 -10.0303 120.592C-5.74355 119.959 -3.01865 116.516 0.804224 114.91C1.97537 114.418 2.81607 113.353 2.44818 112.015C2.14471 110.91 0.732266 109.875 -0.447255 110.371Z" fill="#F3F3F3"/>
</g>
<defs>
<clipPath id="clip0_89_84">
<rect width="198" height="198" fill="white"/>
</clipPath>
</defs>
</svg>
