<svg width="198" height="198" viewBox="0 0 198 198" fill="none" xmlns="http://www.w3.org/2000/svg">
<g clip-path="url(#clip0_89_84)">
<mask id="mask0_89_84" style="mask-type:alpha" maskUnits="userSpaceOnUse" x="0" y="0" width="198" height="198">
<rect width="198" height="198" fill="black"/>
</mask>
<g mask="url(#mask0_89_84)">
<g opacity="0.05">
<g clip-path="url(#clip1_89_84)">
<path d="M198.116 160C190.338 160.005 183.062 164.981 180.223 172.21C177.418 179.353 179.561 188.304 185.397 193.312C191.324 198.398 200.207 199.556 207.097 195.745C213.907 191.978 217.901 184.088 216.817 176.391C216.183 171.884 213.871 167.529 210.344 164.621C206.67 161.594 201.951 159.962 197.181 160.254C194.942 160.391 194.926 163.894 197.181 163.756C204.258 163.324 210.809 167.771 212.854 174.597C214.709 180.793 212.379 187.55 207.257 191.473C202.158 195.379 195.004 195.422 189.605 192.086C184.158 188.72 181.49 181.825 182.85 175.616C184.383 168.62 190.994 163.507 198.116 163.502C200.369 163.501 200.373 159.999 198.116 160Z" fill="black"/>
<path d="M188.958 185.381C191.293 187.76 194.532 189.109 197.857 189.203C201.344 189.301 204.661 187.87 207.081 185.381C208.653 183.764 206.179 181.285 204.605 182.904C202.791 184.769 200.445 185.774 197.857 185.701C195.457 185.633 193.128 184.63 191.434 182.904C189.853 181.293 187.377 183.77 188.958 185.381Z" fill="black"/>
<path d="M192.076 171.264C191.719 171.355 191.431 171.542 191.166 171.791C191.042 171.908 190.933 172.05 190.851 172.2C190.807 172.28 190.784 172.349 190.744 172.445C190.715 172.513 190.661 172.619 190.637 172.706C190.587 172.882 190.558 173.071 190.561 173.253C190.562 173.271 190.563 173.289 190.564 173.307C190.571 173.435 190.597 173.678 190.631 173.8C190.677 173.96 190.755 174.141 190.833 174.287C190.918 174.449 191.04 174.596 191.165 174.729C191.314 174.888 191.495 175.032 191.694 175.124C191.849 175.196 192.018 175.283 192.186 175.324C192.275 175.346 192.381 175.353 192.464 175.365C192.554 175.377 192.665 175.399 192.764 175.401C193.004 175.407 193.256 175.372 193.484 175.295C193.685 175.227 193.942 175.129 194.132 175.002C194.504 174.754 194.872 174.435 195.066 174.023C195.24 173.656 195.345 173.368 195.34 172.951C195.339 172.868 195.311 172.718 195.307 172.686C195.296 172.61 195.288 172.493 195.266 172.405C195.223 172.223 195.143 172.042 195.05 171.883C195.039 171.865 195.028 171.848 195.016 171.83C194.936 171.71 194.819 171.557 194.722 171.451C194.603 171.319 194.427 171.204 194.299 171.11C194.269 171.087 194.239 171.066 194.206 171.048C194.126 171.006 194.03 170.971 193.953 170.939C193.867 170.902 193.771 170.854 193.677 170.826C193.216 170.691 192.67 170.713 192.213 170.846C192.169 170.859 192.127 170.875 192.084 170.891C191.914 170.958 191.737 171.025 191.574 171.111C191.539 171.13 191.505 171.15 191.473 171.173C191.321 171.278 191.163 171.394 191.026 171.52C190.993 171.55 190.964 171.584 190.935 171.619C190.824 171.753 190.703 171.893 190.614 172.044C190.496 172.244 190.396 172.47 190.351 172.7C190.32 172.852 190.295 173.044 190.284 173.199C190.282 173.221 190.28 173.243 190.28 173.266C190.282 173.443 190.317 173.641 190.35 173.814C190.372 173.929 190.421 174.022 190.468 174.133C190.513 174.24 190.55 174.348 190.612 174.445C190.801 174.742 190.929 174.869 191.182 175.064C191.458 175.278 191.601 175.349 191.957 175.483C192.102 175.538 192.237 175.55 192.394 175.571C192.573 175.595 192.726 175.621 192.903 175.601C193.14 175.574 193.387 175.554 193.616 175.481C193.854 175.405 194.084 175.298 194.311 175.197C194.474 175.124 194.638 175.046 194.784 174.943C194.959 174.82 195.142 174.693 195.294 174.541C195.371 174.463 195.435 174.37 195.5 174.285C195.565 174.201 195.649 174.109 195.7 174.01C195.887 173.65 195.974 173.337 195.998 172.932C196.011 172.698 195.98 172.45 195.898 172.23C195.755 171.844 195.62 171.589 195.332 171.282C195.174 171.114 194.982 170.965 194.778 170.857C194.582 170.753 194.36 170.645 194.137 170.602C193.945 170.565 193.741 170.534 193.546 170.525C193.486 170.522 193.426 170.524 193.367 170.53C193.107 170.557 192.84 170.583 192.588 170.657C192.465 170.694 192.345 170.739 192.225 170.785C191.997 170.839 191.798 170.943 191.629 171.098C191.439 171.222 191.288 171.385 191.178 171.589C191.05 171.79 190.981 172.007 190.971 172.241C190.918 172.473 190.929 172.706 191.002 172.939C191.139 173.363 191.402 173.771 191.807 173.985L192.225 174.162C192.535 174.245 192.846 174.245 193.156 174.162C193.357 174.085 193.56 174.011 193.773 173.977L193.308 174.04C193.414 174.025 193.518 174.022 193.625 174.034L193.16 173.971C193.234 173.982 193.302 174.002 193.371 174.03L192.953 173.854C193.011 173.88 193.065 173.912 193.117 173.949L192.763 173.675C192.812 173.714 192.855 173.756 192.895 173.805L192.621 173.45C192.652 173.491 192.677 173.533 192.698 173.579L192.521 173.161C192.536 173.199 192.547 173.236 192.554 173.276L192.492 172.81C192.498 172.862 192.498 172.91 192.492 172.961L192.554 172.496C192.547 172.535 192.537 172.571 192.524 172.608L192.7 172.19C192.677 172.244 192.648 172.293 192.613 172.34L192.887 171.986C192.835 172.05 192.777 172.105 192.713 172.156L193.067 171.882C192.886 172.019 192.679 172.115 192.471 172.204L192.889 172.028C192.743 172.088 192.594 172.137 192.437 172.161L192.903 172.099C192.81 172.11 192.719 172.112 192.627 172.1L193.092 172.163C193.021 172.151 192.955 172.133 192.888 172.106L193.306 172.283C193.242 172.254 193.183 172.22 193.127 172.177L193.481 172.451C193.443 172.419 193.41 172.385 193.379 172.347L193.653 172.701C193.624 172.661 193.6 172.62 193.581 172.575L193.757 172.993C193.742 172.951 193.732 172.911 193.725 172.867L193.787 173.332C193.781 173.276 193.783 173.222 193.79 173.165L193.728 173.631C193.738 173.574 193.754 173.522 193.776 173.469L193.599 173.887C193.623 173.835 193.652 173.787 193.685 173.741L193.412 174.095C193.454 174.042 193.501 173.996 193.554 173.953L193.2 174.226C193.273 174.172 193.35 174.128 193.434 174.092L193.015 174.269C193.116 174.229 193.219 174.201 193.326 174.184L192.86 174.247C192.94 174.237 193.017 174.235 193.096 174.243L192.631 174.18C192.694 174.19 192.753 174.204 192.813 174.227L192.394 174.051C192.444 174.074 192.489 174.101 192.532 174.134L192.177 173.86C192.21 173.889 192.239 173.918 192.266 173.952L191.992 173.598C192.01 173.624 192.026 173.65 192.04 173.679L191.864 173.261C191.88 173.301 191.891 173.34 191.898 173.384L191.836 172.918C191.838 172.951 191.838 172.982 191.835 173.015L191.898 172.549C191.891 172.592 191.881 172.632 191.866 172.673L192.042 172.255C192.02 172.306 191.993 172.353 191.96 172.398L192.234 172.044C192.184 172.107 192.129 172.162 192.065 172.212L192.42 171.938C192.342 171.996 192.259 172.043 192.17 172.081L192.588 171.904C192.529 171.927 192.471 171.943 192.409 171.954L192.875 171.892C192.814 171.899 192.757 171.901 192.696 171.894L193.162 171.956C193.121 171.949 193.082 171.938 193.043 171.923L193.461 172.1C193.423 172.083 193.388 172.064 193.354 172.04L193.708 172.314C193.676 172.288 193.648 172.261 193.622 172.229L193.896 172.583C193.878 172.558 193.864 172.534 193.85 172.505L194.027 172.924C194.016 172.896 194.009 172.871 194.004 172.842L194.066 173.307C194.064 173.279 194.063 173.253 194.066 173.225L194.003 173.691C194.009 173.653 194.018 173.62 194.033 173.585L193.856 174.003C193.869 173.978 193.882 173.957 193.898 173.934L193.625 174.288C193.643 174.267 193.66 174.25 193.682 174.233L193.328 174.507C193.342 174.496 193.358 174.488 193.374 174.48L192.955 174.657C192.972 174.65 192.989 174.644 193.007 174.641C193.235 174.587 193.433 174.482 193.602 174.327C193.793 174.204 193.943 174.04 194.053 173.836C194.181 173.635 194.251 173.418 194.261 173.185C194.313 172.952 194.303 172.719 194.23 172.487C194.093 172.063 193.83 171.654 193.425 171.44C193.004 171.217 192.545 171.144 192.076 171.264Z" fill="black"/>
</g>
<g clip-path="url(#clip2_89_84)">
<path d="M121.498 127.121C121.482 131.881 121.545 136.77 123.435 141.221C125.157 145.278 128.275 148.548 132.567 149.826C134.789 150.488 137.164 150.633 139.47 150.669C141.798 150.705 144.18 150.614 146.444 150.022C150.676 148.915 153.973 145.802 155.786 141.873C158.065 136.934 158.049 131.49 157.897 126.16C157.859 124.83 156.456 123.408 155.029 123.975C145.383 127.809 134.656 127.729 125.063 123.768C123.932 123.3 122.572 124.273 122.276 125.35C121.918 126.652 122.723 127.668 123.859 128.137C134.083 132.359 145.955 132.43 156.233 128.345L153.365 126.16C153.548 132.572 153.785 142.199 146.605 145.211C144.91 145.922 143.042 146.093 141.224 146.134C139.331 146.177 137.373 146.179 135.503 145.858C131.99 145.256 129.495 143.315 127.9 140.15C125.895 136.169 126.016 131.459 126.03 127.121C126.039 124.204 121.507 124.2 121.498 127.121Z" fill="black"/>
<path d="M157.688 133.965C157.317 134.265 157.98 133.811 158.059 133.763C158.296 133.649 158.298 133.644 158.066 133.746C158.159 133.711 158.254 133.679 158.351 133.651C158.458 133.618 159.153 133.486 158.63 133.55C158.861 133.522 159.096 133.517 159.329 133.526C159.429 133.529 159.529 133.536 159.628 133.547C159.36 133.511 159.353 133.517 159.609 133.566C159.712 133.602 160.437 133.891 159.966 133.656C160.137 133.742 160.298 133.846 160.468 133.932C160.679 134.079 160.681 134.072 160.476 133.912C160.575 133.992 160.671 134.076 160.763 134.164C160.902 134.296 161.032 134.436 161.154 134.583C160.828 134.188 161.276 134.827 161.328 134.918C161.607 135.403 161.26 134.57 161.405 135.107C161.432 135.209 161.599 136.017 161.529 135.466C161.554 135.662 161.562 135.861 161.563 136.058C161.563 136.17 161.467 136.977 161.562 136.447C161.527 136.644 161.486 136.84 161.433 137.034C161.409 137.124 161.127 137.894 161.325 137.438C161.14 137.864 160.896 138.27 160.62 138.643C160.904 138.259 160.469 138.797 160.402 138.868C160.244 139.037 160.079 139.199 159.907 139.353C159.808 139.442 159.708 139.528 159.605 139.612C159.804 139.463 159.798 139.466 159.589 139.62C159.424 139.733 159.261 139.848 159.092 139.954C158.694 140.204 158.279 140.415 157.858 140.622C157.618 140.729 157.615 140.732 157.849 140.633C157.725 140.683 157.601 140.732 157.476 140.778C157.252 140.861 157.026 140.938 156.798 141.011C156.267 141.18 155.727 141.321 155.183 141.442C154.014 141.704 152.827 141.875 151.642 142.046C150.464 142.216 149.715 143.77 150.059 144.833C150.476 146.122 151.585 146.598 152.846 146.416C157.22 145.784 161.695 144.755 164.473 141.009C167.123 137.435 166.479 131.687 162.166 129.704C159.526 128.49 156.72 128.955 154.484 130.761C153.557 131.508 153.647 133.197 154.484 133.965C155.467 134.868 156.7 134.763 157.688 133.965Z" fill="black"/>
<path d="M125.886 127.086C128.776 122.88 135.616 123.529 140.023 123.531C145.02 123.534 150.467 124.128 153.979 128.091C155.917 130.278 159.112 127.064 157.183 124.887C152.773 119.909 145.876 118.973 139.587 119.001C133.269 119.028 125.946 119.017 121.973 124.799C121.28 125.808 121.784 127.313 122.786 127.899C123.909 128.556 125.191 128.098 125.886 127.086Z" fill="black"/>
<path d="M125.676 141.272C122.397 140.878 118.924 140.805 116.284 143.104C114.006 145.086 113.199 148.444 114.942 151.047C116.407 153.234 119.033 154.272 121.498 154.859C124.865 155.661 128.309 156.193 131.75 156.557C138.456 157.267 145.208 157.108 151.885 156.194C155.076 155.757 158.363 155.242 161.444 154.279C164.091 153.452 166.756 152.006 167.814 149.289C169.041 146.139 167.3 142.884 164.619 141.158C161.305 139.025 157.169 139.876 153.61 140.79C150.787 141.516 151.984 145.888 154.815 145.16C156.939 144.614 159.649 143.752 161.77 144.749C162.996 145.326 164.255 146.734 163.403 148.05C162.578 149.323 160.603 149.843 159.19 150.202C156.668 150.844 154.098 151.33 151.524 151.705C146.256 152.473 140.88 152.649 135.568 152.339C132.937 152.185 130.314 151.908 127.713 151.479C125.415 151.101 122.969 150.762 120.782 149.926C119.499 149.435 117.777 148.421 118.866 146.936C120.339 144.927 123.58 145.552 125.676 145.804C126.893 145.951 127.942 144.658 127.942 143.538C127.942 142.192 126.897 141.419 125.676 141.272Z" fill="black"/>
</g>
<g clip-path="url(#clip3_89_84)">
<path d="M40.1981 20.3227C32.8994 23.1769 27.7696 30.3701 28.008 38.298C28.1306 42.3755 29.5502 46.3514 32.0603 49.5649C34.5911 52.805 38.2464 55.1235 42.1918 56.2345C50.2357 58.4996 59.1879 55.6308 64.3381 49.0479C69.1199 42.936 70.4353 34.39 66.653 27.4334C64.5358 23.5394 60.8824 20.8641 56.6127 19.764C52.1521 18.6149 47.4717 18.985 42.9436 19.4371C42.0617 19.5252 41.3024 20.1284 41.3024 21.0783C41.3024 21.8975 42.0562 22.8081 42.9436 22.7195C49.5355 22.0613 57.5764 21.3462 62.3625 26.9244C66.5346 31.787 66.4109 39.1679 63.4125 44.5574C59.9507 50.7799 53.1592 54.2837 46.0805 53.6432C42.5969 53.328 39.1287 51.8662 36.5155 49.5339C33.959 47.2522 32.2739 44.2288 31.5862 40.8774C30.1133 33.6991 34.2369 26.1602 41.0707 23.4879C41.8957 23.1653 42.4694 22.3873 42.217 21.469C42.0008 20.6822 41.0282 19.9981 40.1981 20.3227Z" fill="black"/>
<path d="M46.6506 30.4743L45.5981 38.3476C45.4839 39.2022 46.4345 40.0249 47.2393 39.9888C48.2261 39.9446 48.7581 39.2633 48.8805 38.3476L49.933 30.4743C50.0472 29.6198 49.0966 28.7971 48.2918 28.8331C47.305 28.8773 46.773 29.5586 46.6506 30.4743Z" fill="black"/>
<path d="M46.2931 39.7929C48.9537 42.7454 51.6143 45.6979 54.2749 48.6505C54.8513 49.2901 56.0176 49.2804 56.5959 48.6505C57.2231 47.9673 57.2107 47.0117 56.5959 46.3295C53.9353 43.3769 51.2747 40.4244 48.6141 37.4719C48.0378 36.8323 46.8715 36.8419 46.2931 37.4719C45.666 38.1551 45.6783 39.1106 46.2931 39.7929Z" fill="black"/>
</g>
<g clip-path="url(#clip4_89_84)">
<path d="M59.4421 152.866C63.5641 146.572 67.6862 140.278 71.8082 133.983C72.8129 132.449 73.6198 131.08 73.5428 129.191C73.5041 128.244 73.5839 127.299 73.3654 126.364C72.7707 123.819 70.1688 123.71 68.0716 124.287C67.3372 124.489 66.5892 124.632 65.8986 124.988C65.2018 125.347 64.5934 125.913 64.0553 126.476C62.8066 127.781 61.5942 129.122 60.3565 130.438C57.8337 133.12 55.2923 135.785 52.7633 138.461C51.4624 139.838 50.1648 141.218 48.8746 142.604C48.2417 143.285 47.7093 143.77 46.9203 144.261C46.1683 144.729 45.3007 145.151 44.6553 145.765C43.2632 147.091 43.7682 148.89 45.1195 149.99C45.8504 150.585 46.5923 151.166 47.3302 151.752C49.3591 153.364 51.3923 154.97 53.4184 156.585C54.57 157.503 55.9339 158.897 57.5173 158.03C58.4349 157.527 58.6778 156.542 58.8888 155.602C59.1205 154.57 59.3523 153.538 59.5841 152.506L59.1675 153.221L59.1888 153.194C59.7267 152.505 59.8606 151.575 59.1888 150.903C58.6288 150.343 57.4395 150.21 56.8981 150.903C56.3527 151.602 56.2683 152.5 56.0778 153.348C55.9851 153.761 55.8924 154.174 55.7996 154.586C55.7533 154.793 55.7084 155 55.6606 155.206C55.5134 155.84 55.53 155.239 56.0454 155.121H56.9067C56.4771 155.062 55.8546 154.41 55.3862 154.037C54.6585 153.458 53.9297 152.879 53.201 152.301C51.6553 151.075 50.1084 149.851 48.5652 148.622C48.3918 148.484 47.1293 147.276 46.9639 147.324C46.8787 147.349 46.9385 148.142 46.8748 148.115C46.8729 148.115 47.1723 147.919 47.2127 147.894C47.5249 147.697 47.8393 147.504 48.1526 147.309C48.8366 146.883 49.6201 146.499 50.1989 145.937C52.3783 143.82 54.3733 141.469 56.4642 139.262C58.5987 137.009 60.7381 134.76 62.8635 132.499C63.9086 131.387 64.9489 130.27 65.9866 129.151C66.3609 128.748 66.7359 128.298 67.1901 127.983C67.6458 127.667 68.1634 127.635 68.6884 127.481C69.1097 127.357 69.6483 127.218 69.9162 127.198C69.9962 127.191 70.4916 127.171 70.2942 127.178C70.0439 127.186 70.3499 127.179 70.3311 127.189C70.4739 127.234 70.4805 127.231 70.351 127.179C70.2442 127.128 70.2285 127.122 70.304 127.162C70.3279 127.185 70.0967 126.944 70.319 127.188C70.1638 127.017 70.1902 127.046 70.1661 126.959C70.2009 127.085 70.2337 127.212 70.265 127.339C70.2859 127.425 70.2899 127.64 70.2583 127.275C70.2659 127.362 70.2764 127.45 70.2792 127.537C70.3041 128.302 70.4423 129.222 70.3222 129.968C70.2288 130.548 69.8374 131.077 69.5271 131.559C69.0972 132.227 68.6569 132.889 68.2215 133.554C64.3626 139.446 60.5037 145.338 56.6448 151.231C55.4992 152.98 58.3032 154.605 59.4421 152.866Z" fill="black"/>
<path d="M55.3307 135.979C52.6215 136.07 49.9123 136.161 47.203 136.252C45.8987 136.296 44.539 136.326 43.4258 137.1C42.44 137.786 41.7886 138.782 41.2102 139.814C40.8933 140.379 40.9019 141.335 41.4635 141.777C43.2106 143.151 44.9577 144.526 46.7049 145.9C47.3918 146.441 48.3255 146.571 48.9956 145.9C49.5575 145.339 49.687 144.154 48.9956 143.61C47.2485 142.235 45.5014 140.861 43.7542 139.486L44.0075 141.449C44.3737 140.796 44.7902 139.959 45.3813 139.696C46.1724 139.343 47.3359 139.488 48.219 139.458C50.5896 139.378 52.9602 139.299 55.3307 139.219C56.2054 139.19 56.9506 138.496 56.9506 137.599C56.9506 136.744 56.2091 135.95 55.3307 135.979Z" fill="black"/>
<path d="M61.8509 144.246L63.2903 150.955C63.4059 151.493 63.5218 152.032 63.6369 152.57C63.7318 153.014 63.893 153.534 63.8004 153.996C63.6703 154.647 62.9095 155.277 62.4107 155.748H64.7014C62.9442 154.386 61.187 153.024 59.4298 151.662C58.739 151.127 57.8124 150.989 57.1391 151.662C56.5809 152.221 56.4436 153.414 57.1391 153.953C58.8963 155.315 60.6535 156.677 62.4107 158.038C63.119 158.587 63.9982 158.701 64.7014 158.038C65.5957 157.195 66.4672 156.263 66.8479 155.066C67.2671 153.747 66.9078 152.394 66.6275 151.088C66.0766 148.52 65.5257 145.952 64.9748 143.385C64.7912 142.529 63.7909 142.031 62.9822 142.253C62.0973 142.497 61.6667 143.388 61.8509 144.246Z" fill="black"/>
<path d="M49.8754 151.471C47.8776 151.752 45.9167 152.312 44.7279 154.075C44.1585 154.92 44.0706 155.931 43.9333 156.909C43.7912 157.921 43.6492 158.934 43.5071 159.947C43.4238 160.541 43.4751 161.074 43.9236 161.523C44.326 161.925 44.9483 162.103 45.4996 161.94C45.6315 161.901 45.7633 161.866 45.8983 161.839C46.3227 161.756 45.6551 161.838 45.9932 161.825C46.2319 161.817 46.4693 161.799 46.7085 161.798C47.2257 161.796 47.7434 161.822 48.2602 161.791C49.5416 161.712 50.8326 161.319 51.7018 160.318C52.5476 159.344 52.9707 158.164 53.0632 156.886C53.1567 155.595 52.8168 154.29 52.4845 153.053C52.2647 152.235 51.3208 151.653 50.492 151.922C49.6525 152.193 49.1251 153.037 49.3606 153.914C49.4987 154.428 49.6365 154.943 49.7379 155.466C49.7642 155.602 49.7855 155.738 49.8089 155.875C49.8427 156.071 49.7955 155.605 49.8099 155.923C49.8224 156.199 49.8438 156.471 49.8315 156.748C49.8265 156.86 49.7996 156.99 49.8031 157.102L49.8298 156.887C49.8176 156.959 49.8036 157.03 49.7879 157.102C49.7442 157.299 49.6778 157.486 49.6167 157.678C49.5575 157.864 49.7748 157.383 49.6291 157.64C49.5757 157.734 49.5295 157.831 49.4728 157.924C49.4451 157.97 49.4158 158.015 49.3852 158.059C49.3164 158.158 49.3478 158.12 49.4796 157.946C49.4044 158.005 49.3346 158.114 49.2658 158.182L49.1891 158.256C49.0576 158.369 49.0846 158.352 49.2701 158.205C49.2711 158.238 49.0702 158.335 49.045 158.35C48.996 158.379 48.9457 158.406 48.8944 158.431C49.0878 158.356 49.1282 158.339 49.0156 158.382C48.9244 158.41 48.8352 158.444 48.7427 158.47C48.7014 158.481 48.4488 158.575 48.4066 158.544C48.6279 158.518 48.676 158.512 48.5509 158.526C48.493 158.533 48.4351 158.538 48.377 158.543C48.1413 158.562 47.9047 158.566 47.6684 158.566C46.6512 158.568 45.6272 158.523 44.6384 158.816L46.6309 160.808C46.7565 159.913 46.8821 159.018 47.0077 158.123C47.07 157.679 47.1288 157.234 47.1953 156.791C47.2255 156.589 47.2583 156.387 47.3087 156.19C47.3208 156.142 47.4111 155.772 47.3492 156.01C47.2969 156.21 47.3859 155.94 47.4113 155.895C47.4468 155.832 47.4872 155.772 47.5252 155.71C47.7033 155.421 47.3649 155.865 47.5051 155.738C47.5825 155.667 47.8284 155.488 47.8575 155.394C47.6871 155.521 47.6504 155.549 47.7474 155.479C47.777 155.457 47.8072 155.436 47.838 155.415C47.9143 155.364 47.9922 155.314 48.0719 155.268C48.1356 155.231 48.2003 155.195 48.2658 155.162C48.2811 155.154 48.605 155.003 48.3821 155.1C48.1541 155.199 48.499 155.061 48.5464 155.044C48.6498 155.009 48.7545 154.977 48.8596 154.947C49.0494 154.893 49.2413 154.847 49.4343 154.807C49.865 154.717 50.3011 154.656 50.7366 154.595C51.1088 154.543 51.5246 154.159 51.7046 153.851C51.9078 153.504 51.9939 152.992 51.8679 152.603C51.7411 152.211 51.4982 151.833 51.1235 151.635C50.7113 151.417 50.3325 151.407 49.8754 151.471Z" fill="black"/>
<path d="M66.0721 132.594C66.258 132.713 66.4588 132.777 66.6744 132.787C66.8897 132.835 67.105 132.825 67.3203 132.758C67.5311 132.708 67.7147 132.611 67.8712 132.468C68.0475 132.354 68.1866 132.202 68.2884 132.013L68.4517 131.626C68.5288 131.339 68.5288 131.052 68.4517 130.765L68.2884 130.378C68.1444 130.135 67.9507 129.941 67.7073 129.797C67.5213 129.679 67.3205 129.615 67.1049 129.605C66.8896 129.557 66.6743 129.566 66.459 129.634C66.2482 129.684 66.0646 129.781 65.9082 129.924C65.7318 130.038 65.5928 130.189 65.491 130.378L65.3277 130.765C65.2505 131.052 65.2505 131.339 65.3277 131.626L65.491 132.013C65.635 132.257 65.8287 132.45 66.0721 132.594Z" fill="black"/>
</g>
<g clip-path="url(#clip5_89_84)">
<path d="M99.7644 98.4012C102.689 94.7829 105.426 91.0097 107.916 87.0709C110.251 83.3769 112.655 79.4168 113.325 75.0083C113.923 71.0763 113.127 66.8357 110.372 63.8612C107.962 61.2602 104.072 60.2922 100.753 61.5423C98.9843 62.2088 97.3923 63.4367 96.5597 65.1887C95.3545 67.7248 95.7077 70.4654 96.1598 73.1394L99.8832 71.5502C98.5629 68.4949 96.8226 65.3034 93.4731 64.2204C90.3971 63.2258 86.8643 64.4739 84.6993 66.8053C82.1436 69.5573 81.5996 73.4608 82.2525 77.0601C82.9379 80.8385 85.1351 84.0809 87.4331 87.0436C90.3661 90.8248 93.4317 94.5064 96.4355 98.2301C97.1319 99.0935 98.5935 98.962 99.3164 98.2301C100.16 97.3764 100.015 96.1789 99.3164 95.3134C97.0466 92.4996 94.7768 89.6858 92.5071 86.872C90.5498 84.4456 88.5315 82.0264 87.1884 79.1789C86.0669 76.8014 85.5492 73.7871 86.5925 71.2863C87.3945 69.3639 89.4067 67.8552 91.4937 68.0051C94.1703 68.1973 95.4329 71.4746 96.3652 73.6321C96.7661 74.5598 98.0755 74.8469 98.9091 74.4759C99.8949 74.0372 100.265 73.0861 100.089 72.0428C99.833 70.5315 99.4835 68.7457 100.078 67.2706C100.448 66.3508 101.236 65.7368 102.066 65.4356C104.173 64.6706 106.47 65.3066 107.903 67.2715C112.029 72.9287 107.393 80.2692 104.297 85.1491C102.022 88.7347 99.5494 92.1867 96.8835 95.4845C96.1872 96.3457 96.0511 97.5585 96.8835 98.4012C97.602 99.1287 99.0641 99.2675 99.7644 98.4012Z" fill="black"/>
</g>
<g clip-path="url(#clip6_89_84)">
<path d="M197.553 110.371C195.523 111.223 193.777 112.394 191.967 113.632C190.326 114.754 188.716 115.758 186.718 116.052L189.614 118.948C189.96 116.684 190.307 114.421 190.653 112.157C190.815 111.101 190.977 110.044 191.138 108.988C191.317 107.819 191.06 107.113 190.455 106.129C188.371 102.742 185.642 99.899 182.455 97.54L181.267 101.926C183.463 101.88 185.666 101.627 187.812 101.151C188.783 100.936 189.743 100.672 190.688 100.359C191.695 100.026 192.972 99.7082 193.758 98.976C194.489 98.2951 194.752 97.3153 195.118 96.4133L196.343 93.3939L198.967 86.9239L194.665 87.4861C196.879 90.4837 198.729 93.7425 200.056 97.2281C200.43 98.2105 201.219 98.9562 202.326 98.9562C203.319 98.9562 204.377 98.2308 204.595 97.2281L204.655 96.9562L202.385 98.6842L214.652 100.105L212.988 96.0873C211.372 97.7853 209.756 99.4832 208.139 101.181C207.385 101.974 206.631 102.766 205.877 103.558C205.265 104.201 204.501 104.826 204.276 105.721C204.023 106.729 204.15 107.982 204.187 109.013C204.225 110.049 204.31 111.083 204.435 112.112C204.711 114.388 205.159 116.618 205.82 118.813L208.715 115.918C206.993 115.342 205.353 114.615 203.774 113.716C202.505 112.994 200.764 112.136 199.843 110.976C199.052 109.98 197.341 110.149 196.514 110.976C195.53 111.96 195.721 113.306 196.514 114.305C197.063 114.996 197.982 115.532 198.693 116.044C199.563 116.671 200.467 117.251 201.398 117.781C203.32 118.875 205.368 119.756 207.464 120.457C209.164 121.027 210.859 119.222 210.359 117.562C209.801 115.71 209.351 113.814 209.116 111.892C209 110.936 208.929 109.974 208.895 109.013C208.879 108.569 208.871 108.124 208.872 107.68C208.873 107.383 208.877 107.087 208.885 106.791C208.829 106.939 208.814 106.964 208.841 106.867L208.236 107.906C210.93 105.076 213.623 102.246 216.317 99.416C217.836 97.8202 216.62 95.6259 214.652 95.3979L202.385 93.9767C201.419 93.8648 200.316 94.7835 200.115 95.7048L200.056 95.9767H204.595C203.119 92.0978 201.197 88.4515 198.73 85.1102C197.465 83.3967 195.216 83.7304 194.428 85.6724L190.054 96.4558L190.659 95.4172L190.395 95.6816L191.434 95.0763C188.176 96.3995 184.785 97.1443 181.267 97.2187C178.774 97.2714 178.275 100.269 180.079 101.605C182.869 103.67 185.153 106.336 186.881 109.335L186.644 107.521C185.945 110.865 185.591 114.319 185.074 117.696C184.785 119.585 186.089 120.869 187.97 120.592C192.256 119.959 194.981 116.516 198.804 114.91C199.975 114.418 200.816 113.353 200.448 112.015C200.145 110.91 198.732 109.875 197.553 110.371Z" fill="black"/>
</g>
<g clip-path="url(#clip7_89_84)">
<path d="M127.418 -11.4707C118.295 -11.3282 109.166 -11.2808 100.046 -11.041C98.1369 -10.9908 96.1163 -10.7802 94.5087 -9.65008C92.8883 -8.51105 91.8535 -6.7091 91.4077 -4.79747C90.9141 -2.68025 90.9815 -0.440002 91.0412 1.71905C91.0982 3.78333 91.3378 5.83901 92.1707 7.74437C92.9299 9.48097 94.2218 11.0332 95.948 11.8635C97.8005 12.7546 99.8699 12.8435 101.888 12.9156C106.386 13.0764 110.891 13.0073 115.381 12.709C119.262 12.4512 123.368 12.269 127.12 11.1612C130.713 10.1005 133.592 7.90354 134.859 4.28263C135.584 2.21202 135.776 -0.0806121 135.946 -2.25564C136.117 -4.42543 135.935 -6.72562 134.596 -8.52695C133.336 -10.2212 131.368 -11.2602 129.305 -11.5964C126.888 -11.9904 124.316 -12.2154 121.905 -11.7001C119.789 -11.2479 120.685 -7.99711 122.799 -8.44904C124.594 -8.83254 126.56 -8.59125 128.363 -8.34578C129.627 -8.17365 130.968 -7.69769 131.797 -6.67295C132.728 -5.5232 132.696 -3.93157 132.603 -2.53419C132.496 -0.915355 132.329 0.738717 131.933 2.3147C131.566 3.77656 130.939 5.08599 129.801 6.09808C128.825 6.96575 127.58 7.49984 126.344 7.87533C123.143 8.84764 119.681 9.02328 116.367 9.26831C112.481 9.55561 108.582 9.67108 104.686 9.61439C102.897 9.58835 101.036 9.64221 99.2634 9.37142C97.7999 9.14785 96.5391 8.55412 95.7228 7.27919C94.8943 5.98531 94.5713 4.47294 94.4624 2.95579C94.3301 1.11167 94.2934 -0.808497 94.4529 -2.6515C94.577 -4.08653 95.0052 -5.70429 96.1456 -6.67603C97.2772 -7.6402 98.9152 -7.64701 100.321 -7.67539C109.352 -7.85769 118.386 -7.95804 127.418 -8.09919C129.58 -8.13299 129.587 -11.5046 127.418 -11.4707Z" fill="black"/>
<path d="M103.189 1.96307C104.524 2.16153 105.763 1.86897 106.788 0.955815C107.638 0.197654 108.148 -0.958011 108.088 -2.10223C107.951 -4.74869 105.389 -6.61516 102.837 -5.8675C100.291 -5.12141 99.1463 -2.62226 98.9038 -0.168581C98.6631 2.26691 99.5145 4.75067 101.514 6.22543C103.708 7.84372 106.883 7.35507 108.383 5.05482C108.865 4.31517 108.555 3.15911 107.78 2.74838C106.94 2.30364 105.993 2.56376 105.478 3.35315C105.46 3.38197 105.329 3.56012 105.456 3.39931C105.592 3.2266 105.408 3.43987 105.37 3.47786C105.323 3.52439 105.272 3.56592 105.225 3.61246C105.247 3.59064 105.459 3.46662 105.301 3.54694C105.163 3.61661 105.035 3.7046 104.895 3.77272C104.925 3.75816 105.16 3.69214 104.986 3.72396C104.879 3.74342 104.768 3.784 104.663 3.81309C104.357 3.89735 104.895 3.82243 104.578 3.82299C104.522 3.82309 104.04 3.81034 104.266 3.8295C104.482 3.84775 104.268 3.82887 104.226 3.81715C104.133 3.79175 104.04 3.76728 103.947 3.74325C103.924 3.73713 103.693 3.66201 103.879 3.72846C104.062 3.79351 103.79 3.68233 103.755 3.66378C103.605 3.58464 103.469 3.49132 103.327 3.39999C103.58 3.56312 103.255 3.32774 103.171 3.24496C103.067 3.14269 102.974 3.03206 102.876 2.92449C102.711 2.74333 102.991 3.13433 102.877 2.91723C102.833 2.83278 102.77 2.7542 102.722 2.67172C102.633 2.52116 102.549 2.36478 102.481 2.20362C102.58 2.43962 102.445 2.06437 102.423 1.99213C102.368 1.8091 102.323 1.62293 102.287 1.43527C102.271 1.35476 102.256 1.27389 102.244 1.19268C102.28 1.43876 102.251 1.17929 102.244 1.06795C102.221 0.710894 102.225 0.352313 102.253 -0.00434726C102.261 -0.111434 102.323 -0.487912 102.268 -0.191623C102.306 -0.396227 102.341 -0.60007 102.392 -0.802152C102.436 -0.978179 102.488 -1.15214 102.547 -1.32342C102.573 -1.39644 102.599 -1.46979 102.628 -1.54136C102.598 -1.46901 102.497 -1.28475 102.649 -1.56035C102.723 -1.69534 102.799 -1.82772 102.879 -1.95943C102.887 -1.97254 103.033 -2.17878 102.927 -2.03808C102.809 -1.88158 103.063 -2.18534 103.092 -2.21387C103.169 -2.29179 103.432 -2.48101 103.205 -2.33348C103.352 -2.42901 103.501 -2.51031 103.653 -2.59751C103.818 -2.69246 103.622 -2.5789 103.591 -2.57112C103.683 -2.59447 103.781 -2.62667 103.873 -2.65459C103.903 -2.66374 104.141 -2.70023 103.937 -2.67457C103.708 -2.64571 104.143 -2.66994 104.148 -2.66994C104.451 -2.66989 103.986 -2.73959 104.275 -2.63763C104.315 -2.62357 104.504 -2.53594 104.321 -2.62839C104.118 -2.731 104.362 -2.58293 104.411 -2.56202C104.567 -2.49586 104.364 -2.60466 104.336 -2.63161C104.384 -2.58588 104.434 -2.54363 104.481 -2.49683C104.52 -2.4578 104.696 -2.24146 104.565 -2.41729C104.438 -2.58704 104.599 -2.34863 104.619 -2.31429C104.653 -2.25692 104.68 -2.19605 104.713 -2.13897C104.543 -2.42924 104.675 -2.21986 104.705 -2.10804C104.723 -2.04415 104.734 -1.97939 104.75 -1.9153C104.697 -2.12361 104.692 -2.11133 104.729 -1.9049C104.759 -1.7376 104.751 -1.98268 104.761 -2.02481C104.742 -1.93805 104.72 -1.85293 104.7 -1.76666C104.667 -1.62946 104.563 -1.59126 104.72 -1.8037C104.671 -1.73813 104.622 -1.6502 104.585 -1.57763C104.599 -1.60463 104.778 -1.77879 104.645 -1.65975C104.564 -1.58805 104.485 -1.50529 104.409 -1.42823C104.433 -1.45191 104.643 -1.57039 104.485 -1.49366C104.391 -1.44831 104.285 -1.38301 104.197 -1.32956C104.225 -1.3464 104.467 -1.4095 104.293 -1.37582C104.213 -1.36029 104.117 -1.333 104.039 -1.30652C103.822 -1.23241 104.323 -1.29033 104.096 -1.31731C104.007 -1.32785 103.683 -1.34758 104.083 -1.28804C103.217 -1.41691 102.233 -1.07203 102.014 -0.110639C101.832 0.690152 102.258 1.82465 103.189 1.96307Z" fill="black"/>
<path d="M115.481 -5.67839C113.936 -6.0262 112.093 -6.31266 110.726 -5.28618C109.374 -4.27077 108.639 -2.40368 109.592 -0.852648C110.047 -0.113138 110.826 0.354648 111.65 0.567108C112.199 0.708564 112.762 0.767289 113.309 0.91809C113.49 0.967881 113.154 0.86925 113.162 0.856108C113.166 0.848272 113.329 0.95097 113.354 0.963202C113.506 1.03874 113.41 0.953032 113.364 0.956977L113.282 0.890909C113.325 0.925427 113.366 0.96165 113.406 0.99958C113.44 1.03362 113.684 1.2422 113.671 1.28056C113.655 1.32501 113.509 0.970592 113.571 1.16232C113.594 1.23075 113.677 1.34227 113.714 1.39978C113.818 1.5588 113.744 1.40391 113.725 1.39864L113.685 1.29874C113.706 1.35016 113.725 1.40228 113.742 1.45513C113.752 1.48963 113.837 1.82948 113.839 1.82965C113.812 1.82703 113.83 1.4712 113.815 1.65481C113.811 1.7073 113.823 1.76671 113.824 1.81975C113.824 1.80215 113.818 2.03962 113.818 2.03977C113.788 2.02881 113.908 1.64991 113.833 1.91908C113.814 1.98779 113.793 2.06341 113.778 2.13375C113.718 2.4066 113.805 2.02564 113.827 2.04021C113.914 2.098 113.403 2.52755 113.667 2.33508C113.83 2.21586 113.707 2.28762 113.658 2.33364C113.593 2.39376 113.515 2.45839 113.46 2.52614C113.337 2.67919 113.582 2.40348 113.585 2.43589C113.588 2.46673 113.377 2.57328 113.353 2.58706C113.306 2.61511 113.255 2.63883 113.208 2.6677C112.955 2.82266 113.438 2.61632 113.254 2.65093C113.12 2.67613 112.957 2.72375 112.828 2.76534C112.652 2.82204 112.995 2.7209 113.003 2.7417C113.003 2.7432 112.756 2.74664 112.728 2.74817C112.713 2.74898 112.568 2.73107 112.564 2.73855C112.81 2.77648 112.869 2.78231 112.739 2.75604C112.685 2.74524 112.631 2.73187 112.578 2.71592C111.728 2.49009 110.712 2.99993 110.509 3.89333C110.308 4.77729 110.774 5.72509 111.684 5.96702C113.18 6.36482 114.751 5.91485 115.88 4.87354C117.004 3.83757 117.41 2.23768 117.047 0.771456C116.681 -0.705562 115.538 -1.91295 114.097 -2.36876C113.555 -2.53992 112.979 -2.55556 112.435 -2.71358C112.385 -2.72805 112.326 -2.75852 112.275 -2.76518C112.055 -2.79392 112.584 -2.65706 112.378 -2.72794C112.367 -2.73157 112.239 -2.81003 112.24 -2.81208C112.253 -2.83459 112.557 -2.52569 112.336 -2.76396C112.333 -2.76649 112.536 -2.4929 112.441 -2.64447C112.344 -2.79927 112.511 -2.47485 112.509 -2.47866C112.409 -2.75599 112.554 -2.35825 112.519 -2.33096C112.523 -2.33439 112.53 -2.52747 112.525 -2.53629C112.54 -2.50967 112.49 -2.14299 112.527 -2.39649C112.566 -2.66765 112.52 -2.27362 112.477 -2.29389C112.47 -2.29727 112.573 -2.46097 112.586 -2.48456C112.728 -2.75308 112.444 -2.28393 112.562 -2.44864C112.569 -2.45807 112.676 -2.56917 112.68 -2.56614C112.67 -2.5738 112.343 -2.34096 112.649 -2.53315C112.67 -2.54598 112.77 -2.61836 112.793 -2.61221L112.626 -2.53745C112.693 -2.56132 112.762 -2.58156 112.831 -2.59818C112.9 -2.61604 112.97 -2.62912 113.039 -2.64445C112.807 -2.59337 112.909 -2.62804 113.088 -2.63349C113.282 -2.63941 113.472 -2.61689 113.665 -2.61227C113.86 -2.60761 113.608 -2.62328 113.581 -2.62755C113.702 -2.60823 113.823 -2.58759 113.943 -2.56455C114.159 -2.5233 114.373 -2.47552 114.587 -2.42731C115.444 -2.23448 116.448 -2.68799 116.656 -3.60472C116.85 -4.46019 116.399 -5.47168 115.481 -5.67839Z" fill="black"/>
<path d="M123.289 -5.94959C121.667 -5.76811 120.17 -5.06107 119.129 -3.7691C118.02 -2.39286 117.559 -0.759419 117.831 0.991966C118.077 2.57393 119.04 3.96928 120.305 4.91059C121.751 5.98689 123.556 6.09124 125.294 6.05238C126.173 6.03272 127.017 5.29108 126.976 4.36662C126.935 3.47012 126.236 2.65977 125.294 2.68086C124.923 2.68914 124.552 2.69775 124.182 2.68782C124.023 2.68357 123.865 2.67686 123.707 2.66471C123.66 2.66113 123.185 2.57669 123.528 2.65041C123.374 2.61726 123.219 2.59182 123.066 2.55134C123.015 2.53771 122.49 2.37801 122.739 2.45812C122.982 2.53623 122.556 2.36238 122.505 2.33334C122.399 2.27391 122.3 2.20564 122.198 2.14169C121.867 1.93541 122.44 2.37753 122.156 2.10972C122.068 2.02659 121.977 1.94748 121.892 1.86079C121.86 1.82843 121.527 1.47732 121.705 1.66616C121.875 1.84732 121.586 1.48986 121.555 1.44125C121.49 1.33855 121.429 1.23327 121.373 1.12571C121.317 1.01921 121.112 0.76768 121.34 1.08752C121.209 0.903572 121.159 0.547963 121.116 0.333932C121.103 0.274776 121.093 0.215295 121.083 0.155504C121.112 0.384249 121.12 0.433622 121.108 0.303616C121.106 0.162436 121.091 0.0222953 121.094 -0.119457C121.096 -0.22798 121.079 -0.38404 121.119 -0.482724C121.087 -0.2557 121.083 -0.206253 121.106 -0.334391C121.117 -0.393945 121.13 -0.453116 121.145 -0.511889C121.174 -0.629717 121.216 -0.743021 121.247 -0.859871C121.332 -1.1827 121.096 -0.571511 121.287 -0.958683C121.388 -1.16239 121.523 -1.47387 121.697 -1.62968C121.395 -1.35882 121.676 -1.58979 121.743 -1.66283C121.825 -1.75237 121.91 -1.83855 121.999 -1.92125C122.058 -1.9764 122.119 -2.02996 122.181 -2.08192C122.014 -1.95761 121.98 -1.93193 122.08 -2.00486C122.197 -2.08403 122.311 -2.16634 122.433 -2.23888C122.537 -2.30084 122.645 -2.35387 122.752 -2.41137C123.096 -2.59708 122.421 -2.31569 122.795 -2.42825C122.911 -2.46306 123.024 -2.50371 123.141 -2.53372C123.245 -2.56029 123.781 -2.63302 123.289 -2.57807C124.161 -2.67553 125.015 -3.28354 124.971 -4.26383C124.934 -5.09332 124.226 -6.05432 123.289 -5.94959Z" fill="black"/>
</g>
<g clip-path="url(#clip8_89_84)">
<path d="M146.867 39.0306C144.402 41.6849 141.936 44.3391 139.471 46.9933C138.569 47.9651 139.046 49.2903 140.197 49.7422C143.237 50.9357 145.985 52.7981 148.281 55.1107C149.775 56.6149 152.101 54.2892 150.607 52.7848C147.891 50.0498 144.653 47.9767 141.071 46.5703L141.797 49.3192C144.262 46.665 146.728 44.0108 149.193 41.3565C150.632 39.807 148.311 37.4756 146.867 39.0306Z" fill="black"/>
<path d="M166.807 41.3565C169.272 44.0108 171.738 46.665 174.203 49.3192C174.445 48.4029 174.687 47.4866 174.929 46.5703C171.347 47.9767 168.109 50.0498 165.393 52.7847C163.9 54.2885 166.224 56.6155 167.719 55.1106C170.015 52.798 172.763 50.9357 175.803 49.7421C176.954 49.2902 177.431 47.9651 176.529 46.9933C174.064 44.3391 171.598 41.6849 169.133 39.0306C167.689 37.4762 165.367 39.8063 166.807 41.3565Z" fill="black"/>
<path d="M155.243 59.9311C158.477 51.6489 161.711 43.3668 164.944 35.0846C165.267 34.257 164.589 33.2795 163.796 33.0615C162.864 32.8055 162.097 33.3795 161.772 34.2102C158.539 42.4924 155.305 50.7745 152.071 59.0567C151.748 59.8843 152.427 60.8618 153.22 61.0798C154.151 61.3358 154.919 60.7618 155.243 59.9311Z" fill="black"/>
</g>
<g clip-path="url(#clip9_89_84)">
<path d="M0.115961 160C-7.6618 160.005 -14.9378 164.981 -17.7773 172.21C-20.5822 179.353 -18.4387 188.304 -12.6035 193.312C-6.67609 198.398 2.20658 199.556 9.09734 195.745C15.9073 191.978 19.9009 184.088 18.8174 176.391C18.1829 171.884 15.8715 167.529 12.3436 164.621C8.67005 161.594 3.95077 159.962 -0.819135 160.254C-3.05839 160.391 -3.07395 163.894 -0.819135 163.756C6.25755 163.324 12.8094 167.771 14.8538 174.597C16.7094 180.793 14.3787 187.55 9.25725 191.473C4.15815 195.379 -2.99578 195.422 -8.39488 192.086C-13.8423 188.72 -16.5105 181.825 -15.1498 175.616C-13.6167 168.62 -7.00634 163.507 0.115961 163.502C2.36944 163.501 2.37329 159.999 0.115961 160Z" fill="black"/>
<path d="M-9.04249 185.381C-6.70729 187.76 -3.46822 189.109 -0.143433 189.203C3.34423 189.301 6.66056 187.87 9.08111 185.381C10.6531 183.764 8.17919 181.285 6.60464 182.904C4.79131 184.769 2.44459 185.774 -0.143433 185.701C-2.54282 185.633 -4.87239 184.63 -6.56602 182.904C-8.14725 181.293 -10.6231 183.77 -9.04249 185.381Z" fill="black"/>
<path d="M3.94807 171.264C3.59086 171.355 3.3031 171.542 3.03795 171.791C2.91445 171.908 2.8052 172.05 2.72352 172.2C2.67954 172.28 2.65632 172.349 2.61586 172.445C2.58698 172.513 2.53302 172.619 2.50875 172.706C2.45948 172.882 2.43047 173.071 2.43343 173.253C2.43374 173.271 2.435 173.289 2.43609 173.307C2.4435 173.435 2.46886 173.678 2.50352 173.8C2.54904 173.96 2.62757 174.141 2.70477 174.287C2.7906 174.449 2.91193 174.596 3.03684 174.729C3.18653 174.888 3.36698 175.032 3.5658 175.124C3.72126 175.196 3.88977 175.283 4.05776 175.324C4.14714 175.346 4.25311 175.353 4.33592 175.365C4.426 175.377 4.53765 175.399 4.63631 175.401C4.87647 175.407 5.12783 175.372 5.35616 175.295C5.5567 175.227 5.81384 175.129 6.00444 175.002C6.37594 174.754 6.74402 174.435 6.93862 174.023C7.11173 173.656 7.21705 173.368 7.21248 172.951C7.21158 172.868 7.18313 172.718 7.17874 172.686C7.16864 172.61 7.1599 172.493 7.13864 172.405C7.09511 172.223 7.01478 172.042 6.92238 171.883C6.91153 171.865 6.90002 171.848 6.8882 171.83C6.80868 171.71 6.69106 171.557 6.59462 171.451C6.47513 171.319 6.29921 171.204 6.17169 171.11C6.14111 171.087 6.11153 171.066 6.07775 171.048C5.99801 171.006 5.90219 170.971 5.82515 170.939C5.7394 170.902 5.64279 170.854 5.54882 170.826C5.08838 170.691 4.5425 170.713 4.08498 170.846C4.04132 170.859 3.99897 170.875 3.95667 170.891C3.78585 170.958 3.60898 171.025 3.44622 171.111C3.41137 171.13 3.37763 171.15 3.34525 171.173C3.19296 171.278 3.03555 171.394 2.89867 171.52C2.86522 171.55 2.83603 171.584 2.80727 171.619C2.69651 171.753 2.57511 171.893 2.48614 172.044C2.36831 172.244 2.26849 172.47 2.22271 172.7C2.19226 172.852 2.16685 173.044 2.15573 173.199C2.15412 173.221 2.15231 173.243 2.15248 173.266C2.15375 173.443 2.18881 173.641 2.22224 173.814C2.2443 173.929 2.29353 174.022 2.34045 174.133C2.38552 174.24 2.42178 174.348 2.48389 174.445C2.67316 174.742 2.8015 174.869 3.05418 175.064C3.3305 175.278 3.47354 175.349 3.82924 175.483C3.97401 175.538 4.10944 175.55 4.26614 175.571C4.44562 175.595 4.59799 175.621 4.77511 175.601C5.01258 175.574 5.25875 175.554 5.48833 175.481C5.72637 175.405 5.95578 175.298 6.1834 175.197C6.34663 175.124 6.51002 175.046 6.6565 174.943C6.83104 174.82 7.01421 174.693 7.16603 174.541C7.24312 174.463 7.30674 174.37 7.37247 174.285C7.43767 174.201 7.52113 174.109 7.57253 174.01C7.75936 173.65 7.84612 173.337 7.86983 172.932C7.88354 172.698 7.85233 172.45 7.77065 172.23C7.62709 171.844 7.49204 171.589 7.20398 171.282C7.0464 171.114 6.85385 170.965 6.6502 170.857C6.45372 170.753 6.2326 170.645 6.00909 170.602C5.81738 170.565 5.61321 170.534 5.41773 170.525C5.35818 170.522 5.29854 170.524 5.23926 170.53C4.97928 170.557 4.71237 170.583 4.46014 170.657C4.33701 170.694 4.2169 170.739 4.09707 170.785C3.86919 170.839 3.67069 170.943 3.50156 171.098C3.31093 171.222 3.16059 171.385 3.05055 171.589C2.92258 171.79 2.85331 172.007 2.84274 172.241C2.79062 172.473 2.80105 172.706 2.87402 172.939C3.01114 173.363 3.27372 173.771 3.67877 173.985L4.09708 174.162C4.40743 174.245 4.71777 174.245 5.02812 174.162C5.22964 174.085 5.43184 174.011 5.64557 173.977L5.18005 174.04C5.28642 174.025 5.39059 174.022 5.49737 174.034L5.03184 173.971C5.10574 173.982 5.17455 174.002 5.24364 174.03L4.82533 173.854C4.88352 173.88 4.93726 173.912 4.98918 173.949L4.63477 173.675C4.68411 173.714 4.72763 173.756 4.76738 173.805L4.49356 173.45C4.52391 173.491 4.54891 173.533 4.57002 173.579L4.3935 173.161C4.40816 173.199 4.41888 173.236 4.4265 173.276L4.36395 172.81C4.37045 172.862 4.37025 172.91 4.36391 172.961L4.42646 172.496C4.41936 172.535 4.40942 172.571 4.39591 172.608L4.57243 172.19C4.54925 172.244 4.52046 172.293 4.48528 172.34L4.75909 171.986C4.70759 172.05 4.64934 172.105 4.58515 172.156L4.93955 171.882C4.75836 172.019 4.55075 172.115 4.34287 172.204L4.76118 172.028C4.61482 172.088 4.46653 172.137 4.30958 172.161L4.7751 172.099C4.68232 172.11 4.5916 172.112 4.49888 172.1L4.96441 172.163C4.89366 172.151 4.82693 172.133 4.76027 172.106L5.17858 172.283C5.11377 172.254 5.05516 172.22 4.99902 172.177L5.35343 172.451C5.31565 172.419 5.28224 172.385 5.25124 172.347L5.52506 172.701C5.49592 172.661 5.47248 172.62 5.4528 172.575L5.62933 172.993C5.61411 172.951 5.60376 172.911 5.59671 172.867L5.65926 173.332C5.65368 173.276 5.65491 173.222 5.6624 173.165L5.59985 173.631C5.61043 173.574 5.62616 173.522 5.64783 173.469L5.4713 173.887C5.49562 173.835 5.52371 173.787 5.55753 173.741L5.28371 174.095C5.32653 174.042 5.37346 173.996 5.42651 173.953L5.0721 174.226C5.14507 174.172 5.22236 174.128 5.306 174.092L4.88769 174.269C4.9883 174.229 5.09108 174.201 5.19808 174.184L4.73256 174.247C4.81178 174.237 4.88881 174.235 4.96834 174.243L4.50282 174.18C4.56606 174.19 4.62547 174.204 4.68493 174.227L4.26662 174.051C4.31633 174.074 4.36075 174.101 4.40401 174.134L4.0496 173.86C4.08233 173.889 4.11093 173.918 4.13789 173.952L3.86407 173.598C3.88254 173.624 3.89786 173.65 3.91242 173.679L3.73589 173.261C3.75264 173.301 3.76348 173.34 3.77028 173.384L3.70773 172.918C3.71025 172.951 3.71021 172.982 3.7076 173.015L3.77015 172.549C3.76354 172.592 3.75302 172.632 3.73795 172.673L3.91448 172.255C3.892 172.306 3.86499 172.353 3.83245 172.398L4.10626 172.044C4.05628 172.107 4.00085 172.162 3.93756 172.212L4.29196 171.938C4.21395 171.996 4.13111 172.043 4.04176 172.081L4.46007 171.904C4.40131 171.927 4.34308 171.943 4.28128 171.954L4.7468 171.892C4.68661 171.899 4.62884 171.901 4.56864 171.894L5.03416 171.956C4.9929 171.949 4.95438 171.938 4.91511 171.923L5.33342 172.1C5.29521 172.083 5.26053 172.064 5.22614 172.04L5.58055 172.314C5.54814 172.288 5.52038 172.261 5.49412 172.229L5.76794 172.583C5.75001 172.558 5.73582 172.534 5.72228 172.505L5.89881 172.924C5.88823 172.896 5.88107 172.871 5.87577 172.842L5.93831 173.307C5.93573 173.279 5.93559 173.253 5.93776 173.225L5.8752 173.691C5.88105 173.653 5.89043 173.62 5.90472 173.585L5.72819 174.003C5.74087 173.978 5.754 173.957 5.77058 173.934L5.49677 174.288C5.51506 174.267 5.53261 174.25 5.55443 174.233L5.20002 174.507C5.21443 174.496 5.22976 174.488 5.246 174.48L4.82769 174.657C4.84422 174.65 4.86134 174.644 4.87906 174.641C5.10694 174.587 5.30545 174.482 5.47457 174.327C5.66521 174.204 5.81555 174.04 5.92559 173.836C6.05355 173.635 6.12282 173.418 6.13339 173.185C6.18552 172.952 6.17509 172.719 6.10212 172.487C5.965 172.063 5.70242 171.654 5.29737 171.44C4.87588 171.217 4.41714 171.144 3.94807 171.264Z" fill="black"/>
</g>
<g clip-path="url(#clip10_89_84)">
<path d="M127.418 186.529C118.295 186.672 109.166 186.719 100.046 186.959C98.1369 187.009 96.1163 187.22 94.5087 188.35C92.8883 189.489 91.8535 191.291 91.4077 193.203C90.9141 195.32 90.9815 197.56 91.0412 199.719C91.0982 201.783 91.3378 203.839 92.1707 205.744C92.9299 207.481 94.2218 209.033 95.948 209.864C97.8005 210.755 99.8699 210.843 101.888 210.916C106.386 211.076 110.891 211.007 115.381 210.709C119.262 210.451 123.368 210.269 127.12 209.161C130.713 208.1 133.592 205.904 134.859 202.283C135.584 200.212 135.776 197.919 135.946 195.744C136.117 193.575 135.935 191.274 134.596 189.473C133.336 187.779 131.368 186.74 129.305 186.404C126.888 186.01 124.316 185.785 121.905 186.3C119.789 186.752 120.685 190.003 122.799 189.551C124.594 189.167 126.56 189.409 128.363 189.654C129.627 189.826 130.968 190.302 131.797 191.327C132.728 192.477 132.696 194.068 132.603 195.466C132.496 197.085 132.329 198.739 131.933 200.315C131.566 201.777 130.939 203.086 129.801 204.098C128.825 204.966 127.58 205.5 126.344 205.875C123.143 206.848 119.681 207.023 116.367 207.268C112.481 207.556 108.582 207.671 104.686 207.614C102.897 207.588 101.036 207.642 99.2634 207.371C97.7999 207.148 96.5391 206.554 95.7228 205.279C94.8943 203.985 94.5713 202.473 94.4624 200.956C94.3301 199.112 94.2934 197.192 94.4529 195.348C94.577 193.913 95.0052 192.296 96.1456 191.324C97.2772 190.36 98.9152 190.353 100.321 190.325C109.352 190.142 118.386 190.042 127.418 189.901C129.58 189.867 129.587 186.495 127.418 186.529Z" fill="black"/>
<path d="M103.189 199.963C104.524 200.162 105.763 199.869 106.788 198.956C107.638 198.198 108.148 197.042 108.088 195.898C107.951 193.251 105.389 191.385 102.837 192.132C100.291 192.879 99.1463 195.378 98.9038 197.831C98.6631 200.267 99.5145 202.751 101.514 204.225C103.708 205.844 106.883 205.355 108.383 203.055C108.865 202.315 108.555 201.159 107.78 200.748C106.94 200.304 105.993 200.564 105.478 201.353C105.46 201.382 105.329 201.56 105.456 201.399C105.592 201.227 105.408 201.44 105.37 201.478C105.323 201.524 105.272 201.566 105.225 201.612C105.247 201.591 105.459 201.467 105.301 201.547C105.163 201.617 105.035 201.705 104.895 201.773C104.925 201.758 105.16 201.692 104.986 201.724C104.879 201.743 104.768 201.784 104.663 201.813C104.357 201.897 104.895 201.822 104.578 201.823C104.522 201.823 104.04 201.81 104.266 201.829C104.482 201.848 104.268 201.829 104.226 201.817C104.133 201.792 104.04 201.767 103.947 201.743C103.924 201.737 103.693 201.662 103.879 201.728C104.062 201.794 103.79 201.682 103.755 201.664C103.605 201.585 103.469 201.491 103.327 201.4C103.58 201.563 103.255 201.328 103.171 201.245C103.067 201.143 102.974 201.032 102.876 200.924C102.711 200.743 102.991 201.134 102.877 200.917C102.833 200.833 102.77 200.754 102.722 200.672C102.633 200.521 102.549 200.365 102.481 200.204C102.58 200.44 102.445 200.064 102.423 199.992C102.368 199.809 102.323 199.623 102.287 199.435C102.271 199.355 102.256 199.274 102.244 199.193C102.28 199.439 102.251 199.179 102.244 199.068C102.221 198.711 102.225 198.352 102.253 197.996C102.261 197.889 102.323 197.512 102.268 197.808C102.306 197.604 102.341 197.4 102.392 197.198C102.436 197.022 102.488 196.848 102.547 196.677C102.573 196.604 102.599 196.53 102.628 196.459C102.598 196.531 102.497 196.715 102.649 196.44C102.723 196.305 102.799 196.172 102.879 196.041C102.887 196.027 103.033 195.821 102.927 195.962C102.809 196.118 103.063 195.815 103.092 195.786C103.169 195.708 103.432 195.519 103.205 195.667C103.352 195.571 103.501 195.49 103.653 195.402C103.818 195.308 103.622 195.421 103.591 195.429C103.683 195.406 103.781 195.373 103.873 195.345C103.903 195.336 104.141 195.3 103.937 195.325C103.708 195.354 104.143 195.33 104.148 195.33C104.451 195.33 103.986 195.26 104.275 195.362C104.315 195.376 104.504 195.464 104.321 195.372C104.118 195.269 104.362 195.417 104.411 195.438C104.567 195.504 104.364 195.395 104.336 195.368C104.384 195.414 104.434 195.456 104.481 195.503C104.52 195.542 104.696 195.759 104.565 195.583C104.438 195.413 104.599 195.651 104.619 195.686C104.653 195.743 104.68 195.804 104.713 195.861C104.543 195.571 104.675 195.78 104.705 195.892C104.723 195.956 104.734 196.021 104.75 196.085C104.697 195.876 104.692 195.889 104.729 196.095C104.759 196.262 104.751 196.017 104.761 195.975C104.742 196.062 104.72 196.147 104.7 196.233C104.667 196.371 104.563 196.409 104.72 196.196C104.671 196.262 104.622 196.35 104.585 196.422C104.599 196.395 104.778 196.221 104.645 196.34C104.564 196.412 104.485 196.495 104.409 196.572C104.433 196.548 104.643 196.43 104.485 196.506C104.391 196.552 104.285 196.617 104.197 196.67C104.225 196.654 104.467 196.591 104.293 196.624C104.213 196.64 104.117 196.667 104.039 196.693C103.822 196.768 104.323 196.71 104.096 196.683C104.007 196.672 103.683 196.652 104.083 196.712C103.217 196.583 102.233 196.928 102.014 197.889C101.832 198.69 102.258 199.825 103.189 199.963Z" fill="black"/>
<path d="M115.481 192.322C113.936 191.974 112.093 191.687 110.726 192.714C109.374 193.729 108.639 195.596 109.592 197.147C110.047 197.887 110.826 198.355 111.65 198.567C112.199 198.709 112.762 198.767 113.309 198.918C113.49 198.968 113.154 198.869 113.162 198.856C113.166 198.848 113.329 198.951 113.354 198.963C113.506 199.039 113.41 198.953 113.364 198.957L113.282 198.891C113.325 198.925 113.366 198.962 113.406 199C113.44 199.034 113.684 199.242 113.671 199.281C113.655 199.325 113.509 198.971 113.571 199.162C113.594 199.231 113.677 199.342 113.714 199.4C113.818 199.559 113.744 199.404 113.725 199.399L113.685 199.299C113.706 199.35 113.725 199.402 113.742 199.455C113.752 199.49 113.837 199.829 113.839 199.83C113.812 199.827 113.83 199.471 113.815 199.655C113.811 199.707 113.823 199.767 113.824 199.82C113.824 199.802 113.818 200.04 113.818 200.04C113.788 200.029 113.908 199.65 113.833 199.919C113.814 199.988 113.793 200.063 113.778 200.134C113.718 200.407 113.805 200.026 113.827 200.04C113.914 200.098 113.403 200.528 113.667 200.335C113.83 200.216 113.707 200.288 113.658 200.334C113.593 200.394 113.515 200.458 113.46 200.526C113.337 200.679 113.582 200.403 113.585 200.436C113.588 200.467 113.377 200.573 113.353 200.587C113.306 200.615 113.255 200.639 113.208 200.668C112.955 200.823 113.438 200.616 113.254 200.651C113.12 200.676 112.957 200.724 112.828 200.765C112.652 200.822 112.995 200.721 113.003 200.742C113.003 200.743 112.756 200.747 112.728 200.748C112.713 200.749 112.568 200.731 112.564 200.739C112.81 200.776 112.869 200.782 112.739 200.756C112.685 200.745 112.631 200.732 112.578 200.716C111.728 200.49 110.712 201 110.509 201.893C110.308 202.777 110.774 203.725 111.684 203.967C113.18 204.365 114.751 203.915 115.88 202.874C117.004 201.838 117.41 200.238 117.047 198.771C116.681 197.294 115.538 196.087 114.097 195.631C113.555 195.46 112.979 195.444 112.435 195.286C112.385 195.272 112.326 195.241 112.275 195.235C112.055 195.206 112.584 195.343 112.378 195.272C112.367 195.268 112.239 195.19 112.24 195.188C112.253 195.165 112.557 195.474 112.336 195.236C112.333 195.234 112.536 195.507 112.441 195.356C112.344 195.201 112.511 195.525 112.509 195.521C112.409 195.244 112.554 195.642 112.519 195.669C112.523 195.666 112.53 195.473 112.525 195.464C112.54 195.49 112.49 195.857 112.527 195.604C112.566 195.332 112.52 195.726 112.477 195.706C112.47 195.703 112.573 195.539 112.586 195.515C112.728 195.247 112.444 195.716 112.562 195.551C112.569 195.542 112.676 195.431 112.68 195.434C112.67 195.426 112.343 195.659 112.649 195.467C112.67 195.454 112.77 195.382 112.793 195.388L112.626 195.463C112.693 195.439 112.762 195.418 112.831 195.402C112.9 195.384 112.97 195.371 113.039 195.356C112.807 195.407 112.909 195.372 113.088 195.367C113.282 195.361 113.472 195.383 113.665 195.388C113.86 195.392 113.608 195.377 113.581 195.372C113.702 195.392 113.823 195.412 113.943 195.435C114.159 195.477 114.373 195.524 114.587 195.573C115.444 195.766 116.448 195.312 116.656 194.395C116.85 193.54 116.399 192.528 115.481 192.322Z" fill="black"/>
<path d="M123.289 192.05C121.667 192.232 120.17 192.939 119.129 194.231C118.02 195.607 117.559 197.241 117.831 198.992C118.077 200.574 119.04 201.969 120.305 202.911C121.751 203.987 123.556 204.091 125.294 204.052C126.173 204.033 127.017 203.291 126.976 202.367C126.935 201.47 126.236 200.66 125.294 200.681C124.923 200.689 124.552 200.698 124.182 200.688C124.023 200.684 123.865 200.677 123.707 200.665C123.66 200.661 123.185 200.577 123.528 200.65C123.374 200.617 123.219 200.592 123.066 200.551C123.015 200.538 122.49 200.378 122.739 200.458C122.982 200.536 122.556 200.362 122.505 200.333C122.399 200.274 122.3 200.206 122.198 200.142C121.867 199.935 122.44 200.378 122.156 200.11C122.068 200.027 121.977 199.947 121.892 199.861C121.86 199.828 121.527 199.477 121.705 199.666C121.875 199.847 121.586 199.49 121.555 199.441C121.49 199.339 121.429 199.233 121.373 199.126C121.317 199.019 121.112 198.768 121.34 199.088C121.209 198.904 121.159 198.548 121.116 198.334C121.103 198.275 121.093 198.215 121.083 198.156C121.112 198.384 121.12 198.434 121.108 198.304C121.106 198.162 121.091 198.022 121.094 197.881C121.096 197.772 121.079 197.616 121.119 197.517C121.087 197.744 121.083 197.794 121.106 197.666C121.117 197.606 121.13 197.547 121.145 197.488C121.174 197.37 121.216 197.257 121.247 197.14C121.332 196.817 121.096 197.428 121.287 197.041C121.388 196.838 121.523 196.526 121.697 196.37C121.395 196.641 121.676 196.41 121.743 196.337C121.825 196.248 121.91 196.161 121.999 196.079C122.058 196.024 122.119 195.97 122.181 195.918C122.014 196.042 121.98 196.068 122.08 195.995C122.197 195.916 122.311 195.834 122.433 195.761C122.537 195.699 122.645 195.646 122.752 195.589C123.096 195.403 122.421 195.684 122.795 195.572C122.911 195.537 123.024 195.496 123.141 195.466C123.245 195.44 123.781 195.367 123.289 195.422C124.161 195.324 125.015 194.716 124.971 193.736C124.934 192.907 124.226 191.946 123.289 192.05Z" fill="black"/>
</g>
<g clip-path="url(#clip11_89_84)">
<path d="M-0.447255 110.371C-2.47705 111.223 -4.22325 112.394 -6.03261 113.632C-7.67382 114.754 -9.28423 115.758 -11.2818 116.052L-8.38642 118.948C-8.03995 116.684 -7.6935 114.421 -7.34704 112.157C-7.18535 111.101 -7.02347 110.044 -6.862 108.988C-6.68321 107.819 -6.93988 107.113 -7.5454 106.129C-9.62884 102.742 -12.3576 99.899 -15.5446 97.54L-16.7326 101.926C-14.5367 101.88 -12.3339 101.627 -10.1883 101.151C-9.21711 100.936 -8.25656 100.672 -7.31222 100.359C-6.30476 100.026 -5.02772 99.7082 -4.24198 98.976C-3.51128 98.2951 -3.24791 97.3153 -2.88203 96.4133L-1.65731 93.3939L0.967095 86.9239L-3.33497 87.4861C-1.12143 90.4837 0.728942 93.7425 2.05602 97.2281C2.43003 98.2105 3.21907 98.9562 4.3257 98.9562C5.31927 98.9562 6.37712 98.2308 6.59537 97.2281L6.65455 96.9562L4.38488 98.6842L16.6522 100.105L14.9878 96.0873C13.3717 97.7853 11.7556 99.4832 10.1395 101.181C9.3853 101.974 8.63111 102.766 7.87692 103.558C7.26482 104.201 6.50108 104.826 6.27628 105.721C6.02322 106.729 6.15038 107.982 6.1874 109.013C6.22463 110.049 6.31021 111.083 6.43493 112.112C6.7106 114.388 7.15855 116.618 7.81994 118.813L10.7153 115.918C8.99336 115.342 7.35308 114.615 5.77413 113.716C4.50541 112.994 2.764 112.136 1.84283 110.976C1.05169 109.98 -0.659272 110.149 -1.48587 110.976C-2.47001 111.96 -2.27904 113.306 -1.48587 114.305C-0.937184 114.996 -0.0179791 115.532 0.693484 116.044C1.56317 116.671 2.46654 117.251 3.39817 117.781C5.32025 118.875 7.36804 119.756 9.4639 120.457C11.1642 121.027 12.8594 119.222 12.3593 117.562C11.8013 115.71 11.3514 113.814 11.1165 111.892C10.9997 110.936 10.9295 109.974 10.8949 109.013C10.879 108.569 10.8714 108.124 10.8722 107.68C10.8727 107.383 10.8769 107.087 10.8849 106.791C10.829 106.939 10.8144 106.964 10.8413 106.867L10.236 107.906C12.9295 105.076 15.623 102.246 18.3166 99.416C19.8355 97.8202 18.6201 95.6259 16.6522 95.3979L4.3849 93.9767C3.41914 93.8648 2.31575 94.7835 2.11522 95.7048L2.05604 95.9767H6.59539C5.11858 92.0978 3.19729 88.4515 0.729845 85.1102C-0.535484 83.3967 -2.7845 83.7304 -3.57221 85.6724L-7.94622 96.4558L-7.3409 95.4172L-7.60487 95.6816L-6.56623 95.0763C-9.82444 96.3995 -13.2154 97.1443 -16.7326 97.2187C-19.2258 97.2714 -19.725 100.269 -17.9205 101.605C-15.1305 103.67 -12.8474 106.336 -11.119 109.335L-11.3563 107.521C-12.055 110.865 -12.4088 114.319 -12.9257 117.696C-13.2148 119.585 -11.9106 120.869 -10.0303 120.592C-5.74355 119.959 -3.01865 116.516 0.804224 114.91C1.97537 114.418 2.81607 113.353 2.44818 112.015C2.14471 110.91 0.732266 109.875 -0.447255 110.371Z" fill="black"/>
</g>
</g>
</g>
</g>
<defs>
<clipPath id="clip0_89_84">
<rect width="198" height="198" fill="white"/>
</clipPath>
<clipPath id="clip1_89_84">
<rect width="37.9937" height="38" fill="white" transform="translate(179 160)"/>
</clipPath>
<clipPath id="clip2_89_84">
<rect width="54.2143" height="38" fill="white" transform="translate(114 119)"/>
</clipPath>
<clipPath id="clip3_89_84">
<rect width="40.8495" height="38" fill="white" transform="translate(28 19)"/>
</clipPath>
<clipPath id="clip4_89_84">
<rect width="32.5478" height="38" fill="white" transform="translate(41 124)"/>
</clipPath>
<clipPath id="clip5_89_84">
<rect width="31.5122" height="38" fill="white" transform="translate(82 61)"/>
</clipPath>
<clipPath id="clip6_89_84">
<rect width="38" height="36.6294" fill="white" transform="translate(179 84)"/>
</clipPath>
<clipPath id="clip7_89_84">
<rect width="45" height="25" fill="white" transform="translate(91 -12)"/>
</clipPath>
<clipPath id="clip8_89_84">
<rect width="38" height="28.1413" fill="white" transform="translate(139 33)"/>
</clipPath>
<clipPath id="clip9_89_84">
<rect width="37.9937" height="38" fill="white" transform="translate(-19 160)"/>
</clipPath>
<clipPath id="clip10_89_84">
<rect width="45" height="25" fill="white" transform="translate(91 186)"/>
</clipPath>
<clipPath id="clip11_89_84">
<rect width="38" height="36.6294" fill="white" transform="translate(-19 84)"/>
</clipPath>
</defs>
</svg>
